<?xml version="1.0" encoding="UTF-8"?>
<svg version="1.1" xmlns="http://www.w3.org/2000/svg" width="500" height="499">
<path d="M0 0 C0.73014018 -0.00467997 1.46028035 -0.00935994 2.21254599 -0.01418173 C4.65999918 -0.02615106 7.10689442 -0.01666711 9.55435181 -0.00723267 C11.30873441 -0.01129759 13.06311445 -0.01663902 14.81748962 -0.02316284 C19.58409623 -0.03685374 24.3505083 -0.03152994 29.11711836 -0.02202559 C34.10447181 -0.01443579 39.0918085 -0.02147293 44.0791626 -0.02618408 C52.45715324 -0.03164463 60.8350646 -0.02444323 69.21304321 -0.01016235 C78.89697075 0.00615408 88.58070871 0.00088417 98.26463163 -0.01564157 C106.57812954 -0.02926062 114.8915704 -0.03117372 123.20507586 -0.02332556 C128.17062716 -0.01864999 133.13608941 -0.01802083 138.10163498 -0.02793503 C142.77201127 -0.0366081 147.44214355 -0.03057649 152.11249352 -0.01325226 C153.82573352 -0.00928879 155.53899408 -0.01041908 157.25222588 -0.01704025 C159.5929874 -0.02525177 161.93296962 -0.0149394 164.27368164 0 C165.58296316 0.00113108 166.89224468 0.00226215 168.2412014 0.00342751 C172.08774206 0.41566554 174.51607759 1.29826649 177.76382446 3.38095093 C179.08665699 7.34944851 179.03931699 11.21827335 179.15054321 15.36141968 C179.18882988 16.69164909 179.18882988 16.69164909 179.22789001 18.04875183 C179.27990084 19.92740191 179.3293275 21.80612504 179.37637329 23.68490601 C179.4505958 26.54041739 179.54142541 29.39508992 179.63296509 32.25009155 C179.68151861 34.0788406 179.72907614 35.90761642 179.77554321 37.73641968 C179.81913216 39.00560493 179.81913216 39.00560493 179.86360168 40.3004303 C179.98521139 46.11792764 179.92751938 52.46466648 176.32632446 57.31845093 C172.80895912 59.71025936 169.3463477 59.54363461 165.23257446 59.62704468 C163.94737915 59.65991577 162.66218384 59.69278687 161.33804321 59.72665405 C159.29723869 59.77412034 157.25646603 59.81859213 155.21548462 59.85775757 C153.24182823 59.89747806 151.26843355 59.94959331 149.29507446 60.00204468 C148.11493774 60.02710083 146.93480103 60.05215698 145.71890259 60.07797241 C142.57797689 60.1676121 142.57797689 60.1676121 139.76382446 62.38095093 C139.834879 63.0204216 139.90593353 63.65989227 139.97914124 64.31874084 C141.13557246 76.57138847 140.88865245 88.85628387 140.86148071 101.15048218 C140.85961282 103.64296948 140.85819067 106.13545715 140.85719299 108.62794495 C140.85339707 115.14948563 140.84359213 121.67100361 140.83248901 128.1925354 C140.82166152 134.86275796 140.81768188 141.53298765 140.81265259 148.20321655 C140.80196693 161.26247096 140.78512166 174.32170973 140.76382446 187.38095093 C144.34733793 187.38095093 145.08488178 186.6212325 147.82632446 184.44345093 C152.97953866 180.38421516 157.14331491 179.23576431 163.76382446 179.38095093 C170.64731894 181.33595701 173.90809167 185.59735174 177.76382446 191.38095093 C177.88882446 194.06845093 177.88882446 194.06845093 177.76382446 196.38095093 C178.68679321 196.35065796 179.60976196 196.32036499 180.56069946 196.28915405 C196.94635949 195.76293473 213.33394674 195.27494654 229.72891235 195.20370483 C231.12379014 195.1968855 232.51865554 195.18664828 233.91348267 195.17294312 C235.85441554 195.15521983 237.79546795 195.15248219 239.73648071 195.15048218 C240.8322644 195.14637329 241.9280481 195.1422644 243.05703735 195.13803101 C245.76382446 195.38095093 245.76382446 195.38095093 248.76382446 197.38095093 C249.12458801 199.29187012 249.12458801 199.29187012 249.10440063 201.64706421 C249.10417404 202.52782623 249.10394745 203.40858826 249.10371399 204.31604004 C249.08823013 205.26816376 249.07274628 206.22028748 249.05679321 207.20126343 C249.05254837 208.17505951 249.04830353 209.14885559 249.04393005 210.15216064 C249.02710232 213.27036897 248.98944258 216.38793709 248.95132446 219.50595093 C248.93628292 221.61661869 248.9225936 223.72729657 248.91030884 225.83798218 C248.87718555 231.01919116 248.82694597 236.20002532 248.76382446 241.38095093 C240.86887506 244.32989417 233.6166426 244.83489288 225.24038696 244.85751343 C223.34478531 244.88088272 223.34478531 244.88088272 221.41088867 244.90472412 C218.08175881 244.94396968 214.75300057 244.97144774 211.42373657 244.99221802 C206.71652119 245.02398537 202.00950549 245.07543237 197.30249023 245.12860107 C194.80289387 245.15575516 192.30322668 245.17713771 189.80352783 245.19213867 C188.67490326 245.20240082 187.54627869 245.21266296 186.38345337 245.22323608 C185.39213409 245.22973175 184.40081482 245.23622742 183.37945557 245.24291992 C181.02240967 245.36730498 179.01855111 245.71067191 176.76382446 246.38095093 C176.66069946 247.12345093 176.55757446 247.86595093 176.45132446 248.63095093 C175.71448649 251.57830283 174.81583304 253.16478166 172.76382446 255.38095093 C172.10382446 255.38095093 171.44382446 255.38095093 170.76382446 255.38095093 C170.76382446 256.04095093 170.76382446 256.70095093 170.76382446 257.38095093 C165.74885189 260.36605365 160.42274191 259.9895925 154.76382446 259.38095093 C150.65011774 257.99445518 147.35591504 255.77567798 143.76382446 253.38095093 C142.77382446 253.38095093 141.78382446 253.38095093 140.76382446 253.38095093 C140.74195068 254.55899292 140.74195068 254.55899292 140.71963501 255.76083374 C140.64429405 259.38465385 140.54792185 263.00763753 140.45132446 266.63095093 C140.41748657 268.48333374 140.41748657 268.48333374 140.38296509 270.37313843 C139.87365338 287.96754283 134.91588433 303.14715076 122.42788696 315.97470093 C113.3281353 324.19383146 102.09128861 329.50041777 89.76382446 330.38095093 C88.92980103 330.44411499 88.09577759 330.50727905 87.23648071 330.57235718 C71.70871914 331.2184788 57.26975877 326.20044236 45.51382446 316.06845093 C34.05613574 305.21092685 26.85377597 292.20220061 26.40737915 276.14364624 C26.40120464 273.83211177 26.41159261 271.52049293 26.43569946 269.20907593 C26.43721008 267.9282312 26.4387207 266.64738647 26.4402771 265.32772827 C26.44529053 261.82573606 26.46961542 258.32412184 26.4979248 254.82225037 C26.51930237 251.87598237 26.52925031 248.92971991 26.53921509 245.98339462 C26.66646447 209.11443885 27.2131698 172.24559854 27.76382446 135.38095093 C26.44382446 135.38095093 25.12382446 135.38095093 23.76382446 135.38095093 C23.53694946 135.93782593 23.31007446 136.49470093 23.07632446 137.06845093 C20.66966804 141.30875034 18.01555544 143.85137244 13.51382446 145.75595093 C7.59747977 146.74200838 2.91445777 146.45626758 -2.48617554 143.75595093 C-6.55656923 140.24061092 -9.52792756 136.50569485 -11.23617554 131.38095093 C-11.98040268 131.37508469 -12.72462982 131.36921844 -13.4914093 131.36317444 C-20.53784968 131.30504098 -27.58397735 131.23284783 -34.63010311 131.14523602 C-38.25178193 131.10068977 -41.87335234 131.06140019 -45.49520874 131.03451538 C-48.99675961 131.00832363 -52.49788969 130.96781253 -55.99917793 130.91776466 C-57.97138523 130.89319459 -59.94375586 130.88309242 -61.91609192 130.87330627 C-78.00472848 130.61239798 -78.00472848 130.61239798 -83.23617554 125.38095093 C-83.47909546 122.6980896 -83.47909546 122.6980896 -83.46664429 119.29891968 C-83.46471069 118.0556189 -83.4627771 116.81231812 -83.46078491 115.53134155 C-83.44853882 114.22358765 -83.43629272 112.91583374 -83.42367554 111.56845093 C-83.42303101 110.30323608 -83.42238647 109.03802124 -83.42172241 107.73446655 C-83.38408531 99.57557974 -82.98239538 91.50521552 -82.23617554 83.38095093 C-74.7858804 82.19530374 -67.42384216 82.25373177 -59.89242554 82.28329468 C-58.51380464 82.28516305 -57.13518308 82.28658497 -55.75656128 82.2875824 C-52.15302654 82.29137458 -48.54953302 82.30117615 -44.9460144 82.31228638 C-41.25888628 82.32257196 -37.57175141 82.32709524 -33.88461304 82.3321228 C-26.66844855 82.34280184 -19.45231785 82.35983794 -12.23617554 82.38095093 C-12.23617554 81.39095093 -12.23617554 80.40095093 -12.23617554 79.38095093 C-11.24617554 79.38095093 -10.25617554 79.38095093 -9.23617554 79.38095093 C-9.00930054 78.49407593 -8.78242554 77.60720093 -8.54867554 76.69345093 C-6.61286021 71.80782176 -3.54537964 69.25375366 0.76382446 66.38095093 C7.2569731 65.71343097 14.47574931 65.12469532 19.76382446 69.38095093 C21.9874385 72.29073821 23.85315158 75.24198834 25.76382446 78.38095093 C26.09382446 72.11095093 26.42382446 65.84095093 26.76382446 59.38095093 C24.35585571 59.36677124 21.94788696 59.35259155 19.46694946 59.33798218 C17.13021903 59.30735219 14.79377213 59.26826637 12.45718384 59.22836304 C10.83554133 59.20519209 9.21374853 59.19078938 7.59194946 59.18539429 C5.25766451 59.1760972 2.92574005 59.13509792 0.59194946 59.08798218 C-0.13111389 59.09191483 -0.85417725 59.09584747 -1.59915161 59.09989929 C-4.9923216 59.00193922 -6.95610742 58.59038954 -9.69223022 56.54428101 C-12.02332188 51.76819711 -11.80757781 47.30954931 -11.76742554 42.06063843 C-11.77316589 40.4172197 -11.77316589 40.4172197 -11.77902222 38.74060059 C-11.78174001 36.42913899 -11.77438823 34.11764656 -11.75765991 31.8062439 C-11.73620877 28.26144263 -11.7574887 24.71865883 -11.78305054 21.17391968 C-11.78040805 18.92782144 -11.7752847 16.68172447 -11.76742554 14.43563843 C-11.77552246 13.37311859 -11.78361938 12.31059875 -11.79196167 11.21588135 C-11.77935303 10.2312088 -11.76674438 9.24653625 -11.75375366 8.23202515 C-11.75057129 7.36552338 -11.74738892 6.49902161 -11.74411011 5.60626221 C-11.23617554 3.38095093 -11.23617554 3.38095093 -9.6566906 1.76567841 C-6.32946368 -0.1377605 -3.82622102 0.00330734 0 0 Z M4.76382446 14.38095093 C4.76382446 24.61095093 4.76382446 34.84095093 4.76382446 45.38095093 C42.05382446 45.38095093 79.34382446 45.38095093 117.76382446 45.38095093 C117.26882446 43.89595093 117.26882446 43.89595093 116.76382446 42.38095093 C120.39382446 42.38095093 124.02382446 42.38095093 127.76382446 42.38095093 C127.76382446 43.37095093 127.76382446 44.36095093 127.76382446 45.38095093 C132.38382446 45.38095093 137.00382446 45.38095093 141.76382446 45.38095093 C141.76382446 44.72095093 141.76382446 44.06095093 141.76382446 43.38095093 C150.17882446 42.88595093 150.17882446 42.88595093 158.76382446 42.38095093 C158.43382446 43.37095093 158.10382446 44.36095093 157.76382446 45.38095093 C158.75382446 45.05095093 159.74382446 44.72095093 160.76382446 44.38095093 C160.76382446 43.72095093 160.76382446 43.06095093 160.76382446 42.38095093 C161.75382446 41.39095093 162.74382446 40.40095093 163.76382446 39.38095093 C163.76382446 31.13095093 163.76382446 22.88095093 163.76382446 14.38095093 C128.78382446 14.38095093 93.80382446 14.38095093 57.76382446 14.38095093 C57.76382446 19.66095093 57.76382446 24.94095093 57.76382446 30.38095093 C55.43786501 31.54393066 53.97659216 31.54695784 51.38882446 31.56845093 C50.2325354 31.58972046 50.2325354 31.58972046 49.05288696 31.61141968 C46.76382446 31.38095093 46.76382446 31.38095093 42.76382446 29.38095093 C42.76382446 25.09095093 42.76382446 20.80095093 42.76382446 16.38095093 C43.42382446 16.38095093 44.08382446 16.38095093 44.76382446 16.38095093 C44.76382446 15.72095093 44.76382446 15.06095093 44.76382446 14.38095093 C41.79382446 14.38095093 38.82382446 14.38095093 35.76382446 14.38095093 C36.42382446 19.66095093 37.08382446 24.94095093 37.76382446 30.38095093 C28.10342502 31.64788856 18.48660864 31.47079185 8.76382446 31.38095093 C8.73690761 28.92254487 8.71702644 26.46443211 8.70132446 24.00595093 C8.69294556 23.30727905 8.68456665 22.60860718 8.67593384 21.88876343 C8.65054321 16.60751343 8.65054321 16.60751343 9.76382446 14.38095093 C8.11382446 14.38095093 6.46382446 14.38095093 4.76382446 14.38095093 Z M41.76382446 58.38095093 C40.71854192 69.76618941 40.64252548 81.05272036 40.69448853 92.47470093 C40.69973261 94.46387633 40.70455776 96.45305287 40.70899963 98.44223022 C40.72254631 103.80583322 40.74299349 109.16938712 40.76556492 114.53295898 C40.77949408 117.89171041 40.79210918 121.25046431 40.80431366 124.60922241 C40.84725033 136.34826632 40.89652549 148.08726691 40.95083618 159.82626343 C41.00111387 170.73598094 41.03631397 181.64567914 41.06476998 192.55547333 C41.09004183 201.95382733 41.1266704 211.35209465 41.17185569 220.75037384 C41.19854448 226.34981482 41.22059903 231.94917832 41.23087311 237.54867554 C41.24086813 242.81512076 41.26506448 248.08131797 41.29980659 253.34765625 C41.31012532 255.2703854 41.31551569 257.19314893 41.31537437 259.11590576 C41.31894051 274.83605632 41.63317518 291.30421771 52.81460571 303.58407593 C62.28940861 312.31836317 72.92668304 317.15399272 85.87319946 316.72860718 C95.372151 315.58616571 103.22899068 312.15501303 110.76382446 306.38095093 C111.65069946 305.80345093 112.53757446 305.22595093 113.45132446 304.63095093 C122.99095271 295.34915047 126.04714634 282.31827081 126.25157166 269.47232056 C126.28107519 265.5563009 126.25947976 261.64166619 126.23379517 257.72567749 C126.23430472 255.55792129 126.23656525 253.39016492 126.24043274 251.22241211 C126.24582381 245.37193596 126.22652145 239.52177984 126.20233178 233.67136097 C126.18096445 227.54329762 126.18162797 221.41523457 126.17964172 215.28713989 C126.17320849 205.01171387 126.15200649 194.73640752 126.12051392 184.46102905 C126.08009353 171.25495773 126.06280531 158.04896398 126.05320454 144.84283829 C126.04492003 133.49287243 126.02768661 122.1429231 126.00816703 110.79297161 C126.00209388 107.13946029 125.99695495 103.48594834 125.99181557 99.83243561 C125.98306127 94.10979018 125.96878047 88.38718361 125.95010567 82.66456223 C125.94396363 80.55897574 125.93952438 78.45338353 125.93686295 76.34778976 C125.93290595 73.48708156 125.92281244 70.62646251 125.91099548 67.76577759 C125.91117985 66.92154936 125.91136421 66.07732113 125.91155416 65.20751023 C126.24571065 61.49080851 126.24571065 61.49080851 124.76382446 58.38095093 C122.17743408 58.28587272 119.61783886 58.25538717 117.03115845 58.26742554 C116.22146606 58.26727951 115.41177368 58.26713348 114.57754517 58.26698303 C111.88830938 58.26768239 109.19914197 58.27547583 106.50991821 58.28329468 C104.6504673 58.28515878 102.79101591 58.28658272 100.93156433 58.2875824 C96.02753351 58.29140822 91.1235321 58.30123905 86.21951294 58.31228638 C81.21931354 58.32249912 76.2191094 58.32707972 71.21890259 58.3321228 C61.40053026 58.34286126 51.5821798 58.35993845 41.76382446 58.38095093 Z M4.76382446 81.38095093 C3.65318494 83.60222998 3.57031952 84.96533244 3.44741821 87.43173218 C3.40520142 88.26567505 3.36298462 89.09961792 3.31948853 89.95883179 C3.28049438 90.8612561 3.24150024 91.76368042 3.20132446 92.69345093 C3.16104126 93.62101196 3.12075806 94.548573 3.07925415 95.50424194 C2.80798922 102.27389773 2.60111798 109.04387216 2.51382446 115.81845093 C2.49247437 116.68703735 2.47112427 117.55562378 2.4491272 118.45053101 C2.42163839 123.54595611 3.00842645 126.92155677 5.76382446 131.38095093 C6.75382446 130.88595093 6.75382446 130.88595093 7.76382446 130.38095093 C7.76382446 129.72095093 7.76382446 129.06095093 7.76382446 128.38095093 C9.74382446 127.88595093 9.74382446 127.88595093 11.76382446 127.38095093 C11.76382446 112.53095093 11.76382446 97.68095093 11.76382446 82.38095093 C9.45382446 82.05095093 7.14382446 81.72095093 4.76382446 81.38095093 Z M-67.23617554 97.38095093 C-67.33604529 100.22430141 -67.37495435 103.03792256 -67.36117554 105.88095093 C-67.36504272 106.67888062 -67.36890991 107.4768103 -67.37289429 108.29891968 C-67.74517163 112.14934412 -67.74517163 112.14934412 -66.23617554 115.38095093 C-64.48688834 115.47460099 -62.733813 115.49839531 -60.98202515 115.49447632 C-59.30039528 115.49436302 -59.30039528 115.49436302 -57.58479309 115.49424744 C-56.36502274 115.48908615 -55.14525238 115.48392487 -53.88851929 115.47860718 C-52.64695572 115.47719223 -51.40539215 115.47577728 -50.12620544 115.47431946 C-46.82012063 115.46965684 -43.51410407 115.4606659 -40.20803833 115.44961548 C-36.83656404 115.4393992 -33.46508271 115.43482137 -30.09359741 115.42977905 C-23.47443779 115.41872488 -16.85531061 115.40196829 -10.23617554 115.38095093 C-9.42011511 112.31079707 -9.10136007 109.62856996 -9.11117554 106.44345093 C-9.10859741 105.60942749 -9.10601929 104.77540405 -9.10336304 103.91610718 C-9.23950885 101.3173239 -9.70217613 98.92394412 -10.23617554 96.38095093 C-17.52039102 96.35782177 -24.80459864 96.34003292 -32.08884335 96.32913876 C-35.47089366 96.32391118 -38.85291893 96.31681582 -42.23495483 96.30551147 C-46.11947331 96.29260826 -50.0039815 96.28772169 -53.88851929 96.28329468 C-55.71817482 96.27555275 -55.71817482 96.27555275 -57.58479309 96.26765442 C-58.70587967 96.26757889 -59.82696625 96.26750336 -60.98202515 96.26742554 C-61.97463852 96.26520493 -62.96725189 96.26298431 -63.98994446 96.26069641 C-66.20644079 96.12845151 -66.20644079 96.12845151 -67.23617554 97.38095093 Z M25.76382446 96.38095093 C25.76382446 102.32095093 25.76382446 108.26095093 25.76382446 114.38095093 C28.65321508 111.49156031 28.61377248 108.29594366 28.76382446 104.38095093 C28.57078417 101.66919446 28.19599557 99.07001558 27.76382446 96.38095093 C27.10382446 96.38095093 26.44382446 96.38095093 25.76382446 96.38095093 Z M157.76382446 194.38095093 C155.46560121 198.02311788 155.53253845 201.08920099 155.56851196 205.33407593 C155.57134186 205.99429749 155.57417175 206.65451904 155.5770874 207.33474731 C155.58824032 209.43366989 155.613335 211.53215835 155.63882446 213.63095093 C155.64886062 215.05802808 155.65798536 216.48511195 155.66616821 217.91220093 C155.68816335 221.40192421 155.7226591 224.89139516 155.76382446 228.38095093 C156.42382446 228.71095093 157.08382446 229.04095093 157.76382446 229.38095093 C158.17788696 232.32235718 158.17788696 232.32235718 158.38882446 235.94345093 C158.46359009 237.14098999 158.53835571 238.33852905 158.61538696 239.57235718 C158.66437134 240.49919312 158.71335571 241.42602905 158.76382446 242.38095093 C157.77382446 242.87595093 157.77382446 242.87595093 156.76382446 243.38095093 C157.09382446 244.04095093 157.42382446 244.70095093 157.76382446 245.38095093 C160.767665 244.68551653 160.767665 244.68551653 163.76382446 243.38095093 C165.24078397 239.39519119 164.9443204 235.12292514 164.96694946 230.92391968 C164.97264954 230.10273148 164.97834961 229.28154327 164.98422241 228.43547058 C164.99365433 226.6997811 165.0001992 224.96407385 165.00405884 223.22836304 C165.01375215 220.5881485 165.04478699 217.94871692 165.07632446 215.3086853 C165.08285652 213.61793469 165.0881062 211.92717854 165.09194946 210.23641968 C165.10429626 209.45389328 165.11664307 208.67136688 165.12936401 207.86512756 C165.10839085 202.64228283 164.11085835 199.05526643 161.76382446 194.38095093 C160.44382446 194.38095093 159.12382446 194.38095093 157.76382446 194.38095093 Z M177.76382446 210.38095093 C177.87896595 212.42319729 178.00639772 214.46475252 178.13882446 216.50595093 C178.20843384 217.64290405 178.27804321 218.77985718 178.34976196 219.95126343 C178.70809354 223.88122559 178.70809354 223.88122559 180.76382446 229.38095093 C197.92382446 229.38095093 215.08382446 229.38095093 232.76382446 229.38095093 C234.53414999 224.06997436 234.96654909 222.2054726 234.38882446 217.00595093 C234.27796509 215.94634155 234.16710571 214.88673218 234.05288696 213.79501343 C233.95749634 212.9983728 233.86210571 212.20173218 233.76382446 211.38095093 C230.73528257 210.37143696 228.72377104 210.25990592 225.55801392 210.26742554 C224.49714066 210.26750107 223.4362674 210.2675766 222.34324646 210.26765442 C220.62750679 210.27539635 220.62750679 210.27539635 218.87710571 210.28329468 C217.11888741 210.2854171 217.11888741 210.2854171 215.32514954 210.2875824 C211.57551539 210.29318705 207.82594061 210.30574036 204.07632446 210.31845093 C201.53661178 210.32346533 198.99689817 210.32802834 196.45718384 210.3321228 C190.22604374 210.34315799 183.99493834 210.35990067 177.76382446 210.38095093 Z M138.76382446 214.38095093 C138.76382446 217.35095093 138.76382446 220.32095093 138.76382446 223.38095093 C139.75382446 223.87595093 139.75382446 223.87595093 140.76382446 224.38095093 C142.24214706 221.42430574 141.82415229 218.63865356 141.76382446 215.38095093 C140.77382446 215.05095093 139.78382446 214.72095093 138.76382446 214.38095093 Z " fill="#F9FEFD" transform="translate(170.23617553710938,82.61904907226563)"/>
<path d="M0 0 C11.72096403 6.38373934 22.09043081 19.53840975 26.203125 32.15234375 C27.66634241 40.43860755 27.08747995 48.01961141 22.5625 55.1875 C17.70806626 62.08202488 12.47027597 65.55157468 4.5625 68.1875 C-5.60893813 69.21196139 -14.18147061 67.6367339 -22.6015625 61.6484375 C-28.73189299 56.14418331 -31.55402896 48.95733961 -32 40.8125 C-31.375199 26.04636961 -20.53898551 13.0912696 -10.4375 3.1875 C-6.94170442 0.17763451 -4.7104222 -1.11337252 0 0 Z M-10.4375 25.1875 C-14.47991689 29.94684126 -17.4155869 34.62672837 -17.73828125 40.98046875 C-17.03433557 46.14578449 -13.98172914 49.81485188 -10.1875 53.1875 C-5.57969348 54.86306601 -1.13452532 55.07419326 3.55859375 53.53125 C7.45250906 51.58847935 10.04886172 49.08481935 11.95703125 45.16015625 C13.5143383 40.0863494 12.4752305 36.00298581 10.1328125 31.34375 C6.90740938 26.01108351 3.70361525 21.73731767 -1.4375 18.1875 C-4.56579948 18.1875 -8.36009048 23.12904495 -10.4375 25.1875 Z " fill="#F7FDFD" transform="translate(256.4375,208.8125)"/>
<path d="M0 0 C6.2740322 2.09507861 10.2717248 6.55122875 15 11 C15.56847656 11.48082031 16.13695312 11.96164062 16.72265625 12.45703125 C19.18798056 14.60610405 20.05430596 16.16930682 21.0625 19.3125 C20.91938558 27.75625094 15.80533224 32.62665002 10.0234375 38.3125 C8 40 8 40 6 40 C6 40.66 6 41.32 6 42 C3.36100369 43.01686096 2.30228894 43.12411864 -0.359375 42.03125 C-1.14828125 41.5259375 -1.9371875 41.020625 -2.75 40.5 C-3.54921875 40.0153125 -4.3484375 39.530625 -5.171875 39.03125 C-7 37 -7 37 -7.265625 33.28125 C-7.17796875 32.1984375 -7.0903125 31.115625 -7 30 C-8.25659424 29.970271 -8.25659424 29.970271 -9.53857422 29.93994141 C-12.64365834 29.86189388 -15.74834539 29.77520365 -18.85302734 29.68261719 C-20.85886971 29.62545964 -22.86498918 29.57831404 -24.87109375 29.53125 C-26.12792969 29.49257813 -27.38476562 29.45390625 -28.6796875 29.4140625 C-29.84226074 29.3826416 -31.00483398 29.3512207 -32.20263672 29.31884766 C-35 29 -35 29 -37 27 C-37.1953125 24.1796875 -37.1953125 24.1796875 -37.125 20.875 C-37.10695312 19.77929688 -37.08890625 18.68359375 -37.0703125 17.5546875 C-37.04710937 16.71164062 -37.02390625 15.86859375 -37 15 C-33.42609317 12.75288691 -30.64422678 12.83435333 -26.484375 13.0234375 C-25.23398438 13.075 -23.98359375 13.1265625 -22.6953125 13.1796875 C-20.74238281 13.27636719 -20.74238281 13.27636719 -18.75 13.375 C-17.43257812 13.43171875 -16.11515625 13.4884375 -14.7578125 13.546875 C-11.50465594 13.68831659 -8.25227448 13.83973014 -5 14 C-5.66 13.34 -6.32 12.68 -7 12 C-6.90862339 7.88805249 -6.26183255 6.29456162 -3.5 3.1875 C-2.675 2.465625 -1.85 1.74375 -1 1 C-0.67 0.67 -0.34 0.34 0 0 Z " fill="#F8FDFD" transform="translate(267,281)"/>
<path d="M0 0 C0.72843133 -0.00382555 1.45686265 -0.00765109 2.20736766 -0.01159257 C4.66092078 -0.02195402 7.11424124 -0.01792448 9.56781006 -0.01396179 C11.32189654 -0.01830665 13.07598113 -0.02348904 14.83006287 -0.02944946 C19.60500967 -0.04287811 24.3798775 -0.04341363 29.15483952 -0.04088616 C33.13836201 -0.03981862 37.12186839 -0.04469449 41.10538745 -0.04949158 C50.50449493 -0.06060109 59.90356246 -0.06101671 69.30267334 -0.05497742 C79.00132004 -0.04894141 88.69982154 -0.06123586 98.39844346 -0.08254749 C106.72038647 -0.10016216 115.04228326 -0.10616488 123.36424422 -0.10290974 C128.33654075 -0.10109582 133.30873381 -0.10374353 138.28101349 -0.11762428 C142.95955745 -0.13019505 147.63787532 -0.1282656 152.31641579 -0.11521339 C154.0328841 -0.11284606 155.74936828 -0.11558791 157.46581841 -0.12383652 C159.81105216 -0.13429309 162.15552589 -0.12621243 164.50073242 -0.11352539 C166.46855116 -0.113777 166.46855116 -0.113777 168.47612381 -0.1140337 C172.27263212 0.28919233 174.72792509 1.34922526 178.0043335 3.26069641 C177.6743335 3.92069641 177.3443335 4.58069641 177.0043335 5.26069641 C176.49676136 4.93643991 175.98918922 4.61218342 175.46623611 4.27810097 C172.18168493 2.92072911 169.10980296 2.9725126 165.6138916 2.98222351 C164.86726737 2.97643111 164.12064314 2.97063871 163.35139394 2.96467078 C160.84861914 2.94766021 158.34602863 2.94479339 155.84320068 2.94184875 C154.04952542 2.9325513 152.2558545 2.92238291 150.46218872 2.91140747 C145.59068933 2.88407277 140.71921891 2.86894777 135.84766293 2.85597944 C130.75737618 2.8403641 125.66714874 2.81356879 120.5769043 2.78794861 C110.93683348 2.74113254 101.29675155 2.70440211 91.65662503 2.67127573 C80.68209744 2.63307433 69.70762936 2.58365898 58.73315191 2.53329158 C36.1569232 2.42992966 13.58065627 2.3406831 -8.9956665 2.26069641 C-6.10617973 -0.62879036 -4.04841576 0.00634238 0 0 Z " fill="#D7FEFF" transform="translate(169.99566650390625,82.73930358886719)"/>
<path d="M0 0 C4.50234373 -0.04944705 9.0045293 -0.08574161 13.50708008 -0.10986328 C15.03868361 -0.11991935 16.57026795 -0.133566 18.10180664 -0.15087891 C20.30359636 -0.17514498 22.50513219 -0.18648688 24.70703125 -0.1953125 C25.39150833 -0.20563507 26.07598541 -0.21595764 26.78120422 -0.22659302 C30.43061661 -0.22745382 31.87148502 -0.08567666 35 2 C35.36076355 3.91091919 35.36076355 3.91091919 35.34057617 6.26611328 C35.34034958 7.14687531 35.34012299 8.02763733 35.33988953 8.93508911 C35.32440567 9.88721283 35.30892181 10.83933655 35.29296875 11.8203125 C35.28872391 12.79410858 35.28447906 13.76790466 35.28010559 14.77120972 C35.26327786 17.88941805 35.22561811 21.00698617 35.1875 24.125 C35.17245846 26.23566777 35.15876914 28.34634564 35.14648438 30.45703125 C35.11336109 35.63824023 35.06312151 40.81907439 35 46 C27.1050506 48.94894324 19.85281814 49.45394195 11.4765625 49.4765625 C10.21282806 49.49214203 8.94909363 49.50772156 7.64706421 49.52377319 C4.31793435 49.56301875 0.98917611 49.59049682 -2.34008789 49.61126709 C-7.04730328 49.64303444 -11.75431897 49.69448145 -16.46133423 49.74765015 C-18.9609306 49.77480423 -21.46059779 49.79618678 -23.96029663 49.81118774 C-25.0889212 49.82144989 -26.21754578 49.83171204 -27.38037109 49.84228516 C-28.86735001 49.85202866 -28.86735001 49.85202866 -30.3843689 49.86196899 C-32.7414148 49.98635405 -34.74527335 50.32972098 -37 51 C-37.495 53.475 -37.495 53.475 -38 56 C-38.33 56 -38.66 56 -39 56 C-39 54.02 -39 52.04 -39 50 C-32.26627076 46.24184268 -25.72217262 46.54264735 -18.1484375 46.5234375 C-16.80276955 46.50910466 -15.45711613 46.49334359 -14.11148071 46.47622681 C-10.58551923 46.4345609 -7.05964785 46.40944371 -3.5335083 46.38873291 C2.11617256 46.35278838 7.7656307 46.29169882 13.41508102 46.23024368 C15.38089504 46.21125783 17.34677855 46.19996897 19.31265259 46.18881226 C20.51094696 46.17855011 21.70924133 46.16828796 22.94384766 46.15771484 C24.52101059 46.14797134 24.52101059 46.14797134 26.1300354 46.13803101 C29.3792746 46.05309044 29.3792746 46.05309044 34 45 C34 31.14 34 17.28 34 3 C30.50791819 1.83597273 27.60852228 1.78881492 23.92578125 1.68359375 C23.2419487 1.66281265 22.55811615 1.64203156 21.8535614 1.62062073 C19.6733079 1.55533846 17.49293595 1.49633983 15.3125 1.4375 C13.83267014 1.39429447 12.35285217 1.35067953 10.87304688 1.30664062 C7.24882378 1.19967917 3.62446811 1.09835177 0 1 C0 0.67 0 0.34 0 0 Z " fill="#D7FEFE" transform="translate(384,278)"/>
<path d="M0 0 C1.7115477 0.0001133 1.7115477 0.0001133 3.45767212 0.00022888 C4.69415497 0.00539017 5.93063782 0.01055145 7.20458984 0.01586914 C8.46693451 0.01728409 9.72927917 0.01869904 11.02987671 0.02015686 C14.38691033 0.02481461 17.74387635 0.03380131 21.10089111 0.04486084 C24.52607641 0.05508769 27.95126868 0.05965721 31.37646484 0.06469727 C38.09783777 0.07574301 44.81917865 0.09249346 51.54052734 0.11352539 C51.54052734 0.44352539 51.54052734 0.77352539 51.54052734 1.11352539 C33.06052734 1.44352539 14.58052734 1.77352539 -4.45947266 2.11352539 C-4.45947266 7.72352539 -4.45947266 13.33352539 -4.45947266 19.11352539 C14.35052734 19.44352539 33.16052734 19.77352539 52.54052734 20.11352539 C52.54052734 20.44352539 52.54052734 20.77352539 52.54052734 21.11352539 C44.86516107 21.1366536 37.18979839 21.15444292 29.51440525 21.16533756 C25.95075313 21.17056535 22.38712477 21.17766108 18.82348633 21.18896484 C14.73046637 21.20186715 10.63747155 21.20675445 6.54443359 21.21118164 C4.61634605 21.21892357 4.61634605 21.21892357 2.64930725 21.2268219 C0.877584 21.2269352 0.877584 21.2269352 -0.92993164 21.22705078 C-2.49879372 21.2303817 -2.49879372 21.2303817 -4.09934998 21.23377991 C-6.45947266 21.11352539 -6.45947266 21.11352539 -7.45947266 20.11352539 C-7.54598877 18.69782416 -7.5665217 17.27793039 -7.55712891 15.85961914 C-7.55390625 15.00561523 -7.55068359 14.15161133 -7.54736328 13.27172852 C-7.53898437 12.37389648 -7.53060547 11.47606445 -7.52197266 10.55102539 C-7.51746094 9.64932617 -7.51294922 8.74762695 -7.50830078 7.81860352 C-7.4964749 5.58351225 -7.47999486 3.34855102 -7.45947266 1.11352539 C-4.84425481 -0.19408353 -2.92833865 -0.00645009 0 0 Z " fill="#D9FEFE" transform="translate(108.45947265625,177.886474609375)"/>
<path d="M0 0 C1.65 0 3.3 0 5 0 C5 0.66 5 1.32 5 2 C5.77007889 1.98081009 6.54015778 1.96162018 7.33357239 1.94184875 C14.58743132 1.76379502 21.84140184 1.60037101 29.09595203 1.45341206 C32.82568448 1.37733982 36.55511338 1.29559634 40.28442383 1.20092773 C43.88278317 1.10979142 47.48117795 1.0335059 51.08008385 0.96755028 C52.45372972 0.93975792 53.8272777 0.90659667 55.20066261 0.86800575 C57.12277513 0.81490927 59.04542767 0.78258691 60.96801758 0.7512207 C62.06277908 0.72679398 63.15754059 0.70236725 64.28547668 0.67720032 C67 1 67 1 68.8769989 2.51554871 C69.43288445 3.2503521 69.43288445 3.2503521 70 4 C62.20207759 4.0698019 54.40422967 4.12296344 46.60607243 4.15543652 C42.98425752 4.17102948 39.36265786 4.19214953 35.7409668 4.22631836 C32.2396225 4.25914149 28.738484 4.2769008 25.2369976 4.28463173 C23.26462383 4.29279505 21.29233174 4.31617711 19.32008362 4.33988953 C12.19859588 4.34121158 6.60540918 3.71031224 0 1 C0 0.67 0 0.34 0 0 Z " fill="#E7FEFE" transform="translate(89,209)"/>
<path d="M0 0 C3.63 0 7.26 0 11 0 C11 0.99 11 1.98 11 3 C13.1464753 2.88655624 15.29220592 2.75893655 17.4375 2.625 C18.63246094 2.55539063 19.82742188 2.48578125 21.05859375 2.4140625 C22.02925781 2.27742188 22.99992187 2.14078125 24 2 C24.33 1.34 24.66 0.68 25 0 C30.61 0 36.22 0 42 0 C42.495 1.98 42.495 1.98 43 4 C42.29359375 3.83757812 41.5871875 3.67515625 40.859375 3.5078125 C37.92894105 2.98738024 35.22352867 2.86696344 32.25 2.875 C31.28578125 2.87242188 30.3215625 2.86984375 29.328125 2.8671875 C27.03949859 2.73860602 27.03949859 2.73860602 26 4 C23.30345146 4.07319621 20.63308542 4.09242537 17.9375 4.0625 C17.17888672 4.05798828 16.42027344 4.05347656 15.63867188 4.04882812 C13.75908129 4.0370068 11.87953101 4.01907078 10 4 C10 3.34 10 2.68 10 2 C6.7 2 3.4 2 0 2 C0 1.34 0 0.68 0 0 Z " fill="#D5FEFE" transform="translate(287,125)"/>
<path d="M0 0 C1.17666109 3.52998328 1.02013769 6.13637416 0.87890625 9.85546875 C0.85529526 10.51710526 0.83168427 11.17874176 0.80735779 11.86042786 C0.73090143 13.96968002 0.64680043 16.0785482 0.5625 18.1875 C0.5092612 19.61912196 0.45652093 21.05076254 0.40429688 22.48242188 C0.27531118 25.98851576 0.13946876 29.49430571 0 33 C0.99 33.33 1.98 33.66 3 34 C3 38.29 3 42.58 3 47 C1.68 47 0.36 47 -1 47 C-1 46.01 -1 45.02 -1 44 C-0.34 44 0.32 44 1 44 C0.67 42.02 0.34 40.04 0 38 C-0.33 38 -0.66 38 -1 38 C-1.02468084 32.90967159 -1.04285082 27.81937785 -1.05493164 22.72900391 C-1.05996682 20.99657586 -1.06679532 19.26415208 -1.07543945 17.53173828 C-1.08754065 15.04458567 -1.09323638 12.55748913 -1.09765625 10.0703125 C-1.10281754 9.29317902 -1.10797882 8.51604553 -1.11329651 7.71536255 C-1.11387171 2.22774341 -1.11387171 2.22774341 0 0 Z " fill="#D1FEFF" transform="translate(326,278)"/>
<path d="M0 0 C0.66 0 1.32 0 2 0 C2.33 4.95 2.66 9.9 3 15 C-1.11120954 17.05560477 -2.45180377 17.20143858 -6.859375 16.9765625 C-7.97441406 16.925 -9.08945313 16.8734375 -10.23828125 16.8203125 C-11.39714844 16.75585938 -12.55601562 16.69140625 -13.75 16.625 C-14.92433594 16.56828125 -16.09867188 16.5115625 -17.30859375 16.453125 C-20.20635647 16.31177072 -23.10323749 16.16036781 -26 16 C-25.67 15.01 -25.34 14.02 -25 13 C-25 13.66 -25 14.32 -25 15 C-21.37467934 14.86152362 -17.74984096 14.71297357 -14.125 14.5625 C-13.09246094 14.52318359 -12.05992187 14.48386719 -10.99609375 14.44335938 C-10.00996094 14.40146484 -9.02382812 14.35957031 -8.0078125 14.31640625 C-7.09660645 14.27974854 -6.18540039 14.24309082 -5.24658203 14.20532227 C-2.96516519 14.13422935 -2.96516519 14.13422935 -1 13 C-0.01 13.33 0.98 13.66 2 14 C1.67257813 13.44828125 1.34515625 12.8965625 1.0078125 12.328125 C-0.16787715 9.61219077 -0.20248638 7.69448241 -0.125 4.75 C-0.10695312 3.85796875 -0.08890625 2.9659375 -0.0703125 2.046875 C-0.04710937 1.37140625 -0.02390625 0.6959375 0 0 Z " fill="#E2FEFE" transform="translate(205,98)"/>
<path d="M0 0 C4.29 0 8.58 0 13 0 C13.97556564 2.92669691 14.0606341 4.44061321 13.87890625 7.44921875 C13.83056641 8.29677734 13.78222656 9.14433594 13.73242188 10.01757812 C13.67634766 10.89865234 13.62027344 11.77972656 13.5625 12.6875 C13.51029297 13.58017578 13.45808594 14.47285156 13.40429688 15.39257812 C13.2747182 17.5954156 13.13975754 19.79778873 13 22 C11.35 22 9.7 22 8 22 C7.67 20.35 7.34 18.7 7 17 C7.99 17.99 8.98 18.98 10 20 C10.33 13.73 10.66 7.46 11 1 C7.37 1 3.74 1 0 1 C0 0.67 0 0.34 0 0 Z " fill="#DDFEFE" transform="translate(186,141)"/>
<path d="M0 0 C2.52017426 2.52017426 2.29730377 3.51499849 2.3125 7 C2.32925781 7.886875 2.34601563 8.77375 2.36328125 9.6875 C2.24339844 10.450625 2.12351563 11.21375 2 12 C-2.07385657 14.71590438 -5.22885914 14.49299004 -10 14 C-13.0625 13.125 -13.0625 13.125 -15 11 C-15.4127 7.6278066 -15.28529317 4.37913907 -15 1 C-14.67 1 -14.34 1 -14 1 C-14 3.97 -14 6.94 -14 10 C-9.38 10.66 -4.76 11.32 0 12 C0 8.04 0 4.08 0 0 Z " fill="#DBFEFE" transform="translate(227,101)"/>
<path d="M0 0 C0 0.33 0 0.66 0 1 C-4.95 1 -9.9 1 -15 1 C-15.33 2.32 -15.66 3.64 -16 5 C-17.65 5 -19.3 5 -21 5 C-15.12915696 -1.02533891 -8.16643413 -4.4783671 0 0 Z " fill="#DFFEFE" transform="translate(338,264)"/>
<path d="M0 0 C0.66 0.33 1.32 0.66 2 1 C0.31444194 8.97556739 -2.01391504 15.87861501 -6 23 C-6.5859375 21.1171875 -6.5859375 21.1171875 -7 19 C-6.01439389 17.65599167 -5.01241685 16.32392972 -4 15 C-3.27954633 11.84881675 -3.27954633 11.84881675 -3 9 C-2.34 9 -1.68 9 -1 9 C-1.020625 7.88625 -1.04125 6.7725 -1.0625 5.625 C-1 2 -1 2 0 0 Z " fill="#DAFEFE" transform="translate(308,363)"/>
<path d="M0 0 C0.66 0.66 1.32 1.32 2 2 C1.7424922 7.23599186 1.1188186 10.66077412 -2 15 C-3.22487152 12.55025696 -2.98796191 11.3246727 -2.6875 8.625 C-2.56955078 7.46871094 -2.56955078 7.46871094 -2.44921875 6.2890625 C-1.98084469 3.90239122 -1.18250119 2.11402254 0 0 Z " fill="#E3FEFE" transform="translate(286,297)"/>
<path d="M0 0 C0.66 0.33 1.32 0.66 2 1 C1.88140625 1.556875 1.7628125 2.11375 1.640625 2.6875 C0.57859889 8.97469459 1.60329297 12.64982197 5 18 C4.34 18 3.68 18 3 18 C-0.12512328 14.35402284 -1.8896818 10.96134428 -2.4375 6.1875 C-2 3 -2 3 0 0 Z " fill="#E3FEFE" transform="translate(239,242)"/>
<path d="M0 0 C0.33 0 0.66 0 1 0 C1.50610724 6.07328688 0.04157942 9.77228537 -3 15 C-3.99 15 -4.98 15 -6 15 C-6 15.66 -6 16.32 -6 17 C-7.32 16.67 -8.64 16.34 -10 16 C-9.2575 15.649375 -8.515 15.29875 -7.75 14.9375 C-3.24264233 11.76186164 -1.41185237 7.88765669 -0.25 2.5625 C-0.1675 1.716875 -0.085 0.87125 0 0 Z " fill="#DDFFFF" transform="translate(269,246)"/>
<path d="M0 0 C7.59 0.33 15.18 0.66 23 1 C23 1.33 23 1.66 23 2 C19.5430244 2.25417629 16.08471174 2.47407622 12.625 2.6875 C11.64015625 2.76033203 10.6553125 2.83316406 9.640625 2.90820312 C8.22910156 2.99038086 8.22910156 2.99038086 6.7890625 3.07421875 C5.91975098 3.13182373 5.05043945 3.18942871 4.15478516 3.2487793 C3.0881665 3.12563354 3.0881665 3.12563354 2 3 C1.34 2.01 0.68 1.02 0 0 Z " fill="#CDFFFF" transform="translate(238,294)"/>
<path d="M0 0 C1.485 0.99 1.485 0.99 3 2 C3.51171875 4.6015625 3.51171875 4.6015625 3.6875 7.625 C3.75324219 8.62789063 3.81898438 9.63078125 3.88671875 10.6640625 C3.92410156 11.43492187 3.96148437 12.20578125 4 13 C2.68 13 1.36 13 0 13 C0 12.01 0 11.02 0 10 C0.66 10 1.32 10 2 10 C1.46274105 6.62294375 0.88935377 3.303314 0 0 Z " fill="#DAF8F9" transform="translate(325,312)"/>
<path d="M0 0 C0.99 0 1.98 0 3 0 C3.33 0.99 3.66 1.98 4 3 C2.0625 5.6875 2.0625 5.6875 0 8 C0 7.01 0 6.02 0 5 C-0.66 4.67 -1.32 4.34 -2 4 C-1.34 2.68 -0.68 1.36 0 0 Z " fill="#E1FEFC" transform="translate(277,258)"/>
<path d="M0 0 C3.375 1.6875 3.375 1.6875 4.375 3.6875 C-1.565 2.6975 -1.565 2.6975 -7.625 1.6875 C-5.70879585 -2.1449083 -3.65005791 -1.32157269 0 0 Z " fill="#DBFEFF" transform="translate(256.625,209.3125)"/>
<path d="M0 0 C0.33 0 0.66 0 1 0 C1.33 1.65 1.66 3.3 2 5 C2.33 5 2.66 5 3 5 C3 7.31 3 9.62 3 12 C2.34 12 1.68 12 1 12 C0.01751476 7.9472484 -0.08159574 4.16138263 0 0 Z " fill="#EEF9FC" transform="translate(324,310)"/>
<path d="M0 0 C1.65 0 3.3 0 5 0 C3.35 1.98 1.7 3.96 0 6 C-0.66 5.67 -1.32 5.34 -2 5 C-1.34 3.35 -0.68 1.7 0 0 Z " fill="#E6FDFE" transform="translate(275,315)"/>
<path d="M0 0 C2.80848017 1.40424009 2.92414585 3.10864198 4 6 C4.65213539 7.34050052 5.31379969 8.67661368 6 10 C-0.57142857 4.85714286 -0.57142857 4.85714286 -2 1 C-1.34 0.67 -0.68 0.34 0 0 Z " fill="#DFFDFE" transform="translate(208,386)"/>
<path d="M0 0 C0.66 0 1.32 0 2 0 C0.73058503 3.91402949 -0.51167694 5.79072873 -4 8 C-4 5 -4 5 -2 3 C-1.34 2.01 -0.68 1.02 0 0 Z " fill="#E2FEFE" transform="translate(299,386)"/>
<path d="M0 0 C2.99324263 1.0975223 3.84610901 1.67682892 5.25 4.625 C5.4975 5.40875 5.745 6.1925 6 7 C4.35 7 2.7 7 1 7 C1.33 6.01 1.66 5.02 2 4 C1.12516085 1.83284443 1.12516085 1.83284443 0 0 Z " fill="#E6FDFD" transform="translate(187,151)"/>
<path d="M0 0 C0 3 0 3 -1.875 5.1875 C-4 7 -4 7 -6 7 C-6 6.01 -6 5.02 -6 4 C-3 1.8125 -3 1.8125 0 0 Z " fill="#E1FEFE" transform="translate(294,394)"/>
</svg>
