<?xml version="1.0" encoding="UTF-8"?>
<svg version="1.1" xmlns="http://www.w3.org/2000/svg" width="400" height="400">
<path d="M0 0 C132 0 264 0 400 0 C400 132 400 264 400 400 C268 400 136 400 0 400 C0 268 0 136 0 0 Z " fill="#FE6122" transform="translate(0,0)"/>
<path d="M0 0 C132 0 264 0 400 0 C400 47.85 400 95.7 400 145 C268 145 136 145 0 145 C0 97.15 0 49.3 0 0 Z " fill="#199BB5" transform="translate(0,255)"/>
<path d="M0 0 C0.495 1.98 0.495 1.98 1 4 C1.99 3.67 2.98 3.34 4 3 C4.99 3.495 4.99 3.495 6 4 C5.67 4.99 5.34 5.98 5 7 C2.4375 8.1875 2.4375 8.1875 0 9 C0.99 9.495 0.99 9.495 2 10 C2 14 2 14 0 16.25 C-0.66 16.8275 -1.32 17.405 -2 18 C-1.01 18 -0.02 18 1 18 C0.41196203 21.02419525 -0.22678118 24.01758453 -1 27 C-1.66 27 -2.32 27 -3 27 C-3.103125 27.763125 -3.20625 28.52625 -3.3125 29.3125 C-4.05594134 32.21867978 -4.65886963 33.19913049 -7 35 C-8.485 35.495 -8.485 35.495 -10 36 C-8.02 36.495 -8.02 36.495 -6 37 C-6.33 39.31 -6.66 41.62 -7 44 C-9.64 44.99 -12.28 45.98 -15 47 C-13.68 47 -12.36 47 -11 47 C-11 47.66 -11 48.32 -11 49 C-10.54109375 48.65066406 -10.0821875 48.30132812 -9.609375 47.94140625 C-8.99578125 47.48636719 -8.3821875 47.03132813 -7.75 46.5625 C-7.14671875 46.11003906 -6.5434375 45.65757813 -5.921875 45.19140625 C-3.91168596 43.94525247 -2.3020317 43.47327199 0 43 C2.00405227 42.34561559 4.00428677 41.67939174 6 41 C6.99 40.67 7.98 40.34 9 40 C9 40.66 9 41.32 9 42 C10.65 41.34 12.3 40.68 14 40 C14.350625 40.45375 14.70125 40.9075 15.0625 41.375 C17.77096206 43.64661334 20.60795328 44.16798854 24 45 C23.34 45.99 22.68 46.98 22 48 C20.68 48 19.36 48 18 48 C18 48.99 18 49.98 18 51 C16.35 51.33 14.7 51.66 13 52 C13.33 52.66 13.66 53.32 14 54 C11.69 54 9.38 54 7 54 C6.67 54.99 6.34 55.98 6 57 C4.02 56.67 2.04 56.34 0 56 C0 56.66 0 57.32 0 58 C-0.66 58 -1.32 58 -2 58 C-2 58.66 -2 59.32 -2 60 C-3.98 59.67 -5.96 59.34 -8 59 C-8 59.99 -8 60.98 -8 62 C-8.66 62 -9.32 62 -10 62 C-10 62.66 -10 63.32 -10 64 C-9.34 64.495 -8.68 64.99 -8 65.5 C-7.34 65.995 -6.68 66.49 -6 67 C-6 67.66 -6 68.32 -6 69 C-4.02 69.495 -4.02 69.495 -2 70 C-1.67 71.32 -1.34 72.64 -1 74 C-0.278125 74.0825 0.44375 74.165 1.1875 74.25 C4.60313495 75.16083599 6.38143169 76.65707046 9 79 C9.61875 79.474375 10.2375 79.94875 10.875 80.4375 C12 82 12 82 11.6875 84.6875 C11.460625 85.450625 11.23375 86.21375 11 87 C11.598125 87.2475 12.19625 87.495 12.8125 87.75 C15.31626919 89.18072525 16.48072388 90.5691582 18 93 C18 93.66 18 94.32 18 95 C17.34 95 16.68 95 16 95 C16.33 95.556875 16.66 96.11375 17 96.6875 C18.1309601 99.30284522 18.15662974 101.1806646 18 104 C17.401875 103.67 16.80375 103.34 16.1875 103 C13.94613529 101.79212012 13.94613529 101.79212012 11 102 C9.515 101.505 9.515 101.505 8 101 C7.67 100.01 7.34 99.02 7 98 C6.34 98.66 5.68 99.32 5 100 C4.5875 98.865625 4.175 97.73125 3.75 96.5625 C2.43314602 92.90456616 2.43314602 92.90456616 -0.1875 92.0625 C-0.785625 92.041875 -1.38375 92.02125 -2 92 C-2 91.01 -2 90.02 -2 89 C-3.485 89.495 -3.485 89.495 -5 90 C-6.32 86.7 -7.64 83.4 -9 80 C-9.99 80 -10.98 80 -12 80 C-13.82421875 77.59375 -13.82421875 77.59375 -15.6875 74.5 C-16.62142578 72.96859375 -16.62142578 72.96859375 -17.57421875 71.40625 C-18.04472656 70.6121875 -18.51523438 69.818125 -19 69 C-19.33 69.33 -19.66 69.66 -20 70 C-19.48086869 72.81900374 -18.8975448 75.5850197 -18.25 78.375 C-18.0631665 79.20209473 -17.87633301 80.02918945 -17.68383789 80.88134766 C-16.72124001 85.08843999 -15.67678783 89.23962243 -14.4375 93.375 C-10.00548741 109.39843015 -9.5542309 125.48982688 -10 142 C-10.01546875 142.94198242 -10.0309375 143.88396484 -10.046875 144.85449219 C-10.26497731 157.99969999 -11.83170782 170.23841382 -15 183 C-17.97 183 -20.94 183 -24 183 C-22.99308582 179.82434758 -21.92030487 176.83064784 -20.5 173.8125 C-18.72034346 169.80377871 -18.10759067 165.66669504 -17.4296875 161.35546875 C-17 159 -17 159 -16 157 C-15.84885899 155.64494264 -15.75120737 154.28365782 -15.68359375 152.921875 C-15.64137695 152.09824463 -15.59916016 151.27461426 -15.55566406 150.42602539 C-15.51666992 149.54293701 -15.47767578 148.65984863 -15.4375 147.75 C-15.3972168 146.84048584 -15.35693359 145.93097168 -15.31542969 144.99389648 C-15.20338293 142.32949057 -15.101433 139.66482703 -15 137 C-14.94457031 135.77925781 -14.88914062 134.55851563 -14.83203125 133.30078125 C-14.56366333 122.70663831 -16.32933897 112.42519457 -18 102 C-18.36343071 99.69794026 -18.72670633 97.39585603 -19.08984375 95.09375 C-20.04613233 89.0602461 -21.01774853 83.02932814 -22 77 C-21.98453125 78.39605469 -21.98453125 78.39605469 -21.96875 79.8203125 C-21.99716813 82.71185745 -22.34021901 85.19593081 -23 88 C-23.66 88 -24.32 88 -25 88 C-24.67 88.99 -24.34 89.98 -24 91 C-24.66 91 -25.32 91 -26 91 C-25.7525 92.03125 -25.505 93.0625 -25.25 94.125 C-24.94653715 98.82867421 -26.04538366 100.43708029 -29 104 C-29.33 104 -29.66 104 -30 104 C-29.94779297 103.09507812 -29.94779297 103.09507812 -29.89453125 102.171875 C-29.86746094 101.37265625 -29.84039062 100.5734375 -29.8125 99.75 C-29.77769531 98.96109375 -29.74289063 98.1721875 -29.70703125 97.359375 C-29.80459027 94.90463545 -29.80459027 94.90463545 -31.5234375 93.07421875 C-33.55098315 90.22599986 -33.18005162 88.49154043 -32.8125 85.0625 C-32.66748047 83.53302734 -32.66748047 83.53302734 -32.51953125 81.97265625 C-32.01330838 79.07614797 -31.19767713 76.67629086 -30 74 C-30.66 74 -31.32 74 -32 74 C-32.33 75.98 -32.66 77.96 -33 80 C-33.99 79.67 -34.98 79.34 -36 79 C-36.495 80.485 -36.495 80.485 -37 82 C-37.99 82.33 -38.98 82.66 -40 83 C-41.05021103 84.84971696 -41.05021103 84.84971696 -42 87 C-43.5 89.25 -43.5 89.25 -45 91 C-45.66 91 -46.32 91 -47 91 C-47.33 91.66 -47.66 92.32 -48 93 C-48.33 92.67 -48.66 92.34 -49 92 C-49.33 93.98 -49.66 95.96 -50 98 C-50.66 98 -51.32 98 -52 98 C-52 99.32 -52 100.64 -52 102 C-52.66 102 -53.32 102 -54 102 C-54.99 104.31 -55.98 106.62 -57 109 C-57.66 109 -58.32 109 -59 109 C-59.33 110.65 -59.66 112.3 -60 114 C-60.66 114 -61.32 114 -62 114 C-62 116.64 -62 119.28 -62 122 C-63.98 122.495 -63.98 122.495 -66 123 C-66.125 117.25 -66.125 117.25 -65 115 C-66.485 115.495 -66.485 115.495 -68 116 C-67.49287967 112.28111761 -66.88391785 109.26545761 -65 106 C-66.485 105.505 -66.485 105.505 -68 105 C-66.47291037 101.56404834 -64.40072955 98.88087546 -62 96 C-62.66 95.01 -63.32 94.02 -64 93 C-63.525625 92.566875 -63.05125 92.13375 -62.5625 91.6875 C-60.76313043 89.97690387 -60.76313043 89.97690387 -60 87 C-60.66 86.67 -61.32 86.34 -62 86 C-60.20963542 85.0234375 -58.41927083 84.046875 -56.62890625 83.0703125 C-54.83381685 82.08589976 -54.83381685 82.08589976 -54 80 C-54.99 79.505 -54.99 79.505 -56 79 C-51.375 76 -51.375 76 -48 76 C-48.350625 75.38125 -48.70125 74.7625 -49.0625 74.125 C-49.371875 73.42375 -49.68125 72.7225 -50 72 C-49.67 71.34 -49.34 70.68 -49 70 C-49.61875 70.495 -50.2375 70.99 -50.875 71.5 C-53 73 -53 73 -55 73 C-54.67 71.35 -54.34 69.7 -54 68 C-54.763125 68.804375 -55.52625 69.60875 -56.3125 70.4375 C-59 73 -59 73 -62 74 C-62.495 73.01 -62.495 73.01 -63 72 C-63.66 72.598125 -64.32 73.19625 -65 73.8125 C-68.04838537 76.035281 -70.70154387 77.17892228 -74.23046875 78.38671875 C-76.07294974 78.98245062 -76.07294974 78.98245062 -78 80 C-78 78.68 -78 77.36 -78 76 C-78.66 76 -79.32 76 -80 76 C-80.2475 76.61875 -80.495 77.2375 -80.75 77.875 C-82.20628639 80.35068687 -83.37812506 80.95125002 -86 82 C-87.5625 80.75 -87.5625 80.75 -89 79 C-88.72963853 76.02602384 -88.14553974 75.14553974 -86 73 C-86.33 72.01 -86.66 71.02 -87 70 C-81.25 67 -81.25 67 -79 67 C-79 66.34 -79 65.68 -79 65 C-77.02 64.34 -75.04 63.68 -73 63 C-74.65 62.67 -76.3 62.34 -78 62 C-78 61.34 -78 60.68 -78 60 C-73.05 59.505 -73.05 59.505 -68 59 C-68.33 58.34 -68.66 57.68 -69 57 C-65.37 57 -61.74 57 -58 57 C-58.33 56.01 -58.66 55.02 -59 54 C-52.85845775 54.58490879 -46.99320151 55.54066252 -41 57 C-41.495 54.03 -41.495 54.03 -42 51 C-42.66 51 -43.32 51 -44 51 C-44 50.34 -44 49.68 -44 49 C-45.65 48.67 -47.3 48.34 -49 48 C-48.34 47.67 -47.68 47.34 -47 47 C-47 46.34 -47 45.68 -47 45 C-48.98 45 -50.96 45 -53 45 C-53.33 44.34 -53.66 43.68 -54 43 C-56.3140622 42.26924352 -58.64828869 41.59861742 -61 41 C-60.67 40.34 -60.34 39.68 -60 39 C-58.02 39 -56.04 39 -54 39 C-54 38.34 -54 37.68 -54 37 C-54.67546875 37.02320313 -55.3509375 37.04640625 -56.046875 37.0703125 C-56.93890625 37.08835938 -57.8309375 37.10640625 -58.75 37.125 C-59.63171875 37.14820313 -60.5134375 37.17140625 -61.421875 37.1953125 C-64.1135858 36.99139502 -65.69904974 36.36551721 -68 35 C-68 34.01 -68 33.02 -68 32 C-70.46326712 30.3553326 -70.46326712 30.3553326 -73 29 C-73 28.67 -73 28.34 -73 28 C-68.45194365 27.82164485 -65.1205746 28.00214565 -61 30 C-60.67 28.35 -60.34 26.7 -60 25 C-59.01 25.33 -58.02 25.66 -57 26 C-57 25.34 -57 24.68 -57 24 C-56.34 24 -55.68 24 -55 24 C-54.505 24.99 -54.505 24.99 -54 26 C-51.98330173 27.13350534 -51.98330173 27.13350534 -50 28 C-49.67 27.34 -49.34 26.68 -49 26 C-47.68 26.33 -46.36 26.66 -45 27 C-44.505 29.475 -44.505 29.475 -44 32 C-43.01 32 -42.02 32 -41 32 C-41 32.66 -41 33.32 -41 34 C-39.68 34.33 -38.36 34.66 -37 35 C-37 35.66 -37 36.32 -37 37 C-35.68 37 -34.36 37 -33 37 C-32.34 39.64 -31.68 42.28 -31 45 C-29.68 45 -28.36 45 -27 45 C-26.855625 46.134375 -26.71125 47.26875 -26.5625 48.4375 C-26.38828522 51.80777201 -26.38828522 51.80777201 -25 53 C-24.92652344 51.57107422 -24.92652344 51.57107422 -24.8515625 50.11328125 C-24.77679688 48.85902344 -24.70203125 47.60476562 -24.625 46.3125 C-24.55539063 45.07113281 -24.48578125 43.82976562 -24.4140625 42.55078125 C-24.03577906 39.30682228 -23.38020024 36.93432815 -22 34 C-21.34 34 -20.68 34 -20 34 C-19.92652344 32.95199219 -19.92652344 32.95199219 -19.8515625 31.8828125 C-19.77679688 30.97273438 -19.70203125 30.06265625 -19.625 29.125 C-19.55539063 28.22007813 -19.48578125 27.31515625 -19.4140625 26.3828125 C-19 24 -19 24 -17 22 C-16.505 24.475 -16.505 24.475 -16 27 C-15.67 23.7 -15.34 20.4 -15 17 C-14.01 17 -13.02 17 -12 17 C-12 14.36 -12 11.72 -12 9 C-10.35 9.33 -8.7 9.66 -7 10 C-7 8.02 -7 6.04 -7 4 C-6.34 4 -5.68 4 -5 4 C-5 4.66 -5 5.32 -5 6 C-4.34 6 -3.68 6 -3 6 C-2.5359375 4.7934375 -2.5359375 4.7934375 -2.0625 3.5625 C-1 1 -1 1 0 0 Z " fill="#0A0401" transform="translate(233,62)"/>
<path d="M0 0 C1 4 1 4 -2 13 C57.73 13 117.46 13 179 13 C179 16.63 179 20.26 179 24 C47 24 -85 24 -221 24 C-221 20.37 -221 16.74 -221 13 C-152.36 13 -83.72 13 -13 13 C-12.67 12.01 -12.34 11.02 -12 10 C-11.67 10.66 -11.34 11.32 -11 12 C-11.33 12.66 -11.66 13.32 -12 14 C-9.03 14 -6.06 14 -3 14 C-2.87625 12.618125 -2.7525 11.23625 -2.625 9.8125 C-2.23598357 6.2380592 -1.58052147 3.26641104 0 0 Z " fill="#FEEA74" transform="translate(221,231)"/>
<path d="M0 0 C0.33 0.66 0.66 1.32 1 2 C0.67 2.66 0.34 3.32 0 4 C-0.67752728 4.00423194 -1.35505457 4.00846388 -2.05311298 4.01282406 C-18.52763297 4.11606244 -35.00210766 4.22468995 -51.47655201 4.33933926 C-59.44341881 4.39465205 -67.41029008 4.44813087 -75.37719727 4.49731445 C-82.31995408 4.54018009 -89.26267818 4.58646411 -96.20538443 4.63687855 C-99.88256181 4.6634603 -103.55973278 4.68831291 -107.23694801 4.70907402 C-111.33875989 4.73229633 -115.44047989 4.76314932 -119.54223633 4.79467773 C-120.76574799 4.8004332 -121.98925964 4.80618866 -123.24984741 4.81211853 C-124.36463974 4.82190735 -125.47943207 4.83169617 -126.62800598 4.84178162 C-128.083978 4.85146044 -128.083978 4.85146044 -129.56936359 4.8613348 C-132.14124846 4.90170453 -132.14124846 4.90170453 -135 6 C-137.37644017 6.09014813 -139.75539895 6.11756299 -142.13354492 6.11352539 C-142.85574722 6.11367142 -143.57794952 6.11381744 -144.32203674 6.1139679 C-146.70821134 6.11327145 -149.09430779 6.1054916 -151.48046875 6.09765625 C-153.1352789 6.09579112 -154.79008961 6.09436766 -156.44490051 6.09336853 C-160.79981003 6.08955085 -165.15468618 6.07972695 -169.50958252 6.06866455 C-173.95364938 6.05843433 -178.39772163 6.05386745 -182.84179688 6.04882812 C-191.56121323 6.03810402 -200.28060246 6.02103657 -209 6 C-209 5.01 -209 4.02 -209 3 C-140.36 3 -71.72 3 -1 3 C-0.67 2.01 -0.34 1.02 0 0 Z " fill="#FED149" transform="translate(209,241)"/>
<path d="M0 0 C1 4 1 4 -2 13 C57.73 13 117.46 13 179 13 C179 13.66 179 14.32 179 15 C175.12352213 15.91102913 171.53528248 16.12137137 167.55737305 16.11352539 C166.27642258 16.11344986 164.99547211 16.11337433 163.67570496 16.11329651 C162.28770915 16.10819065 160.89971375 16.10297467 159.51171875 16.09765625 C158.08396962 16.09578975 156.65621985 16.09436694 155.22846985 16.09336853 C151.48186455 16.08956165 147.7352984 16.07974707 143.9887085 16.06866455 C140.16109751 16.05841102 136.33348016 16.05386248 132.50585938 16.04882812 C125.00388846 16.03812307 117.50194973 16.02106873 110 16 C110 15.34 110 14.68 110 14 C72.71 14 35.42 14 -3 14 C-1.875 3.875 -1.875 3.875 0 0 Z " fill="#FCCF47" transform="translate(221,231)"/>
<path d="M0 0 C4.875 4.625 4.875 4.625 6 8 C4.68 9.65 3.36 11.3 2 13 C1.34 8.71 0.68 4.42 0 0 Z " fill="#D65D20" transform="translate(212,129)"/>
<path d="M0 0 C0.66 0 1.32 0 2 0 C1.71905418 1.8141927 1.42493567 3.62635001 1.125 5.4375 C0.96257812 6.44683594 0.80015625 7.45617187 0.6328125 8.49609375 C0.42398438 9.32238281 0.21515625 10.14867187 0 11 C-0.99 11.495 -0.99 11.495 -2 12 C-2 10.68 -2 9.36 -2 8 C-2.99 8 -3.98 8 -5 8 C-4.67 6.68 -4.34 5.36 -4 4 C-2.515 4.99 -2.515 4.99 -1 6 C-0.67 4.02 -0.34 2.04 0 0 Z " fill="#BB551D" transform="translate(201,136)"/>
<path d="M0 0 C6.4 -0.36923077 6.4 -0.36923077 9.4375 1.5 C9.953125 1.995 10.46875 2.49 11 3 C10.67 3.66 10.34 4.32 10 5 C7.8125 5.3125 7.8125 5.3125 5 5 C2.1875 2.5 2.1875 2.5 0 0 Z " fill="#5B1A09" transform="translate(160,90)"/>
<path d="M0 0 C0.33 0 0.66 0 1 0 C1 3.96 1 7.92 1 12 C0.01 11.34 -0.98 10.68 -2 10 C-2.42905061 6.05273438 -2.08466413 3.38757921 0 0 Z " fill="#D14A19" transform="translate(208,104)"/>
<path d="M0 0 C4.75 0.875 4.75 0.875 7 2 C6.67 2.99 6.34 3.98 6 5 C5.34 5 4.68 5 4 5 C3.67 4.01 3.34 3.02 3 2 C2.34 2.66 1.68 3.32 1 4 C0.67 2.68 0.34 1.36 0 0 Z " fill="#3E1F0A" transform="translate(237,158)"/>
<path d="M0 0 C1.65 0 3.3 0 5 0 C5.33 0.66 5.66 1.32 6 2 C3.36 2.66 0.72 3.32 -2 4 C-1.34 2.68 -0.68 1.36 0 0 Z " fill="#C04E1B" transform="translate(155,124)"/>
<path d="M0 0 C0.99 0.33 1.98 0.66 3 1 C2.67 2.65 2.34 4.3 2 6 C1.01 6 0.02 6 -1 6 C-0.67 4.02 -0.34 2.04 0 0 Z " fill="#531708" transform="translate(173,87)"/>
</svg>
