<?xml version="1.0" encoding="UTF-8"?>
<svg version="1.1" xmlns="http://www.w3.org/2000/svg" width="499" height="500">
<path d="M0 0 C7.73848447 6.27677074 10.28842149 12.98445705 11.45458984 22.75024414 C12.00493318 28.99991614 11.87605887 35.26702873 11.84375 41.53515625 C11.84036621 42.78598999 11.83698242 44.03682373 11.83349609 45.32556152 C11.82471313 48.39154852 11.81241226 51.45747854 11.796875 54.5234375 C19.50151751 54.5742438 27.20611662 54.60921584 34.91088867 54.63330078 C37.53069676 54.64334395 40.15049369 54.65698102 42.77026367 54.67431641 C46.54088095 54.69863835 50.3113497 54.70993769 54.08203125 54.71875 C55.24896011 54.72907257 56.41588898 54.73939514 57.61817932 54.75003052 C63.40936994 54.75082537 68.33819449 54.51656279 73.796875 52.5234375 C73.75233562 48.27261445 73.68211013 44.02317373 73.58935547 39.77319336 C73.56135037 38.33125278 73.54003532 36.88916452 73.52587891 35.44702148 C73.44836636 24.50971172 73.44836636 24.50971172 69.74316406 14.31811523 C68.73565666 12.4073343 68.24301137 10.62977193 67.796875 8.5234375 C59.41624746 6.39502416 51.64716593 5.00565519 43.796875 9.5234375 C39.77537798 14.10347578 37.89787664 19.86861393 35.796875 25.5234375 C33.79732754 25.56598106 31.79645864 25.56424533 29.796875 25.5234375 C28.25451275 23.98107525 28.62751426 22.53887071 28.609375 20.3984375 C28.7456307 13.76383309 29.76332903 9.28833693 34.359375 4.3359375 C40.58880501 -1.50840048 47.56302173 -4.0660642 55.984375 -4.7265625 C64.67222532 -4.1568674 70.39729696 -1.59923472 76.88671875 4.1953125 C81.13077789 9.36803079 82.1879793 14.49680001 82.47607422 21.06274414 C82.5257047 22.15494939 82.5257047 22.15494939 82.57633781 23.2692194 C82.97637627 33.13855838 82.94099704 43.01903184 82.9296875 52.89453125 C82.93036278 54.99536653 82.93133466 57.09620173 82.93258667 59.19703674 C82.93404825 63.55950681 82.93195592 67.92195619 82.92724609 72.28442383 C82.92149621 77.88316423 82.92487036 83.48185723 82.93081856 89.08059597 C82.93442077 93.39985008 82.93328808 97.7190928 82.93069077 102.03834724 C82.93002329 104.10488961 82.93084366 106.171433 82.93317032 108.23797417 C82.93569695 111.10716407 82.93185854 113.976275 82.92626953 116.84545898 C82.92829376 117.69988083 82.93031799 118.55430267 82.93240356 119.43461609 C82.91115035 125.2948868 82.91115035 125.2948868 81.796875 127.5234375 C79.486875 127.5234375 77.176875 127.5234375 74.796875 127.5234375 C74.796875 113.6634375 74.796875 99.8034375 74.796875 85.5234375 C71.125625 85.6471875 67.454375 85.7709375 63.671875 85.8984375 C62.5257373 85.93243652 61.37959961 85.96643555 60.19873047 86.00146484 C54.3618128 86.19714623 54.3618128 86.19714623 48.7421875 87.625 C44.05423024 89.05501349 39.60614211 88.09337316 34.796875 87.5234375 C32.68953118 87.33663603 30.58141325 87.15838915 28.47265625 86.98828125 C27.52559814 86.90956787 26.57854004 86.83085449 25.6027832 86.74975586 C23.87354614 86.60679077 23.87354614 86.60679077 22.109375 86.4609375 C16.5096875 85.996875 16.5096875 85.996875 10.796875 85.5234375 C10.796875 95.4234375 10.796875 105.3234375 10.796875 115.5234375 C8.816875 116.1834375 6.836875 116.8434375 4.796875 117.5234375 C4.136875 117.1934375 3.476875 116.8634375 2.796875 116.5234375 C2.796875 113.5534375 2.796875 110.5834375 2.796875 107.5234375 C-1.70383639 107.60483526 -6.20324429 107.71763706 -10.703125 107.8359375 C-11.9715625 107.85849609 -13.24 107.88105469 -14.546875 107.90429688 C-23.23983315 108.15331391 -31.18944727 108.67791367 -37.8984375 114.93359375 C-42.62633746 120.69483711 -43.63002402 128.22857578 -44.9375 135.3515625 C-45.10611542 136.25344299 -45.27473083 137.15532349 -45.44845581 138.08453369 C-45.82742525 140.11328692 -46.20480358 142.14233779 -46.58087158 144.17163086 C-47.24351549 147.74100338 -47.91291441 151.30906362 -48.58349609 154.87695312 C-50.17351617 163.34087073 -51.75256417 171.80681745 -53.328125 180.2734375 C-53.54009899 181.4121977 -53.54009899 181.4121977 -53.75635529 182.57396317 C-58.24238185 206.68096398 -62.60654824 230.80544029 -66.79296875 254.96655273 C-67.18483755 257.22771192 -67.57676357 259.4888612 -67.96875 261.75 C-68.15683228 262.83537552 -68.34491455 263.92075104 -68.53869629 265.03901672 C-69.77312152 272.13350298 -71.05721601 279.21743177 -72.375 286.296875 C-72.71049368 288.11140129 -73.04594425 289.92593554 -73.38134766 291.74047852 C-73.98411599 294.99848385 -74.59986022 298.25362266 -75.22412109 301.50756836 C-77.50268861 313.44170701 -77.50268861 313.44170701 -77.203125 325.5234375 C-74.56743485 329.25733188 -72.59724288 330.68957836 -68.203125 331.5234375 C-66.84805503 331.61265405 -65.48937754 331.65517366 -64.13138008 331.65930939 C-63.32476909 331.66416713 -62.51815809 331.66902488 -61.68710434 331.67402983 C-60.80641246 331.67432581 -59.92572058 331.6746218 -59.01834106 331.67492676 C-57.60785423 331.68127537 -57.60785423 331.68127537 -56.16887271 331.68775225 C-53.00857632 331.70079721 -49.84830518 331.70680806 -46.68798828 331.71289062 C-44.4239588 331.72083331 -42.15993085 331.72922129 -39.89590454 331.73802185 C-35.00908985 331.75610462 -30.12227859 331.77111304 -25.23544693 331.78379822 C-17.47032819 331.80407274 -9.7052464 331.83173123 -1.94015503 331.86047363 C8.98699132 331.9002152 19.91414304 331.93713511 30.84130859 331.97119141 C31.53486388 331.97335421 32.22841916 331.97551701 32.94299127 331.97774535 C36.45158248 331.98867297 39.96017383 331.99955514 43.46876526 332.01041412 C50.41911899 332.03193366 57.36947199 332.05368241 64.31982422 332.07568359 C65.00221896 332.07784246 65.6846137 332.08000133 66.38768707 332.08222562 C77.88927486 332.11872531 89.39084797 332.15876063 100.89241612 332.20098639 C107.32665783 332.22438916 113.76089431 332.24597902 120.1951561 332.26307678 C148.74387179 332.33923035 177.26227085 332.58813211 205.796875 333.5234375 C203.816875 327.2534375 201.836875 320.9834375 199.796875 314.5234375 C197.816875 315.1834375 195.836875 315.8434375 193.796875 316.5234375 C191.64498156 316.77643716 191.64498156 316.77643716 189.63228893 316.78070641 C188.4679493 316.79037974 188.4679493 316.79037974 187.28008765 316.8002485 C186.02566248 316.7956027 186.02566248 316.7956027 184.74589539 316.79086304 C183.39403309 316.79765971 183.39403309 316.79765971 182.01486045 316.80459368 C179.0003331 316.81723585 175.98598645 316.81561742 172.97143555 316.81396484 C170.80783862 316.8199502 168.64424384 316.82675576 166.48065186 316.83432007 C160.60661183 316.85198646 154.73263007 316.85667572 148.85856605 316.85795164 C145.18764945 316.85937343 141.51674765 316.86364356 137.84583473 316.86894608 C125.03629236 316.88744843 112.22679162 316.89561642 99.41723633 316.89404297 C87.48161637 316.8928415 75.54617723 316.91394449 63.61060303 316.9455303 C53.35903756 316.97169172 43.10753114 316.98241032 32.85593253 316.98113215 C26.73500799 316.98062248 20.61424415 316.98630857 14.49335289 317.00748825 C8.73540192 317.02686819 2.97776498 317.02699651 -2.78019714 317.01245499 C-4.89048916 317.01036551 -7.00080082 317.01507599 -9.11105919 317.0271759 C-11.99813824 317.04265456 -14.88413799 317.03330269 -17.77119446 317.01791382 C-18.60078574 317.02820094 -19.43037702 317.03848807 -20.28510743 317.04908693 C-28.87358267 316.94833657 -36.21228267 313.65360174 -42.203125 307.5234375 C-46.99364177 300.98684452 -46.97903202 294.29277839 -45.92681885 286.46893311 C-44.95886497 280.29387939 -43.75656162 274.16099356 -42.578125 268.0234375 C-42.18297283 265.92669182 -41.78879945 263.82976148 -41.39550781 261.73266602 C-40.51076122 257.02158443 -39.6204822 252.31158529 -38.72753906 247.60205078 C-37.1731682 239.3864012 -35.64739521 231.16554784 -34.12475967 222.94396591 C-32.88928653 216.27463698 -31.65061299 209.60590105 -30.41260529 202.93704224 C-29.95851757 200.48999768 -29.50495401 198.0428564 -29.05145264 195.59570312 C-26.25050204 180.49026227 -23.44565667 165.38701175 -20.34375 150.33984375 C-20.13957458 149.34129868 -19.93539917 148.3427536 -19.72503662 147.31394958 C-19.5376593 146.42087601 -19.35028198 145.52780243 -19.15722656 144.60766602 C-18.99595276 143.83616714 -18.83467896 143.06466827 -18.66851807 142.26979065 C-18.203125 140.5234375 -18.203125 140.5234375 -17.203125 139.5234375 C-15.21063789 139.40933962 -13.21746898 139.30209624 -11.22290039 139.23339844 C-0.98784126 138.8795186 7.02224386 137.36161187 16.296875 132.8984375 C26.43649844 128.2186113 35.22967442 129.33151421 45.796875 132.5234375 C48.5332094 133.70128223 51.11653936 134.97649081 53.7109375 136.4375 C59.31194417 139.35337988 65.64192834 139.18627791 71.796875 138.5234375 C75.97896478 137.20411807 79.8565614 135.43648831 83.796875 133.5234375 C93.72607842 129.031655 103.32001593 128.03658238 113.796875 131.5234375 C115.95550733 132.49550086 118.10065268 133.49784998 120.234375 134.5234375 C127.9531083 138.18961117 134.83198347 140.6788912 143.31640625 138.44140625 C146.42932447 137.2893814 149.32654136 135.81592952 152.296875 134.3359375 C158.14083167 131.49979871 161.5140784 131.03260441 167.796875 132.5234375 C167.466875 129.2234375 167.136875 125.9234375 166.796875 122.5234375 C164.8478125 122.1521875 164.8478125 122.1521875 162.859375 121.7734375 C150.29529542 118.93132901 139.80379449 111.35119974 129.796875 103.5234375 C128.806875 105.5034375 128.806875 105.5034375 127.796875 107.5234375 C123.61598308 107.57305101 119.43524934 107.60925766 115.25415039 107.63330078 C113.83322157 107.64332896 112.41231322 107.65695491 110.99145508 107.67431641 C108.94347056 107.69870571 106.89576002 107.7099524 104.84765625 107.71875 C103.61700439 107.72922363 102.38635254 107.73969727 101.1184082 107.75048828 C97.85877734 107.52766897 95.75965759 106.80727848 92.796875 105.5234375 C90.4647948 105.44697585 88.12841622 105.43200451 85.796875 105.5234375 C85.796875 103.2134375 85.796875 100.9034375 85.796875 98.5234375 C87.546875 97.7734375 87.546875 97.7734375 89.796875 97.5234375 C92.046875 99.4609375 92.046875 99.4609375 93.796875 101.5234375 C94.333125 100.8840625 94.869375 100.2446875 95.421875 99.5859375 C100.3957316 95.26653572 108.51636132 96.20633476 114.87109375 95.91796875 C118.96621051 95.79931651 118.96621051 95.79931651 122.796875 94.5234375 C121.83808051 92.10301408 120.8702889 89.69225976 119.83203125 87.3046875 C114.66619645 75.18883399 113.1053795 63.57052247 113.796875 50.5234375 C113.85488281 49.42 113.91289062 48.3165625 113.97265625 47.1796875 C115.49486832 32.36104467 123.62034313 19.80986697 134.48828125 9.99609375 C137.08064861 7.98582455 138.69420884 7.5234375 141.984375 7.5234375 C145.33445679 8.71457769 145.95731064 9.53538502 147.796875 12.5234375 C151.67025225 23.68253769 153.31450336 35.51620927 155.15136719 47.14208984 C157.07384135 62.49594935 157.07384135 62.49594935 165.796875 74.5234375 C175.48583754 78.92751138 187.49003684 75.96691973 197.21484375 72.71484375 C200.49907095 71.13925501 202.27277915 69.20157988 203.734375 65.9609375 C206.98709977 54.135401 203.31243423 42.09645412 200.796875 30.4609375 C200.03517843 26.93074226 199.28737407 23.39797576 198.546875 19.86328125 C198.37188477 19.07445053 198.19689453 18.28561981 198.01660156 17.47288513 C196.84580186 11.8839435 196.11606412 6.22818126 196.796875 0.5234375 C198.796875 -2.4765625 198.796875 -2.4765625 202.359375 -3.3515625 C212.48415836 -4.18772055 222.35807069 2.26781167 230.0234375 8.265625 C239.64716088 17.19920088 245.81655574 29.18110299 249.796875 41.5234375 C250.16425781 42.57917969 250.16425781 42.57917969 250.5390625 43.65625 C254.69017361 57.24687403 251.24396344 74.11017667 245.06079102 86.61962891 C240.40287454 95.36569986 235.32377449 103.46288672 226.734375 108.6484375 C224.51308739 110.22953949 224.51308739 110.22953949 222.796875 112.5234375 C221.0368215 126.63189958 226.11429001 142.49890435 228.71022034 156.32772064 C229.38966211 159.95888615 230.05800919 163.59209398 230.72753906 167.22509766 C231.8467151 173.29061123 232.97203383 179.35495414 234.10205078 185.41845703 C235.73848604 194.20025684 237.36133458 202.98452731 238.98046875 211.76953125 C239.36784943 213.87053109 239.75527625 215.97152242 240.14270401 218.07251358 C240.39813855 219.45773164 240.65355805 220.84295247 240.90896225 222.22817612 C242.15688502 228.99616771 243.40642864 235.76385953 244.65661621 242.53143311 C245.01634934 244.4788683 245.37597301 246.42632371 245.7355957 248.3737793 C247.05164657 255.49838556 248.37217983 262.62213931 249.69668579 269.74517822 C250.45622313 273.83639408 251.21105422 277.92846722 251.96447754 282.02081299 C252.30423494 283.86052071 252.64602652 285.69985424 252.9901123 287.53875732 C259.00826528 319.71400944 259.00826528 319.71400944 253.109375 331.4609375 C248.11662455 338.07295837 241.89643962 341.0549612 233.796875 342.5234375 C227.54891334 343.02202796 222.60027309 342.95712057 216.796875 340.5234375 C214.04934332 340.79819067 211.96889022 341.44811352 209.44247776 342.55440778 C206.73978418 343.54434869 204.82738239 343.7748819 201.9672308 343.77791309 C201.01719234 343.78374529 200.06715389 343.78957748 199.08832639 343.79558641 C198.0527381 343.79180708 197.01714981 343.78802776 195.95018005 343.78413391 C194.29038269 343.78987223 194.29038269 343.78987223 192.59705406 343.79572648 C188.88163058 343.80606194 185.16636148 343.80206317 181.45092773 343.7980957 C178.78988633 343.80244201 176.12885632 343.80756036 173.46781921 343.81358337 C166.98404178 343.82633659 160.50030574 343.8281231 154.01651787 343.82578311 C148.74308896 343.82399962 143.4696726 343.82575028 138.19624519 343.83000755 C137.44548906 343.83060274 136.69473293 343.83119793 135.92122661 343.83181116 C134.39595905 343.83302293 132.8706915 343.83423707 131.34542394 343.83545353 C117.03728693 343.84633255 102.72917347 343.84416553 88.42103512 343.83806869 C75.34764695 343.83290552 62.27433344 343.84413844 49.20096003 343.86316691 C35.76714932 343.88256943 22.33337387 343.89079667 8.89954907 343.88704365 C1.36170787 343.88513446 -6.17606988 343.88759115 -13.71389961 343.90175819 C-20.13491928 343.91370416 -26.55583651 343.91504141 -32.97685767 343.90296803 C-36.24926141 343.89710027 -39.52144054 343.89756457 -42.7938385 343.90797043 C-46.35191205 343.91846574 -49.90948846 343.91031413 -53.46754456 343.8976593 C-54.4875178 343.90503359 -55.50749104 343.91240787 -56.55837256 343.92000562 C-66.45940137 343.84631696 -76.37252895 342.72903355 -83.64453125 335.45703125 C-89.14494867 328.63320512 -88.6882913 320.94683868 -88.203125 312.5234375 C-87.44576515 305.83352193 -86.19595785 299.21113577 -85.015625 292.5859375 C-84.66137575 290.55151746 -84.30763369 288.51700906 -83.9543457 286.48242188 C-80.3550263 265.89774422 -76.48522577 245.36063407 -72.63455772 224.82177734 C-69.6892533 209.10571519 -66.79525356 193.38347457 -64.0625 177.62890625 C-63.93741877 176.90832157 -63.81233753 176.18773689 -63.68346596 175.44531631 C-62.60153735 169.20756922 -61.52357061 162.96915631 -60.46273804 156.7277832 C-52.85585344 111.9828159 -52.85585344 111.9828159 -39.203125 101.5234375 C-31.0206627 96.68684035 -21.361047 97.25361488 -12.16992188 97.00585938 C-11.22052734 96.97169922 -10.27113281 96.93753906 -9.29296875 96.90234375 C-8.43566162 96.8772876 -7.57835449 96.85223145 -6.69506836 96.82641602 C-3.92931377 96.49014665 -1.76303513 95.59475305 0.796875 94.5234375 C0.91331568 85.34315917 1.00186482 76.16313951 1.05593586 66.98228073 C1.08190249 62.71806285 1.11705968 58.45435445 1.17407227 54.19042969 C1.22885944 50.06659268 1.25839249 45.9432421 1.27126122 41.81906891 C1.2804182 40.25473637 1.29829721 38.69042699 1.32552528 37.12630463 C1.47430672 28.21580083 0.88642374 20.93663388 -3.12654114 12.74884033 C-4.203125 10.5234375 -4.203125 10.5234375 -4.203125 8.5234375 C-12.92185774 6.26302531 -19.97806691 5.16899498 -28.203125 9.5234375 C-31.39576039 12.01544467 -32.16326936 14.84201948 -33.328125 18.6484375 C-35.11979167 24.44010417 -35.11979167 24.44010417 -36.203125 25.5234375 C-38.20270864 25.56424533 -40.20357754 25.56598106 -42.203125 25.5234375 C-44.41227285 21.10514181 -43.45056031 15.6052477 -42.265625 10.9609375 C-39.83251387 4.25250254 -33.86951989 1.06174224 -27.953125 -2.3515625 C-18.77672361 -6.10554489 -8.31954567 -5.57586572 0 0 Z M206.796875 5.5234375 C206.67361822 11.50249178 207.01430096 16.98671388 208.109375 22.85546875 C208.38291416 24.41209151 208.65634838 25.96873272 208.9296875 27.52539062 C209.36107146 29.92808192 209.79581493 32.33011959 210.23339844 34.73168945 C214.53636036 58.50774948 214.53636036 58.50774948 211.359375 68.5859375 C211.09253906 69.46378906 210.82570313 70.34164062 210.55078125 71.24609375 C208.80536516 76.51851645 208.80536516 76.51851645 206.95703125 77.58984375 C206.24417969 77.89792969 205.53132813 78.20601563 204.796875 78.5234375 C204.23871094 78.84183594 203.68054688 79.16023438 203.10546875 79.48828125 C191.67888287 85.4281975 176.08495544 87.23200232 163.796875 83.5234375 C158.26625373 80.90896199 154.72130044 76.81669637 151.796875 71.5234375 C148.16393466 60.74189033 146.42235926 49.47052217 144.609375 38.2734375 C144.22079222 35.90817196 143.83011159 33.54327828 143.43693542 31.17877197 C143.19569673 29.72464398 142.95735621 28.27003125 142.72236633 26.81488037 C142.25102195 23.94609731 141.7183855 21.287969 140.796875 18.5234375 C136.57260705 19.27582857 135.02025178 20.98387472 132.3828125 24.23046875 C123.11588579 37.62871007 120.20148598 52.80036767 122.359375 68.7734375 C124.77274222 80.62240016 131.23234205 90.2212416 139.796875 98.5234375 C140.33699219 99.07257813 140.87710938 99.62171875 141.43359375 100.1875 C149.37703937 107.670746 160.39318108 112.60635637 170.37109375 116.7109375 C176.99701329 121.66170508 177.20251913 133.30454806 178.50390625 140.9140625 C178.75177042 142.32976825 179.00028949 143.74535947 179.24942017 145.1608429 C179.90927209 148.92156169 180.55946327 152.68388936 181.20759201 156.44664383 C181.74511481 159.55952983 182.28856406 162.67136831 182.83215046 165.78320026 C185.94004933 183.57570226 188.98470787 201.37842829 191.91015625 219.2019043 C193.38827288 228.18090292 194.95753524 237.13743046 196.609375 246.0859375 C196.8168335 247.21265869 197.02429199 248.33937988 197.23803711 249.50024414 C198.26384895 255.07569338 198.26384895 255.07569338 199.796875 260.5234375 C208.02032799 260.2183001 215.91360433 259.06938794 223.984375 257.5234375 C224.91725342 257.34522461 225.85013184 257.16701172 226.8112793 256.98339844 C231.43766913 256.16244051 231.43766913 256.16244051 235.796875 254.5234375 C235.40222744 247.0659594 234.61032063 239.73404535 233.48657227 232.35595703 C233.35521409 231.48839846 233.22385592 230.62083988 233.08851719 229.72699165 C231.58452756 219.93906659 229.83947087 210.19667681 228.07421875 200.453125 C227.72434776 198.51030477 227.37470772 196.56744293 227.02528381 194.62454224 C226.3001158 190.59572817 225.57308588 186.56725667 224.84448242 182.5390625 C223.91500968 177.40018518 222.98895821 172.26069897 222.06412411 167.12098503 C221.17288416 162.16897673 220.27982139 157.21729763 219.38671875 152.265625 C219.21942701 151.33708584 219.05213528 150.40854668 218.87977409 149.45186996 C216.62577721 136.87036583 216.62577721 136.87036583 214.1554718 124.33006287 C213.6533819 121.8005134 213.30836391 119.27583607 213.046875 116.7109375 C212.94890625 115.83824219 212.8509375 114.96554688 212.75 114.06640625 C212.80546322 111.05752636 213.39293089 109.18121848 214.796875 106.5234375 C216.4609375 105.00390625 216.4609375 105.00390625 218.421875 103.7109375 C230.04168175 95.43208784 239.10019497 83.7727586 241.796875 69.5234375 C243.59320288 52.27161456 240.4301192 35.51663427 229.5390625 21.6484375 C223.43893784 14.6113031 216.4045011 6.91781863 206.796875 5.5234375 Z M10.796875 62.5234375 C9.1208409 65.66672636 8.56651117 67.69106712 8.671875 71.2734375 C8.68992187 72.07265625 8.70796875 72.871875 8.7265625 73.6953125 C8.74976563 74.29859375 8.77296875 74.901875 8.796875 75.5234375 C13.41857407 77.85858132 17.53451286 77.79863936 22.5859375 77.75390625 C23.87278946 77.75321892 23.87278946 77.75321892 25.18563843 77.7525177 C27.00625995 77.74949985 28.826879 77.74162749 30.64746094 77.72924805 C33.36403121 77.71131926 36.0802525 77.70873651 38.796875 77.70898438 C47.73107484 77.691175 56.64641094 77.51500807 65.5703125 77.07421875 C66.38553375 77.03572311 67.200755 76.99722748 68.04067993 76.95756531 C71.72567792 77.07853392 71.72567792 77.07853392 74.796875 75.5234375 C74.86914002 73.67056248 74.8806872 71.81509872 74.859375 69.9609375 C74.85035156 68.94902344 74.84132813 67.93710938 74.83203125 66.89453125 C74.82042969 66.11207031 74.80882812 65.32960938 74.796875 64.5234375 C72.0855529 63.16777645 69.91379502 63.36112665 66.87841797 63.31811523 C65.63728241 63.29817001 64.39614685 63.27822479 63.11740112 63.25767517 C61.7579562 63.2406909 60.39850995 63.22381209 59.0390625 63.20703125 C57.65185933 63.18646169 56.26466243 63.16546522 54.87747192 63.14405823 C51.22459995 63.08883769 47.57167141 63.03942839 43.91870117 62.99121094 C40.19184326 62.94099575 36.46506759 62.88530979 32.73828125 62.83007812 C25.42454879 62.72249679 18.11074799 62.62105182 10.796875 62.5234375 Z M167.796875 137.5234375 C167.13945312 137.93335938 166.48203125 138.34328125 165.8046875 138.765625 C162.16847353 140.89068511 158.44167276 142.77383861 154.671875 144.6484375 C153.59873047 145.18791016 153.59873047 145.18791016 152.50390625 145.73828125 C151.81425781 146.08246094 151.12460937 146.42664063 150.4140625 146.78125 C149.47989502 147.24748779 149.47989502 147.24748779 148.52685547 147.72314453 C140.129372 151.60783982 131.33899095 149.5214239 122.921875 146.7421875 C120.04079684 145.61856702 117.43852606 144.32668744 114.734375 142.8359375 C107.78007569 139.17220908 99.48544535 138.37108781 91.91796875 140.65234375 C89.14706104 141.79030401 86.52135477 143.15048703 83.859375 144.5234375 C74.08526654 149.52670454 65.37820462 150.70640732 54.5703125 147.95703125 C50.91079031 146.6813014 47.78376228 144.91537743 44.484375 142.8984375 C37.56630163 138.9571599 29.8476227 138.6910201 22.21875 140.65234375 C19.24393927 141.722316 16.50058259 143.11253335 13.671875 144.5234375 C7.33322746 147.5992157 1.73650909 148.53642826 -5.18359375 149.19921875 C-8.12096058 149.33686844 -8.12096058 149.33686844 -10.203125 150.5234375 C-11.3608756 153.99668931 -11.27179152 156.88411198 -11.203125 160.5234375 C-2.36338095 162.28104743 5.08861314 160.35313158 13.25463867 156.87426758 C24.6361624 152.02902843 34.67665954 150.12222203 46.796875 154.2734375 C51.23210109 156.14757063 55.50693869 158.34083833 59.796875 160.5234375 C69.46983773 163.46230545 76.95087742 160.59467237 85.796875 156.5234375 C96.46717571 151.71796394 107.19263961 150.65220164 118.41015625 154.52734375 C121.92145003 155.99277732 125.30646599 157.65692871 128.66796875 159.4375 C134.22491316 162.27205146 139.70140402 162.36305227 145.796875 161.5234375 C149.35904866 160.32826861 152.7352264 158.76534488 156.1003418 157.1015625 C161.26377523 154.56838532 166.07651832 152.61665194 171.796875 154.5234375 C171.5147461 152.25139948 171.22084644 149.98082066 170.921875 147.7109375 C170.75945312 146.44636719 170.59703125 145.18179688 170.4296875 143.87890625 C170.00119047 140.40644433 170.00119047 140.40644433 167.796875 137.5234375 Z M166.7265625 161.640625 C165.911875 162.08277344 165.0971875 162.52492187 164.2578125 162.98046875 C162.55516284 163.91409689 160.85457892 164.85150381 159.15625 165.79296875 C151.10987598 170.14406442 143.93095001 172.71899328 134.796875 170.5234375 C131.55505908 169.3936499 128.37828363 168.14342244 125.19140625 166.8671875 C113.59511544 162.27671104 102.85812797 158.68735192 90.859375 163.7734375 C89.37244141 164.45019531 89.37244141 164.45019531 87.85546875 165.140625 C77.53328169 169.80736091 66.8892971 172.87280932 55.79931641 168.78759766 C52.47705091 167.37509948 49.27090479 165.79166293 46.07421875 164.1171875 C38.98429035 160.66940349 30.5009241 160.30480465 22.88671875 162.27734375 C18.50728301 163.84802745 14.32080751 165.74223703 10.109375 167.7109375 C1.72509002 171.46686058 -6.267156 170.40886126 -15.203125 169.5234375 C-15.28398647 171.31436941 -15.34225202 173.10633378 -15.390625 174.8984375 C-15.42542969 175.89617187 -15.46023437 176.89390625 -15.49609375 177.921875 C-15.39941406 178.78039062 -15.30273438 179.63890625 -15.203125 180.5234375 C-9.64136687 184.23127626 -1.66821662 183.61759055 4.796875 182.5234375 C9.51447487 180.98155474 13.83121788 178.72198575 18.1875 176.37109375 C25.83247189 172.28080284 35.47889236 172.35524788 43.734375 174.6484375 C47.72280849 175.96519305 51.31225483 177.8007267 55.046875 179.7109375 C62.65189942 183.23803411 69.89931265 184.64609085 78.00683594 181.72802734 C82.46656923 179.85019537 86.761911 177.69579201 91.00439453 175.37133789 C98.90877115 171.63231583 109.17262405 172.77368718 117.22265625 175.45703125 C120.24009709 176.70704847 123.08127359 178.21518611 125.984375 179.7109375 C133.85737226 183.3623159 141.73935201 184.59851942 150.07177734 181.74414062 C153.98037909 180.16356899 157.74412775 178.36411845 161.5078125 176.46875 C165.79777141 174.36465579 170.10859156 173.34673911 174.796875 172.5234375 C174.65602704 170.73137203 174.50903799 168.93978833 174.359375 167.1484375 C174.27816406 166.15070313 174.19695312 165.15296875 174.11328125 164.125 C173.94721874 161.54416137 173.94721874 161.54416137 172.796875 159.5234375 C170.22675041 159.5234375 168.97478788 160.39741899 166.7265625 161.640625 Z M169.984375 182.1484375 C165.83802569 184.05112082 161.67279453 185.90288457 157.484375 187.7109375 C155.72673828 188.47470703 155.72673828 188.47470703 153.93359375 189.25390625 C141.70378304 194.20370511 131.23434554 191.01438324 119.64794922 186.25439453 C107.80155988 181.57646131 98.48272627 181.7564967 86.8515625 186.80078125 C84.97456822 187.66419862 83.10402372 188.5418645 81.2421875 189.4375 C72.95787761 193.11647468 63.52729649 192.28598763 55.09765625 189.44921875 C52.89697041 188.56371358 50.83217214 187.56569457 48.734375 186.4609375 C40.46702242 182.17904174 31.87721821 181.50876619 22.796875 183.5234375 C19.7687595 184.7359504 16.85191287 186.15494541 13.921875 187.5859375 C5.51039453 191.67644588 -0.78660387 192.53437885 -10.203125 191.5234375 C-11.09644531 191.43964844 -11.98976563 191.35585938 -12.91015625 191.26953125 C-14.68117414 191.07412998 -16.44464268 190.81053665 -18.203125 190.5234375 C-18.203125 193.8234375 -18.203125 197.1234375 -18.203125 200.5234375 C-10.56300322 204.0160646 -4.07696823 206.28936786 4.2265625 203.79296875 C6.79558155 202.787522 9.2901543 201.67527382 11.796875 200.5234375 C13.89739384 199.61908396 16.00166225 198.7233955 18.109375 197.8359375 C19.07488281 197.41957031 20.04039062 197.00320313 21.03515625 196.57421875 C30.48077932 192.98033953 39.41875737 194.44586401 48.796875 197.5234375 C51.41569189 198.72341411 53.94485313 200.03174348 56.48828125 201.3828125 C62.50987858 204.35795027 69.51002062 205.90750043 76.03515625 203.80078125 C79.60737306 202.39354433 83.08462227 200.88572167 86.5078125 199.14453125 C95.77037802 194.69088673 105.75666644 193.69130925 115.75390625 196.29296875 C118.18043299 197.25211554 120.46964527 198.34585127 122.796875 199.5234375 C124.58174667 200.26908258 126.37353512 200.99838774 128.171875 201.7109375 C128.96335937 202.03449219 129.75484375 202.35804688 130.5703125 202.69140625 C140.728761 206.48745806 148.18851009 203.69377591 157.796875 199.5234375 C159.33953435 198.77548145 160.88132747 198.0257336 162.421875 197.2734375 C167.37281862 194.98696819 172.40433457 194.7250278 177.796875 194.5234375 C177.94662739 187.46692498 177.94662739 187.46692498 176.796875 180.5234375 C173.76036654 180.5234375 172.65282886 180.89329477 169.984375 182.1484375 Z M159.796875 206.5234375 C157.94465406 207.27822995 156.09067288 208.02872803 154.234375 208.7734375 C153.46996094 209.08796875 152.70554687 209.4025 151.91796875 209.7265625 C139.74338821 214.30043806 128.93920177 210.33788803 117.484375 205.55859375 C109.25824958 202.22502276 101.2003544 201.57761686 92.796875 204.5234375 C89.42688053 206.00157572 86.11181726 207.55385853 82.8125 209.18359375 C72.97721245 213.5534171 61.65537597 212.14586344 51.796875 208.5234375 C50.42904434 207.86354138 49.07342993 207.17742581 47.734375 206.4609375 C40.03677621 202.39310074 31.23529351 201.41109668 22.796875 203.5234375 C19.01099753 205.06406925 15.44948942 206.97430248 11.86328125 208.9296875 C2.48329894 213.8048885 -9.56360332 212.24852729 -19.32421875 209.1796875 C-19.94425781 208.963125 -20.56429687 208.7465625 -21.203125 208.5234375 C-23.11810428 212.09960363 -23.78963034 214.4179001 -23.203125 218.5234375 C-20.01481016 222.67790835 -16.32431271 225.39969279 -11.203125 226.5234375 C-0.99225661 227.60263497 6.7091754 226.17134493 15.796875 221.5234375 C25.42687749 216.62089078 35.31006369 216.76430056 45.609375 219.42578125 C48.90499956 220.56067157 51.795458 221.99280527 54.859375 223.6484375 C62.02228261 227.43778572 69.34046793 228.85215753 77.234375 226.4609375 C79.83902679 225.45192825 82.28846364 224.27603668 84.78515625 223.01953125 C95.76236773 217.56379141 105.05830287 216.10649832 116.9609375 219.49609375 C119.74157542 220.50340473 122.25014989 221.69901501 124.859375 223.0859375 C131.86790926 226.79237389 139.35303961 228.61619168 147.140625 226.5 C151.53175295 224.88561472 155.8009134 222.98244759 160.0378418 221.00024414 C166.12141544 218.19249835 171.44914179 217.38624046 178.171875 217.4609375 C179.76128906 217.47447266 179.76128906 217.47447266 181.3828125 217.48828125 C182.17945313 217.49988281 182.97609375 217.51148438 183.796875 217.5234375 C184.93001763 213.41860957 184.58015591 210.76393013 183.359375 206.7109375 C183.07191406 205.73511719 182.78445313 204.75929688 182.48828125 203.75390625 C182.26011719 203.01785156 182.03195312 202.28179687 181.796875 201.5234375 C173.46111365 200.81701705 167.40094367 203.28296272 159.796875 206.5234375 Z M183.796875 217.5234375 C183.508125 218.3278125 183.219375 219.1321875 182.921875 219.9609375 C181.796875 222.5234375 181.796875 222.5234375 179.796875 223.5234375 C177.86196413 223.79274431 175.92381027 224.03892296 173.984375 224.2734375 C167.85967727 225.17253772 162.58150322 226.9542154 156.8671875 229.28125 C143.16831782 234.82354079 134.30491341 233.60695302 120.796875 228.5234375 C119.12795456 227.75749601 117.46096133 226.9873256 115.796875 226.2109375 C107.71161779 223.00081067 99.21671861 222.91693218 91.23046875 226.28515625 C88.25778504 227.65313921 85.36482774 229.13896317 82.4765625 230.67578125 C73.16232722 235.57968431 63.91828402 233.6252403 54.26953125 230.74609375 C51.11378374 229.63501504 48.31722562 228.32068872 45.359375 226.7734375 C38.17483113 223.41224739 30.25699518 222.79327596 22.66113281 225.20019531 C19.1327523 226.55213219 15.73890702 228.11844561 12.35546875 229.796875 C3.7400651 233.97690619 -4.56363101 235.24895432 -13.8671875 232.40234375 C-16.13492458 231.51485906 -18.38826262 230.58915752 -20.62109375 229.6171875 C-23.0427005 228.39342118 -23.0427005 228.39342118 -25.203125 228.5234375 C-26.18700179 232.58192927 -26.24236823 236.35875005 -26.203125 240.5234375 C-23.97760242 241.67685448 -21.74816531 242.82124909 -19.515625 243.9609375 C-18.57686523 244.44916992 -18.57686523 244.44916992 -17.61914062 244.94726562 C-10.75010541 248.43572853 -3.36763445 250.08125674 4.1796875 247.8046875 C7.70328089 246.3997821 11.1203656 244.8685355 14.5 243.14453125 C24.73881776 238.23493421 36.06881279 237.51172762 46.859375 241.2734375 C48.5227139 241.98376916 50.17066017 242.73179827 51.796875 243.5234375 C52.55742187 243.89339844 53.31796875 244.26335937 54.1015625 244.64453125 C56.00418492 245.59584246 57.90095147 246.55884482 59.796875 247.5234375 C69.79495188 250.59355404 77.71682662 247.35865161 86.75390625 243.14453125 C96.85965318 238.77077395 107.70213443 237.16848039 118.234375 241.2734375 C119.76674747 241.99957016 121.28813882 242.74939024 122.796875 243.5234375 C124.41815061 244.26084812 126.04309213 244.99026047 127.671875 245.7109375 C128.37054688 246.03449219 129.06921875 246.35804688 129.7890625 246.69140625 C136.45573036 249.45405266 143.05142294 249.45714266 149.734375 246.7734375 C151.42566141 246.03201553 153.11310585 245.28177628 154.796875 244.5234375 C156.58478969 243.78511877 158.37641166 243.05570474 160.171875 242.3359375 C160.96335937 242.01238281 161.75484375 241.68882812 162.5703125 241.35546875 C166.10176149 240.03582202 169.36187059 239.39518772 173.125 239.20703125 C173.92421875 239.16513672 174.7234375 239.12324219 175.546875 239.08007812 C176.371875 239.04076172 177.196875 239.00144531 178.046875 238.9609375 C178.88734375 238.91775391 179.7278125 238.87457031 180.59375 238.83007812 C182.66128171 238.72435207 184.72905781 238.62342455 186.796875 238.5234375 C187.05956823 228.9640703 187.05956823 228.9640703 185.796875 219.5234375 C184.806875 218.5334375 184.806875 218.5334375 183.796875 217.5234375 Z M12.796875 252.5234375 C-2.84317022 258.46222825 -13.18279315 255.28152485 -28.203125 249.5234375 C-28.863125 252.8234375 -29.523125 256.1234375 -30.203125 259.5234375 C-11.62924985 268.53673393 -11.62924985 268.53673393 8.203125 266.51953125 C11.80001292 265.13819628 15.1788437 263.43215139 18.5703125 261.609375 C26.20717049 257.88473198 37.07127523 258.44902389 45.109375 260.7109375 C49.45550843 262.22736803 53.52005235 264.26065008 57.5703125 266.4375 C63.73045642 269.44192107 70.49062087 269.53514317 76.98828125 267.546875 C81.16945676 265.93759139 85.28741674 264.2548004 89.3203125 262.30078125 C98.32057393 258.12956374 108.32388197 257.9695185 117.671875 261.2734375 C119.3927833 261.99411594 121.10202879 262.74343807 122.796875 263.5234375 C124.05177734 264.07837891 124.05177734 264.07837891 125.33203125 264.64453125 C126.8360233 265.31215699 128.3345076 265.99249504 129.82421875 266.69140625 C136.45277522 269.48721324 143.08507912 269.44362718 149.734375 266.7734375 C151.42566141 266.03201553 153.11310585 265.28177628 154.796875 264.5234375 C156.58478969 263.78511877 158.37641166 263.05570474 160.171875 262.3359375 C160.96335937 262.01238281 161.75484375 261.68882812 162.5703125 261.35546875 C166.4807756 259.89419043 169.81756549 259.40146477 174 259.42578125 C174.9796875 259.42900391 175.959375 259.43222656 176.96875 259.43554688 C177.98453125 259.44392578 179.0003125 259.45230469 180.046875 259.4609375 C181.59375 259.46770508 181.59375 259.46770508 183.171875 259.47460938 C185.71356654 259.48637647 188.25522818 259.5043114 190.796875 259.5234375 C189.806875 253.5834375 189.806875 253.5834375 188.796875 247.5234375 C177.96478521 247.09015391 168.94600005 247.20928343 158.796875 251.5234375 C157.29912138 252.09189184 155.79934824 252.65507744 154.296875 253.2109375 C153.141875 253.6440625 151.986875 254.0771875 150.796875 254.5234375 C139.78429134 258.0087387 128.45734881 255.31524394 118.4609375 250.3671875 C110.58272895 246.70290445 101.1386606 245.45065355 92.73974609 248.19580078 C89.46687342 249.53983313 86.40949078 251.10855885 83.296875 252.796875 C75.36260785 256.71087732 67.4240856 257.68654525 58.91943359 254.91064453 C53.61215517 252.96755686 48.4146789 250.7385552 43.2890625 248.359375 C32.71846617 244.81375178 22.51719393 248.30653443 12.796875 252.5234375 Z M226 263.80078125 C224.06833984 264.20006836 224.06833984 264.20006836 222.09765625 264.60742188 C221.43330566 264.74752686 220.76895508 264.88763184 220.08447266 265.03198242 C218.04071392 265.46223453 215.9951625 265.88300963 213.94921875 266.30273438 C207.95726764 267.02298718 207.95726764 267.02298718 202.796875 269.5234375 C201.8912279 278.32505302 203.62106055 287.06924593 205.140625 295.70263672 C205.54574651 298.01699075 205.92997765 300.33416021 206.3125 302.65234375 C208.60416865 318.81507765 208.60416865 318.81507765 217.796875 331.5234375 C223.00379182 334.72328286 228.91279327 334.29943452 234.796875 333.5234375 C240.80415507 331.16004705 244.84807755 328.32409693 247.796875 322.5234375 C249.12285068 313.27795848 247.09689626 303.76042952 245.39819336 294.67553711 C244.98459698 292.46212545 244.58760567 290.24622873 244.19335938 288.02929688 C242.80898535 274.26882712 242.80898535 274.26882712 237.796875 262.5234375 C233.70784421 262.25117791 229.99624015 262.97272413 226 263.80078125 Z M13.796875 273.5234375 C0.08098627 279.53021856 -10.55846009 277.6631319 -24.203125 272.5234375 C-25.10546875 272.1934375 -26.0078125 271.8634375 -26.9375 271.5234375 C-28.6990744 270.87377885 -30.45256835 270.20222477 -32.203125 269.5234375 C-32.533125 272.8234375 -32.863125 276.1234375 -33.203125 279.5234375 C-32.45289063 279.82636719 -31.70265625 280.12929688 -30.9296875 280.44140625 C-29.90617187 280.86035156 -28.88265625 281.27929688 -27.828125 281.7109375 C-26.72339844 282.16210938 -25.61867188 282.61328125 -24.48046875 283.078125 C-21.62666384 284.33665637 -19.06981484 285.75462815 -16.390625 287.3359375 C-10.00435398 290.50873457 -3.15734447 291.03458988 3.796875 289.5234375 C8.44582433 287.89222721 12.77568826 285.6816825 17.1171875 283.37109375 C25.83258152 278.79457723 35.90506912 279.77834448 45.0859375 282.52734375 C48.75652344 283.87604608 52.17271078 285.57125597 55.60546875 287.4375 C61.45815345 290.33776087 68.4269358 290.73215462 74.796875 289.5234375 C78.07530411 288.40617594 81.20767125 287.01799192 84.359375 285.5859375 C96.48660241 280.10597121 105.94609979 279.2773741 118.796875 283.5234375 C121.50333299 284.71821303 124.09143651 285.99933176 126.67578125 287.4375 C132.6022703 290.47168776 139.32837199 290.44934648 145.796875 289.5234375 C150.65620633 287.87803758 155.22998641 285.62855552 159.828125 283.37109375 C168.44332499 279.19542561 177.49528971 279.63091171 186.45703125 282.58984375 C189.80757606 283.92670554 192.74697 285.60067131 195.796875 287.5234375 C195.48699883 285.27307464 195.17387682 283.02315856 194.859375 280.7734375 C194.68535156 279.52046875 194.51132812 278.2675 194.33203125 276.9765625 C193.93638162 274.42361157 193.49241078 272.0048084 192.796875 269.5234375 C178.53106949 267.89911311 167.40576083 269.53275744 153.984375 274.7109375 C140.95761067 279.60325436 129.55530959 276.63931546 117.171875 271.3359375 C109.76997671 268.23152137 103.66532363 266.84352627 95.91015625 269.51953125 C93.89715887 270.36420074 91.89698478 271.24002177 89.91015625 272.14453125 C76.70268074 277.99426633 66.49118774 278.96624888 52.796875 274.5234375 C49.87017271 273.30583998 47.0168461 272.00645902 44.171875 270.609375 C33.65923423 265.80260833 23.8213248 269.08138633 13.796875 273.5234375 Z M-36.203125 289.5234375 C-36.08842363 291.27414267 -35.96093472 293.02401286 -35.828125 294.7734375 C-35.75851563 295.74796875 -35.68890625 296.7225 -35.6171875 297.7265625 C-35.20404243 300.51724051 -34.89206567 302.26460888 -33.203125 304.5234375 C-20.29081608 307.92128231 -5.49488044 306.67256854 7.74536133 306.66870117 C9.81326863 306.6716995 11.88117539 306.67510356 13.94908142 306.67887878 C19.51840078 306.68764428 25.08770475 306.69005344 30.65703034 306.69069457 C34.13814785 306.69140814 37.6192615 306.69354803 41.10037804 306.69619179 C53.2470156 306.7054132 65.39364225 306.7095298 77.5402832 306.70874023 C88.86553444 306.70813697 100.19073842 306.71874552 111.51597768 306.7344839 C121.25126489 306.74753137 130.98653656 306.75292547 140.72183245 306.75228482 C146.5321553 306.75202946 152.34243589 306.75490334 158.15275002 306.76546288 C163.60211252 306.77509937 169.05139189 306.7752539 174.50075722 306.76794624 C176.50433981 306.76689555 178.50792747 306.76929173 180.51150131 306.7753067 C183.23606411 306.78296004 185.96033479 306.77842685 188.68489075 306.77067566 C189.48593241 306.77581922 190.28697407 306.78096279 191.11228973 306.78626221 C195.41861465 306.92065785 195.41861465 306.92065785 198.796875 304.5234375 C198.82063426 302.5302808 198.82063426 302.5302808 198.421875 300.3984375 C198.215625 299.1196875 198.009375 297.8409375 197.796875 296.5234375 C196.27793265 295.89385576 194.75660305 295.27003286 193.234375 294.6484375 C192.38746094 294.30039062 191.54054688 293.95234375 190.66796875 293.59375 C180.23406046 289.70410255 169.90227236 288.29307691 159.58789062 292.98266602 C157.68752464 293.92229663 155.81167838 294.89652243 153.94140625 295.89453125 C145.99733618 300.00965823 134.43321698 299.91214152 125.875 297.36328125 C122.99025259 296.19745288 120.22122587 294.81829717 117.421875 293.4609375 C109.66051388 289.7953524 102.79058301 288.46725309 94.390625 290.58203125 C91.66226258 291.57229532 89.12066249 292.81502741 86.53173828 294.12207031 C77.48713249 298.65700855 69.30414485 301.17794547 59.125 298.58984375 C53.93565112 296.80252509 48.99685275 294.63098402 44.046875 292.2734375 C35.16672625 288.26674055 26.80098716 289.28794451 17.796875 292.5234375 C15.8650536 293.53672257 13.94830236 294.57920667 12.046875 295.6484375 C4.04426873 299.8278091 -4.85861922 300.98214435 -13.609375 298.59375 C-16.58205971 297.38515849 -19.3792428 296.04496209 -22.203125 294.5234375 C-23.65987707 293.77037075 -25.11803498 293.02001183 -26.578125 292.2734375 C-27.19429687 291.95375 -27.81046875 291.6340625 -28.4453125 291.3046875 C-30.96661798 290.18410729 -33.47331138 289.79641886 -36.203125 289.5234375 Z M198.796875 307.5234375 C199.796875 309.5234375 199.796875 309.5234375 199.796875 309.5234375 Z " fill="#F4FDFD" transform="translate(152.203125,87.4765625)"/>
<path d="M0 0 C3.27380489 2.63327784 5.41484692 5.12677527 7 9 C7.33157269 13.75254185 6.65731177 17.14184296 3.75 20.9375 C0.0507373 23.71194703 -2.25985345 25.07404879 -6.9375 24.875 C-11.88509806 23.46140056 -15.14793054 21.2781042 -18 17 C-18.66036734 12.96133239 -18.89569891 8.81730647 -17.0546875 5.08203125 C-12.44455492 -0.78936402 -6.94585909 -2.19342919 0 0 Z M-8 9 C-8.33 10.65 -8.66 12.3 -9 14 C-6.03 14.495 -6.03 14.495 -3 15 C-3 13.02 -3 11.04 -3 9 C-4.65 9 -6.3 9 -8 9 Z " fill="#F4FDFC" transform="translate(386,387)"/>
<path d="M0 0 C0 0.66 0 1.32 0 2 C-31.68 1.505 -31.68 1.505 -64 1 C-65.00496852 4.01490557 -65.10335303 6.04181692 -65.0625 9.1875 C-65.04896484 10.53908203 -65.04896484 10.53908203 -65.03515625 11.91796875 C-65.02355469 12.60503906 -65.01195312 13.29210937 -65 14 C-65.66 14 -66.32 14 -67 14 C-68.57212151 10.85575698 -68.5179375 7.42208708 -68 4 C-66.85351562 1.40769958 -66.85351562 1.40769958 -65 -1 C-62.30566406 -1.6526947 -62.30566406 -1.6526947 -59.015625 -1.69116211 C-57.78424805 -1.71726059 -56.55287109 -1.74335907 -55.28417969 -1.77024841 C-53.93945483 -1.77344061 -52.59472774 -1.77578526 -51.25 -1.77734375 C-49.87139336 -1.79554175 -48.49281052 -1.81563366 -47.11425781 -1.83753967 C-44.22583363 -1.878327 -41.33790515 -1.90269931 -38.44921875 -1.91430664 C-34.74638502 -1.92956893 -31.04475188 -1.97537094 -27.34234619 -2.0321722 C-24.49599999 -2.07420269 -21.64962496 -2.1051712 -18.80310059 -2.13226509 C-17.43792365 -2.14561608 -16.07276676 -2.1612128 -14.7076416 -2.1790905 C-12.79997972 -2.20139339 -10.89215702 -2.2083507 -8.984375 -2.21459961 C-7.35580566 -2.22528725 -7.35580566 -2.22528725 -5.69433594 -2.2361908 C-3 -2 -3 -2 0 0 Z " fill="#DEFEFE" transform="translate(227,150)"/>
<path d="M0 0 C2.56269497 1.04109483 4.02610343 2.02610343 6 4 C6.53625 3.34 7.0725 2.68 7.625 2 C10 0 10 0 13.25 -0.25 C14.1575 -0.1675 15.065 -0.085 16 0 C15.67 0.66 15.34 1.32 15 2 C13.02 2 11.04 2 9 2 C8.67 3.98 8.34 5.96 8 8 C18.23 8 28.46 8 39 8 C39.33 7.01 39.66 6.02 40 5 C40.66 5.33 41.32 5.66 42 6 C41.34 7.32 40.68 8.64 40 10 C35.81910808 10.04961351 31.63837434 10.08582016 27.45727539 10.10986328 C26.03634657 10.11989146 24.61543822 10.13351741 23.19458008 10.15087891 C21.14659556 10.17526821 19.09888502 10.1865149 17.05078125 10.1953125 C15.82012939 10.20578613 14.58947754 10.21625977 13.3215332 10.22705078 C10.06190234 10.00423147 7.96278259 9.28384098 5 8 C2.6679198 7.92353835 0.33154122 7.90856701 -2 8 C-2 5.69 -2 3.38 -2 1 C-1.34 0.67 -0.68 0.34 0 0 Z " fill="#D9FEFE" transform="translate(240,185)"/>
<path d="M0 0 C-0.33 0.66 -0.66 1.32 -1 2 C-3.31 2 -5.62 2 -8 2 C-8.2165625 2.928125 -8.2165625 2.928125 -8.4375 3.875 C-9 6 -9 6 -10 8 C-9.35160156 7.67515625 -8.70320313 7.3503125 -8.03515625 7.015625 C-4.08867897 5.69505345 -0.56770652 5.7074571 3.5625 5.75 C4.69461914 5.73839844 4.69461914 5.73839844 5.84960938 5.7265625 C9.70313167 5.7401432 12.73842785 5.81985098 16 8 C15.34 8.33 14.68 8.66 14 9 C13.01 8.67 12.02 8.34 11 8 C0.34477503 6.78383943 -7.04837119 8.64822061 -16.5390625 13.37109375 C-19.47661542 14.75366663 -21.81183892 15.56636123 -25 16 C-24.67 15.34 -24.34 14.68 -24 14 C-21.4375 13.375 -21.4375 13.375 -19 13 C-19 11.35 -19 9.7 -19 8 C-19.99 7.67 -20.98 7.34 -22 7 C-19.46403185 5.81935925 -16.92240778 4.65547919 -14.375 3.5 C-13.66214844 3.16613281 -12.94929687 2.83226562 -12.21484375 2.48828125 C-7.96391129 0.57731161 -4.76178423 -0.42059924 0 0 Z " fill="#E7FEFD" transform="translate(181,305)"/>
<path d="M0 0 C1.32 0 2.64 0 4 0 C4 5.61 4 11.22 4 17 C4.66 17 5.32 17 6 17 C6 19.64 6 22.28 6 25 C3.69 25.33 1.38 25.66 -1 26 C-0.67 17.42 -0.34 8.84 0 0 Z " fill="#FAFDFD" transform="translate(229,188)"/>
<path d="M0 0 C0.66 0 1.32 0 2 0 C1.41196203 3.02419525 0.77321882 6.01758453 0 9 C0.99 8.67 1.98 8.34 3 8 C4.12862175 13.36095333 4.09688221 18.55306686 4 24 C3.67 24 3.34 24 3 24 C2.67 20.04 2.34 16.08 2 12 C1.071875 12.515625 0.14375 13.03125 -0.8125 13.5625 C-4 15 -4 15 -7 14 C-5.68 13.67 -4.36 13.34 -3 13 C-3.66 12.34 -4.32 11.68 -5 11 C-5 10.01 -5 9.02 -5 8 C-10.3086849 8.58174845 -10.3086849 8.58174845 -15 11 C-17.6875 11.125 -17.6875 11.125 -20 11 C-13.89883116 5.87501818 -7.73358411 4.50855769 0 4 C0 2.68 0 1.36 0 0 Z " fill="#E1FEFE" transform="translate(327,256)"/>
<path d="M0 0 C0.75 1.75 0.75 1.75 1 4 C-1.04971039 6.8788646 -2.44450974 7.86075109 -5.8828125 8.72265625 C-6.95273437 8.83480469 -8.02265625 8.94695312 -9.125 9.0625 C-15.00698544 9.80024055 -20.39318558 11.10153011 -26 13 C-24.69921875 11.015625 -24.69921875 11.015625 -23 9 C-19.8125 8.75 -19.8125 8.75 -17 9 C-17 8.34 -17 7.68 -17 7 C-16.09636719 6.98582031 -15.19273437 6.97164063 -14.26171875 6.95703125 C-12.49248047 6.88548828 -12.49248047 6.88548828 -10.6875 6.8125 C-9.51574219 6.77769531 -8.34398437 6.74289062 -7.13671875 6.70703125 C-3.80318285 6.31136947 -3.80318285 6.31136947 -2.08203125 3.44921875 C-1.72496094 2.64097656 -1.36789062 1.83273437 -1 1 C-3.97 1 -6.94 1 -10 1 C-10.66 2.32 -11.32 3.64 -12 5 C-12 4.34 -12 3.68 -12 3 C-15.96 3.66 -19.92 4.32 -24 5 C-16.67205228 -0.49596079 -8.91695919 -0.30000984 0 0 Z " fill="#DAFEFE" transform="translate(335,304)"/>
<path d="M0 0 C0.66 0 1.32 0 2 0 C2.17736336 5.46975919 1.52984531 10.41907064 0.46875 15.77734375 C0.31337769 16.58869278 0.15800537 17.40004181 -0.0020752 18.23597717 C-0.49534533 20.80435969 -0.99752068 23.37090502 -1.5 25.9375 C-1.83783144 27.68803692 -2.175077 29.43868702 -2.51171875 31.18945312 C-3.33437557 35.4609742 -4.16501853 39.73087174 -5 44 C-5.33 44 -5.66 44 -6 44 C-6.02687279 42.18757948 -6.04633715 40.37504767 -6.0625 38.5625 C-6.07410156 37.55316406 -6.08570312 36.54382813 -6.09765625 35.50390625 C-6 33 -6 33 -5 32 C-4.81296346 30.33745302 -4.67609655 28.66917374 -4.5625 27 C-3.44790185 13.44790185 -3.44790185 13.44790185 -1 11 C-0.76636119 9.15108054 -0.58696365 7.29511969 -0.4375 5.4375 C-0.35371094 4.42558594 -0.26992187 3.41367188 -0.18359375 2.37109375 C-0.12300781 1.58863281 -0.06242187 0.80617187 0 0 Z " fill="#D6FFFE" transform="translate(103,228)"/>
<path d="M0 0 C0.66 0.33 1.32 0.66 2 1 C-3.40456824 5.61564637 -7.83357724 5.46322226 -14.75 5.1875 C-21.93562814 4.98515745 -28.85937508 5.10207128 -36 6 C-29.27246857 1.51497905 -21.5195421 1.65114852 -13.6875 1.4375 C-11.73295018 1.37757577 -9.77850956 1.31394183 -7.82421875 1.24609375 C-6.96916748 1.22216553 -6.11411621 1.1982373 -5.2331543 1.17358398 C-2.82869654 1.07720828 -2.82869654 1.07720828 0 0 Z " fill="#DCFEFE" transform="translate(151,183)"/>
<path d="M0 0 C3.3 0 6.6 0 10 0 C10 0.99 10 1.98 10 3 C10.66 3 11.32 3 12 3 C13.625 4.5 13.625 4.5 15 6 C14.67 6.99 14.34 7.98 14 9 C14 8.34 14 7.68 14 7 C6.84962897 7.93372543 0.53677107 9.28170516 -6.0390625 12.29296875 C-7.00972656 12.64294922 -7.00972656 12.64294922 -8 13 C-8.66 12.67 -9.32 12.34 -10 12 C-9.01 11.67 -8.02 11.34 -7 11 C-6.67 10.01 -6.34 9.02 -6 8 C-5.175 7.87625 -4.35 7.7525 -3.5 7.625 C0.39772067 6.92897845 4.16739669 5.99119051 8 5 C8 3.68 8 2.36 8 1 C5.36 1 2.72 1 0 1 C0 0.67 0 0.34 0 0 Z " fill="#E2FEFE" transform="translate(320,282)"/>
<path d="M0 0 C0.33 0 0.66 0 1 0 C1.66 4.62 2.32 9.24 3 14 C4.66289062 13.71125 6.32578125 13.4225 8.0390625 13.125 C10.23433065 12.74974049 12.42964564 12.37475484 14.625 12 C15.71941406 11.80921875 16.81382812 11.6184375 17.94140625 11.421875 C19.00488281 11.24140625 20.06835938 11.0609375 21.1640625 10.875 C22.13811035 10.70742188 23.1121582 10.53984375 24.11572266 10.3671875 C27.10804756 9.98624483 29.98685417 9.93747038 33 10 C33 10.33 33 10.66 33 11 C31.35 11 29.7 11 28 11 C28 11.66 28 12.32 28 13 C6.76445144 15.95084546 6.76445144 15.95084546 2 15 C-0.35119399 11.47320901 -0.21443452 9.97120515 -0.125 5.8125 C-0.10695313 4.72582031 -0.08890625 3.63914062 -0.0703125 2.51953125 C-0.04710937 1.68808594 -0.02390625 0.85664063 0 0 Z " fill="#DAFEFE" transform="translate(349,334)"/>
<path d="M0 0 C0.33 0 0.66 0 1 0 C1.71626282 4.19851931 2.42821704 8.39773988 3.13623047 12.59765625 C3.37756682 14.02558999 3.62006848 15.45332731 3.86376953 16.88085938 C4.2143498 18.93568902 4.56069948 20.99119431 4.90625 23.046875 C5.11572266 24.28276367 5.32519531 25.51865234 5.54101562 26.79199219 C6 30 6 30 6 34 C5.34 34 4.68 34 4 34 C3.77213542 32.01432292 3.54427083 30.02864583 3.31640625 28.04296875 C3.02829265 25.80603607 3.02829265 25.80603607 2 23 C1.69996736 20.42888697 1.49338587 17.85706744 1.28125 15.27734375 C1.12535436 12.97219745 1.12535436 12.97219745 0 11 C-0.07033769 9.12620395 -0.0843022 7.24998898 -0.0625 5.375 C-0.05347656 4.37210937 -0.04445313 3.36921875 -0.03515625 2.3359375 C-0.02355469 1.56507812 -0.01195312 0.79421875 0 0 Z " fill="#DCFEFE" transform="translate(303,115)"/>
<path d="M0 0 C0.74958984 0.05220703 1.49917969 0.10441406 2.27148438 0.15820312 C4.11887082 0.28763784 5.96574371 0.42436518 7.8125 0.5625 C7.8125 1.2225 7.8125 1.8825 7.8125 2.5625 C6.73935547 2.51029297 6.73935547 2.51029297 5.64453125 2.45703125 C-1.46505864 2.26388586 -7.61221487 3.13287678 -14.47265625 5.00390625 C-17.1875 5.5625 -17.1875 5.5625 -20.1875 4.5625 C-19.5275 4.5625 -18.8675 4.5625 -18.1875 4.5625 C-18.1875 3.9025 -18.1875 3.2425 -18.1875 2.5625 C-15.8775 2.5625 -13.5675 2.5625 -11.1875 2.5625 C-11.1875 1.9025 -11.1875 1.2425 -11.1875 0.5625 C-7.35939179 -0.71353607 -3.95274893 -0.30033987 0 0 Z " fill="#DFFEFE" transform="translate(332.1875,354.4375)"/>
<path d="M0 0 C0.33 0 0.66 0 1 0 C0.43779003 7.67102183 -0.62314436 15.13469742 -2.0625 22.6875 C-2.24876953 23.68716797 -2.43503906 24.68683594 -2.62695312 25.71679688 C-3.08013987 28.14541301 -3.53786592 30.57307351 -4 33 C-4.33 33 -4.66 33 -5 33 C-5.02686553 31.02090602 -5.04633375 29.04171029 -5.0625 27.0625 C-5.07410156 25.96035156 -5.08570312 24.85820312 -5.09765625 23.72265625 C-5 21 -5 21 -4 20 C-3.71681717 18.60187743 -3.4865614 17.19291089 -3.28125 15.78125 C-3.15363281 14.93175781 -3.02601562 14.08226562 -2.89453125 13.20703125 C-2.69923828 11.86705078 -2.69923828 11.86705078 -2.5 10.5 C-2.24335071 8.73903015 -1.98312456 6.97857663 -1.71875 5.21875 C-1.60466797 4.43435547 -1.49058594 3.64996094 -1.37304688 2.84179688 C-1 1 -1 1 0 0 Z " fill="#DFFEFE" transform="translate(82,351)"/>
<path d="M0 0 C1.2065625 0.0309375 1.2065625 0.0309375 2.4375 0.0625 C-2.99125212 5.49125212 -11.34047118 5.02108928 -18.5625 5.0625 C-21.15793437 4.65593671 -23.11911663 4.05148851 -25.5625 3.0625 C-25.5625 2.7325 -25.5625 2.4025 -25.5625 2.0625 C-24.57068726 2.02491577 -24.57068726 2.02491577 -23.55883789 1.98657227 C-20.58067695 1.87096898 -17.6028608 1.74808246 -14.625 1.625 C-13.06362305 1.56602539 -13.06362305 1.56602539 -11.47070312 1.50585938 C-9.98666992 1.44301758 -9.98666992 1.44301758 -8.47265625 1.37890625 C-7.09799194 1.32391968 -7.09799194 1.32391968 -5.69555664 1.26782227 C-2.95808935 1.00432106 -2.8995934 0.07072179 0 0 Z " fill="#E0FEFE" transform="translate(233.5625,382.9375)"/>
<path d="M0 0 C0.99 0.33 1.98 0.66 3 1 C2.19074658 3.14705981 1.37750887 5.2926183 0.5625 7.4375 C-0.11619141 9.22994141 -0.11619141 9.22994141 -0.80859375 11.05859375 C-2 14 -2 14 -3 15 C-6 15.125 -6 15.125 -9 15 C-10 14 -10 14 -10.09765625 11.93359375 C-10.08605469 11.10988281 -10.07445312 10.28617188 -10.0625 9.4375 C-10.05347656 8.61121094 -10.04445312 7.78492187 -10.03515625 6.93359375 C-10.02355469 6.29550781 -10.01195312 5.65742187 -10 5 C-9.67 5 -9.34 5 -9 5 C-9 7.64 -9 10.28 -9 13 C-7.35 13 -5.7 13 -4 13 C-3.87882813 12.39671875 -3.75765625 11.7934375 -3.6328125 11.171875 C-3.38144531 9.97304687 -3.38144531 9.97304687 -3.125 8.75 C-2.96257812 7.96109375 -2.80015625 7.1721875 -2.6328125 6.359375 C-2.00849925 4.03168856 -1.15161458 2.10968048 0 0 Z " fill="#D4FEFE" transform="translate(191,98)"/>
<path d="M0 0 C0.33 0.66 0.66 1.32 1 2 C0.278125 2.70125 -0.44375 3.4025 -1.1875 4.125 C-1.86619141 4.82109375 -1.86619141 4.82109375 -2.55859375 5.53125 C-3.92651324 6.92511919 -5.33731143 8.27652455 -6.75 9.625 C-10.18240592 13.7137594 -9.89987791 18.88467141 -10 24 C-10.33 24 -10.66 24 -11 24 C-12.06528282 12.90753123 -12.06528282 12.90753123 -9.58203125 8.4609375 C-6.69583407 5.17473432 -3.5260655 2.57433986 0 0 Z " fill="#E8FEFE" transform="translate(193,87)"/>
<path d="M0 0 C0.33 0 0.66 0 1 0 C1.05460198 1.8746679 1.09306244 3.74980905 1.125 5.625 C1.14820312 6.66914063 1.17140625 7.71328125 1.1953125 8.7890625 C0.98740118 12.20712456 0.11859743 14.77580741 -1 18 C-1.42497905 20.45018787 -1.79938632 22.90963927 -2.125 25.375 C-2.29257813 26.62023437 -2.46015625 27.86546875 -2.6328125 29.1484375 C-2.75398438 30.08945312 -2.87515625 31.03046875 -3 32 C-3.66 32 -4.32 32 -5 32 C-4.39969169 24.69808624 -3.29701918 17.57132416 -1.9375 10.375 C-1.75123047 9.37082031 -1.56496094 8.36664063 -1.37304688 7.33203125 C-0.91902767 4.88731245 -0.46129456 2.44335452 0 0 Z " fill="#D6FEFE" transform="translate(78,320)"/>
<path d="M0 0 C0.52464844 0.28875 1.04929687 0.5775 1.58984375 0.875 C-1.76566096 1.98129086 -2.29323568 1.9247995 -5.78515625 0.4375 C-11.69708014 -2.01925775 -18.12196401 -1.56867164 -24.41015625 -1.125 C-24.74015625 -0.795 -25.07015625 -0.465 -25.41015625 -0.125 C-27.0763274 -0.08436168 -28.7440372 -0.082279 -30.41015625 -0.125 C-23.73013122 -6.80502503 -7.63594325 -3.65915417 0 0 Z " fill="#DEFEFE" transform="translate(273.41015625,285.125)"/>
<path d="M0 0 C7.59 0 15.18 0 23 0 C20.12230698 2.87769302 17.05637836 2.53640209 13.1875 2.75 C12.47529297 2.80542969 11.76308594 2.86085938 11.02929688 2.91796875 C6.83105779 3.17429047 3.7625034 2.92190744 0 1 C0 0.67 0 0.34 0 0 Z " fill="#E0FEFE" transform="translate(137,385)"/>
<path d="M0 0 C0 0.66 0 1.32 0 2 C-0.81726563 1.84660156 -1.63453125 1.69320313 -2.4765625 1.53515625 C-6.44624772 0.9322218 -10.36946033 0.65842036 -14.375 0.4375 C-15.11105469 0.39431641 -15.84710938 0.35113281 -16.60546875 0.30664062 C-18.40348068 0.20156201 -20.20171958 0.10037907 -22 0 C-21.67 -0.66 -21.34 -1.32 -21 -2 C-13.33732954 -3.49652742 -7.0151231 -3.43878583 0 0 Z " fill="#DEFEFE" transform="translate(269,335)"/>
<path d="M0 0 C0.66 0 1.32 0 2 0 C3 6.75 3 6.75 3 9 C3.66 9 4.32 9 5 9 C4.95875 10.19625 4.9175 11.3925 4.875 12.625 C4.86148292 16.42329953 5.57990247 19.44975618 7 23 C3.49056899 20.32519012 2.82547501 16.70843232 1.8125 12.625 C1.63525391 11.965 1.45800781 11.305 1.27539062 10.625 C0.34333436 7.01193247 -0.20886724 3.73080099 0 0 Z " fill="#DDFEFE" transform="translate(299,139)"/>
<path d="M0 0 C1.09651823 3.41139003 0.94215473 6.20655581 0.5625 9.75 C0.40974609 11.22726563 0.40974609 11.22726563 0.25390625 12.734375 C0.12822266 13.85585937 0.12822266 13.85585937 0 15 C1.32 15 2.64 15 4 15 C4 14.01 4 13.02 4 12 C4.66 12 5.32 12 6 12 C5.67 13.65 5.34 15.3 5 17 C3.02 17 1.04 17 -1 17 C-3.13636877 12.72726247 -2.28095666 7.4606363 -1 3 C-0.67 2.01 -0.34 1.02 0 0 Z " fill="#D7FEFF" transform="translate(111,96)"/>
<path d="M0 0 C1.051875 0.309375 2.10375 0.61875 3.1875 0.9375 C8.18965383 2.22402517 13.19642735 2.42004259 18.33984375 2.65625 C19.21769531 2.7696875 20.09554688 2.883125 21 3 C21.33 3.66 21.66 4.32 22 5 C6.07061503 5.738041 6.07061503 5.738041 0 1 C0 0.67 0 0.34 0 0 Z " fill="#DEFEFE" transform="translate(277,374)"/>
<path d="M0 0 C0 0.33 0 0.66 0 1 C-2.31 1 -4.62 1 -7 1 C-7.33 1.99 -7.66 2.98 -8 4 C-9.5234375 5.640625 -9.5234375 5.640625 -11.375 7.25 C-11.98085938 7.79140625 -12.58671875 8.3328125 -13.2109375 8.890625 C-13.80132812 9.25671875 -14.39171875 9.6228125 -15 10 C-15.99 9.67 -16.98 9.34 -18 9 C-16.75645114 7.70212134 -15.5048736 6.41193241 -14.25 5.125 C-13.55390625 4.40570313 -12.8578125 3.68640625 -12.140625 2.9453125 C-7.91390262 -0.89576003 -5.57280276 -1.26654608 0 0 Z " fill="#DCFEFE" transform="translate(297,96)"/>
<path d="M0 0 C2 0 2 0 4.125 1.625 C6.47736015 4.60465619 6.33663062 6.29706315 6 10 C7.32 10.66 8.64 11.32 10 12 C9.34 12 8.68 12 8 12 C8 14.31 8 16.62 8 19 C6.29810232 15.71494168 4.85567768 12.35382654 3.4375 8.9375 C3.00308594 7.89464844 2.56867188 6.85179688 2.12109375 5.77734375 C1.35320395 3.87501048 0.64873158 1.94619474 0 0 Z " fill="#E2FEFE" transform="translate(385,114)"/>
<path d="M0 0 C1.01058283 3.23537338 0.99200982 5.82985606 0.625 9.1875 C0.53476563 10.06792969 0.44453125 10.94835937 0.3515625 11.85546875 C0 14 0 14 -1 15 C-1.23287008 16.68183948 -1.41264166 18.3712416 -1.5625 20.0625 C-1.68818359 21.44115234 -1.68818359 21.44115234 -1.81640625 22.84765625 C-1.87699219 23.55792969 -1.93757813 24.26820313 -2 25 C-2.66 25 -3.32 25 -4 25 C-3.55046968 16.39691968 -2.13898002 8.34067679 0 0 Z " fill="#DAFEFE" transform="translate(99,207)"/>
<path d="M0 0 C1.2375 0.33 2.475 0.66 3.75 1 C9.49772546 2.30171773 15.1373892 2.17855667 21 2 C20.67 2.66 20.34 3.32 20 4 C11.585 4.495 11.585 4.495 3 5 C2.67 4.01 2.34 3.02 2 2 C1.34 2 0.68 2 0 2 C0 1.34 0 0.68 0 0 Z " fill="#DEFEFE" transform="translate(136,353)"/>
<path d="M0 0 C-8.02443051 2.93055221 -14.52487174 4.76007178 -23 3 C-23 2.67 -23 2.34 -23 2 C-22.13117188 1.95101563 -21.26234375 1.90203125 -20.3671875 1.8515625 C-19.21476563 1.77679688 -18.06234375 1.70203125 -16.875 1.625 C-15.16957031 1.52058594 -15.16957031 1.52058594 -13.4296875 1.4140625 C-9.98723679 1.12125408 -9.98723679 1.12125408 -6.8203125 -0.1015625 C-3.9381069 -1.01971664 -2.76848116 -1.06480044 0 0 Z " fill="#E1FEFF" transform="translate(237,341)"/>
<path d="M0 0 C9.47604492 -0.42324766 17.39840919 -0.63162582 26 4 C26 4.33 26 4.66 26 5 C22.78440818 5.28372869 21.18669111 5.10202886 18.3125 3.53125 C14.53583446 1.78543291 11.21073175 1.45106648 7.125 1.3125 C6.43664062 1.27833984 5.74828125 1.24417969 5.0390625 1.20898438 C3.35991387 1.12735909 1.67998832 1.0619843 0 1 C0 0.67 0 0.34 0 0 Z " fill="#D7FEFE" transform="translate(249,326)"/>
<path d="M0 0 C2.31 0 4.62 0 7 0 C7 2.64 7 5.28 7 8 C4.36 8.33 1.72 8.66 -1 9 C-1.125 2.25 -1.125 2.25 0 0 Z M1 1 C0.67 2.65 0.34 4.3 0 6 C2.97 6.495 2.97 6.495 6 7 C6 5.02 6 3.04 6 1 C4.35 1 2.7 1 1 1 Z " fill="#DFFFFE" transform="translate(377,395)"/>
<path d="M0 0 C0.33 0 0.66 0 1 0 C0.97679688 1.25296875 0.95359375 2.5059375 0.9296875 3.796875 C0.91092573 5.4479107 0.89272597 7.09895285 0.875 8.75 C0.85824219 9.575 0.84148437 10.4 0.82421875 11.25 C0.81777344 12.04921875 0.81132813 12.8484375 0.8046875 13.671875 C0.79421387 14.4050293 0.78374023 15.13818359 0.77294922 15.89355469 C1.03222456 18.29896076 1.80774075 19.91251494 3 22 C1.68 21.67 0.36 21.34 -1 21 C-1.02888146 17.68751813 -1.04675799 14.37506833 -1.0625 11.0625 C-1.07087891 10.11697266 -1.07925781 9.17144531 -1.08789062 8.19726562 C-1.09111328 7.29814453 -1.09433594 6.39902344 -1.09765625 5.47265625 C-1.10289307 4.64000244 -1.10812988 3.80734863 -1.11352539 2.94946289 C-1 1 -1 1 0 0 Z " fill="#DCFFFE" transform="translate(74,395)"/>
<path d="M0 0 C1.31504983 3.94514948 0.64988195 7.33954398 0.125 11.375 C0.03347656 12.13039063 -0.05804688 12.88578125 -0.15234375 13.6640625 C-0.62594804 17.47957873 -1.17630633 21.24096159 -2 25 C-2.33 25 -2.66 25 -3 25 C-3.02687279 23.18757948 -3.04633715 21.37504767 -3.0625 19.5625 C-3.07410156 18.55316406 -3.08570312 17.54382813 -3.09765625 16.50390625 C-3 14 -3 14 -2 13 C-1.79103683 11.19188816 -1.63219639 9.37783968 -1.5 7.5625 C-1.10992366 2.21984733 -1.10992366 2.21984733 0 0 Z " fill="#E6FEFF" transform="translate(100,247)"/>
<path d="M0 0 C0 0.66 0 1.32 0 2 C-3.22134896 3.87021445 -5.92811526 4.38357821 -9.625 4.6875 C-10.58664062 4.77386719 -11.54828125 4.86023438 -12.5390625 4.94921875 C-15 5 -15 5 -17 4 C-17 3.34 -17 2.68 -17 2 C-16.16855469 1.93941406 -15.33710938 1.87882813 -14.48046875 1.81640625 C-12.85044922 1.69072266 -12.85044922 1.69072266 -11.1875 1.5625 C-10.10855469 1.48128906 -9.02960938 1.40007812 -7.91796875 1.31640625 C-5.15209182 1.01649188 -2.75597229 0 0 0 Z " fill="#E0FEFE" transform="translate(300,225)"/>
<path d="M0 0 C1.65 0 3.3 0 5 0 C4.01 0.495 4.01 0.495 3 1 C3 4.3 3 7.6 3 11 C2.67 11 2.34 11 2 11 C1.67 9.35 1.34 7.7 1 6 C-1.31 5.34 -3.62 4.68 -6 4 C-6 3.67 -6 3.34 -6 3 C-4.02 3 -2.04 3 0 3 C0 2.01 0 1.02 0 0 Z " fill="#DFFBFB" transform="translate(348,378)"/>
<path d="M0 0 C1.32 0 2.64 0 4 0 C3.979375 0.969375 3.95875 1.93875 3.9375 2.9375 C3.64381501 5.87465895 3.64381501 5.87465895 5 7 C5.07244053 9.01964199 5.08377188 11.04167124 5.0625 13.0625 C5.05347656 14.16722656 5.04445313 15.27195312 5.03515625 16.41015625 C5.02355469 17.26480469 5.01195312 18.11945313 5 19 C4.67 19 4.34 19 4 19 C3.69255859 17.31970703 3.69255859 17.31970703 3.37890625 15.60546875 C3.10688311 14.13279176 2.83474151 12.66013664 2.5625 11.1875 C2.36043945 10.08051758 2.36043945 10.08051758 2.15429688 8.95117188 C1.58580263 5.88684924 0.98690349 2.96071047 0 0 Z " fill="#D8FEFE" transform="translate(390,350)"/>
<path d="M0 0 C3 0.25 3 0.25 5 2.25 C4.625 4.375 4.625 4.375 4 6.25 C4.66 6.58 5.32 6.91 6 7.25 C4.02 8.24 4.02 8.24 2 9.25 C2 7.27 2 5.29 2 3.25 C-0.31 2.92 -2.62 2.59 -5 2.25 C-3 0.25 -3 0.25 0 0 Z " fill="#E4FEFE" transform="translate(314,218.75)"/>
<path d="M0 0 C0 0.66 0 1.32 0 2 C-3.79163027 4.52775351 -6.80874031 4.22443035 -11.1875 4.125 C-11.93708984 4.11597656 -12.68667969 4.10695313 -13.45898438 4.09765625 C-15.30612654 4.07412578 -17.15310412 4.03825561 -19 4 C-19.33 3.34 -19.66 2.68 -20 2 C-19.20335937 2.02320313 -18.40671875 2.04640625 -17.5859375 2.0703125 C-11.4383842 2.17501535 -5.76522715 0 0 0 Z " fill="#DEFEFE" transform="translate(162,333)"/>
<path d="M0 0 C0.66 0.33 1.32 0.66 2 1 C-0.64 2.65 -3.28 4.3 -6 6 C-6 5.34 -6 4.68 -6 4 C-10.62 4 -15.24 4 -20 4 C-20 3.67 -20 3.34 -20 3 C-18.46279297 2.92652344 -18.46279297 2.92652344 -16.89453125 2.8515625 C-15.5338294 2.77648929 -14.17315356 2.70094345 -12.8125 2.625 C-12.13896484 2.5940625 -11.46542969 2.563125 -10.77148438 2.53125 C-6.76528217 2.2967406 -3.67525321 1.54535327 0 0 Z " fill="#D8FEFE" transform="translate(161,374)"/>
<path d="M0 0 C-0.33 0.66 -0.66 1.32 -1 2 C-3.31 2 -5.62 2 -8 2 C-8 2.99 -8 3.98 -8 5 C-10.31 5 -12.62 5 -15 5 C-10.14488244 1.04397828 -6.28074033 -0.29212746 0 0 Z " fill="#DEFFFE" transform="translate(181,305)"/>
<path d="M0 0 C0.33 0 0.66 0 1 0 C0.85786703 1.89611434 0.71113093 3.79188394 0.5625 5.6875 C0.48128906 6.74324219 0.40007812 7.79898437 0.31640625 8.88671875 C0.03548319 11.65086297 -0.40156852 14.28945741 -1 17 C-1.33 17 -1.66 17 -2 17 C-2 12.38 -2 7.76 -2 3 C-1.34 3 -0.68 3 0 3 C0 2.01 0 1.02 0 0 Z " fill="#DCFFFF" transform="translate(89,311)"/>
<path d="M0 0 C2.97 0 5.94 0 9 0 C9 0.33 9 0.66 9 1 C7.205625 1.4021875 7.205625 1.4021875 5.375 1.8125 C1.61522466 2.7391113 -1.56454015 4.20047341 -5 6 C-5.66 6 -6.32 6 -7 6 C-7 5.01 -7 4.02 -7 3 C-3.535 2.505 -3.535 2.505 0 2 C0 1.34 0 0.68 0 0 Z " fill="#E2FEFF" transform="translate(243,377)"/>
<path d="M0 0 C2.0839403 0.11443603 4.16716493 0.24195547 6.25 0.375 C7.41015625 0.44460938 8.5703125 0.51421875 9.765625 0.5859375 C12.70694334 0.96248308 14.49949011 1.4774123 17 3 C5.47835991 3.3690205 5.47835991 3.3690205 0 1 C0 0.67 0 0.34 0 0 Z " fill="#D9FEFE" transform="translate(181,304)"/>
<path d="M0 0 C6.435 2.97 6.435 2.97 13 6 C13 6.33 13 6.66 13 7 C9.05272412 7.17942163 6.4019487 7.09350689 3 5 C3 4.34 3 3.68 3 3 C2.01 2.67 1.02 2.34 0 2 C0 1.34 0 0.68 0 0 Z " fill="#DCFEFE" transform="translate(127,328)"/>
<path d="M0 0 C0.66 0 1.32 0 2 0 C2.5625 1.9375 2.5625 1.9375 3 4 C2.67 4.33 2.34 4.66 2 5 C1.92820036 6.51928038 1.91607993 8.04167482 1.9375 9.5625 C1.94652344 10.38878906 1.95554687 11.21507812 1.96484375 12.06640625 C1.97644531 12.70449219 1.98804688 13.34257812 2 14 C1.67 14 1.34 14 1 14 C0.63659714 12.23103898 0.28459117 10.45973374 -0.0625 8.6875 C-0.25972656 7.70136719 -0.45695312 6.71523438 -0.66015625 5.69921875 C-1 3 -1 3 0 0 Z " fill="#E4FEFE" transform="translate(337,300)"/>
<path d="M0 0 C1.14926266 0.95421808 2.29430541 1.91352045 3.4375 2.875 C4.07558594 3.40867188 4.71367187 3.94234375 5.37109375 4.4921875 C7 6 7 6 8 8 C6.68 8.33 5.36 8.66 4 9 C3.67 7.35 3.34 5.7 3 4 C2.01 3.67 1.02 3.34 0 3 C0 2.01 0 1.02 0 0 Z " fill="#E3FEFC" transform="translate(287,181)"/>
<path d="M0 0 C4.29 0.99 8.58 1.98 13 3 C13 3.66 13 4.32 13 5 C7.85611138 4.56407724 4.24514783 4.18386087 0 1 C0 0.67 0 0.34 0 0 Z " fill="#E3FEFE" transform="translate(200,232)"/>
<path d="M0 0 C3.63 0 7.26 0 11 0 C11 0.66 11 1.32 11 2 C11.66 2 12.32 2 13 2 C13 2.66 13 3.32 13 4 C8.71 3.01 4.42 2.02 0 1 C0 0.67 0 0.34 0 0 Z " fill="#DCFEFE" transform="translate(186,377)"/>
<path d="M0 0 C4.75481646 0.57634139 7.97048212 2.55068521 12 5 C9.44345185 5.95582656 8.39658231 6.17802782 5.859375 5.0390625 C5.16328125 4.57242187 4.4671875 4.10578125 3.75 3.625 C3.04359375 3.16351563 2.3371875 2.70203125 1.609375 2.2265625 C1.07828125 1.82179688 0.5471875 1.41703125 0 1 C0 0.67 0 0.34 0 0 Z " fill="#DEFEFE" transform="translate(198,307)"/>
<path d="M0 0 C2.61724095 2.36797991 4.32861729 4.89600354 6 8 C6 8.66 6 9.32 6 10 C3.54896452 9.01958581 2.23241214 8.3486182 0.75 6.125 C0 4 0 4 0 0 Z " fill="#E1FEFE" transform="translate(277,166)"/>
<path d="M0 0 C0.66 0 1.32 0 2 0 C2 0.66 2 1.32 2 2 C3.32 1.67 4.64 1.34 6 1 C6 2.32 6 3.64 6 5 C6.99 5.33 7.98 5.66 9 6 C8.01 6.495 8.01 6.495 7 7 C1.125 3.375 1.125 3.375 0 0 Z " fill="#DCFEFD" transform="translate(369,404)"/>
<path d="M0 0 C0.99 0.33 1.98 0.66 3 1 C2.34 1 1.68 1 1 1 C1.33 1.99 1.66 2.98 2 4 C2.03954234 6.33299825 2.04401732 8.66708189 2 11 C1.34 10.67 0.68 10.34 0 10 C-1.11421833 6.35346727 -0.94296589 3.66708957 0 0 Z " fill="#DAFEFE" transform="translate(115,376)"/>
<path d="M0 0 C4.08718695 -0.24042276 7.17679443 0.57741188 11 2 C11 2.66 11 3.32 11 4 C9.53984709 3.71758359 8.08190207 3.42373386 6.625 3.125 C5.81289062 2.96257812 5.00078125 2.80015625 4.1640625 2.6328125 C2 2 2 2 0 0 Z " fill="#DEFEFF" transform="translate(203,361)"/>
<path d="M0 0 C1.875 0.3125 1.875 0.3125 4 1 C4.66 1.99 5.32 2.98 6 4 C4.02 4 2.04 4 0 4 C0 2.68 0 1.36 0 0 Z " fill="#FAFDFC" transform="translate(239,187)"/>
<path d="M0 0 C0.66 0.33 1.32 0.66 2 1 C0.68 2.32 -0.64 3.64 -2 5 C-3.32 4.34 -4.64 3.68 -6 3 C-4.03533587 1.93224776 -2.03144641 0.93446535 0 0 Z " fill="#E2FEFD" transform="translate(307,351)"/>
<path d="M0 0 C4.95 1.98 4.95 1.98 10 4 C5.7406111 5.06484722 4.71804639 5.0097548 1 3 C0.67 2.01 0.34 1.02 0 0 Z " fill="#DEFFFE" transform="translate(204,265)"/>
</svg>
