<?xml version="1.0" encoding="UTF-8"?>
<svg version="1.1" xmlns="http://www.w3.org/2000/svg" width="437" height="438">
<path d="M0 0 C7.99546844 7.42436355 6.04101862 16.92583523 6.625 27.4375 C19.165 27.1075 31.705 26.7775 44.625 26.4375 C44.625 22.1475 44.625 17.8575 44.625 13.4375 C44.955 12.7775 45.285 12.1175 45.625 11.4375 C43.315 11.4375 41.005 11.4375 38.625 11.4375 C38.295 14.0775 37.965 16.7175 37.625 19.4375 C34.325 19.4375 31.025 19.4375 27.625 19.4375 C26.38300152 15.71150457 26.08991445 12.30770783 26.625 8.4375 C28.68326503 4.54149833 30.8177111 1.69807779 34.625 -0.5625 C39.27283272 -1.94294604 43.83697356 -2.44280979 48.625 -1.5625 C51.84725943 0.30357194 54.40593295 2.44204918 56.625 5.4375 C57.48486564 8.87696254 57.79667703 12.20275327 57.94140625 15.73828125 C57.98330078 16.71474609 58.02519531 17.69121094 58.06835938 18.69726562 C58.10767578 19.70466797 58.14699219 20.71207031 58.1875 21.75 C58.23068359 22.77673828 58.27386719 23.80347656 58.31835938 24.86132812 C58.42406825 27.38659569 58.52616468 29.91195562 58.625 32.4375 C59.30264404 32.47713867 59.98028809 32.51677734 60.6784668 32.55761719 C92.28815435 34.48708467 121.97000195 38.62817454 145.55078125 61.46875 C147.46899439 63.48090568 147.46899439 63.48090568 149.625 64.4375 C149.625 65.0975 149.625 65.7575 149.625 66.4375 C150.285 66.4375 150.945 66.4375 151.625 66.4375 C151.625 67.0975 151.625 67.7575 151.625 68.4375 C152.285 68.4375 152.945 68.4375 153.625 68.4375 C153.625 69.0975 153.625 69.7575 153.625 70.4375 C154.285 70.4375 154.945 70.4375 155.625 70.4375 C159.39284741 75.00458777 160.52775175 78.50535687 160.625 84.4375 C159.16514477 86.95169511 158.01155465 87.3014143 155.29418945 88.25805664 C152.625 88.4375 152.625 88.4375 150.34838867 86.81030273 C149.5876001 86.00536377 148.82681152 85.2004248 148.04296875 84.37109375 C147.19283203 83.49259766 146.34269531 82.61410156 145.46679688 81.70898438 C144.15291992 80.30616211 144.15291992 80.30616211 142.8125 78.875 C137.0735987 72.84508804 131.53968906 67.11610049 124.625 62.4375 C123.80773437 61.880625 122.99046875 61.32375 122.1484375 60.75 C106.13416562 50.96673573 91.92922518 48.1964801 73.5 47.8125 C68.26125 47.68875 63.0225 47.565 57.625 47.4375 C57.625 57.9975 57.625 68.5575 57.625 79.4375 C52.675 80.4275 52.675 80.4275 47.625 81.4375 C44.33587264 77.05199685 44.24751686 74.84140167 44.4375 69.6875 C44.45780273 68.64142578 44.45780273 68.64142578 44.47851562 67.57421875 C44.5137055 65.86164459 44.56750845 64.14947059 44.625 62.4375 C44.04234375 62.46779297 43.4596875 62.49808594 42.859375 62.52929688 C30.76937162 63.14710365 18.7318831 63.59360594 6.625 63.4375 C6.68300781 64.31792969 6.74101562 65.19835937 6.80078125 66.10546875 C7.16490054 75.47893973 7.16490054 75.47893973 5.51171875 78.4140625 C4.125 79.75 4.125 79.75 1.625 81.4375 C-5.125 79.6875 -5.125 79.6875 -7.375 77.4375 C-7.60205078 74.45654297 -7.60205078 74.45654297 -7.5703125 70.6796875 C-7.5674826 70.01663605 -7.56465271 69.35358459 -7.56173706 68.67044067 C-7.55053435 66.55094417 -7.52543051 64.43186896 -7.5 62.3125 C-7.48997028 60.87630818 -7.48084441 59.44010975 -7.47265625 58.00390625 C-7.450595 54.48163372 -7.41606494 50.95960797 -7.375 47.4375 C-17.12679841 48.19983821 -25.48958528 51.22420838 -32.375 58.4375 C-37.07861437 66.31718839 -38.28841234 74.01196073 -36.22265625 82.91796875 C-33.6137097 90.67267163 -28.46415087 96.45156264 -21.375 100.4375 C-17.47394909 101.69630779 -13.5397804 102.3967684 -9.5 103.0625 C5.75817533 105.71108892 17.0280486 110.0061112 26.42578125 122.91015625 C32.5106885 133.37476076 33.65342471 146.26946836 30.75 157.9609375 C26.28198812 169.39552054 18.48905688 178.38024773 7.55859375 184.01953125 C2.63628271 186.03961711 -2.57836019 186.51657729 -7.8125 187.25 C-24.13957139 189.02720392 -24.13957139 189.02720392 -37.78027344 197.06347656 C-44.53198128 206.86768067 -47.90581564 218.58383904 -46.375 230.4375 C-42.8807674 240.82071788 -36.66283859 247.64798123 -27.5625 253.39453125 C-21.16961767 256.44256622 -14.95392885 256.82326623 -7.98046875 257.04296875 C-6.97920456 257.08060837 -5.97794037 257.11824799 -4.94633484 257.1570282 C2.37181743 257.41320668 9.68980197 257.5327601 17.01171875 257.61328125 C18.02630157 257.62535614 19.0408844 257.63743103 20.08621216 257.64987183 C24.22620337 257.69794957 28.36585154 257.74601975 32.50610352 257.76342773 C35.59178948 257.77881002 38.67633325 257.81882252 41.76171875 257.86328125 C43.1646241 257.86041862 43.1646241 257.86041862 44.59587097 257.85749817 C50.99580921 257.97930859 50.99580921 257.97930859 54.23999023 260.34179688 C55.625 262.4375 55.625 262.4375 55.6484375 264.54296875 C55.43445313 265.23003906 55.22046875 265.91710937 55 266.625 C54.80148438 267.31980469 54.60296875 268.01460938 54.3984375 268.73046875 C53.625 270.4375 53.625 270.4375 51.625 271.4375 C44.61388413 272.53134567 37.53647026 272.59737319 30.45703125 272.60546875 C29.41914963 272.60879715 28.38126801 272.61212555 27.31193542 272.61555481 C25.12780191 272.62058764 22.94366079 272.62296427 20.75952148 272.62280273 C17.4638972 272.62498254 14.16861186 272.64315945 10.87304688 272.66210938 C-30.3232138 272.7749412 -30.3232138 272.7749412 -45.29296875 259.54296875 C-56.01815262 248.6970511 -60.23248743 236.18320966 -60.625 221.125 C-60.47532068 208.14780323 -55.48782852 195.85110065 -46.609375 186.28515625 C-36.61701321 178.02224169 -23.84239795 174.87395405 -11.25 173.5 C-1.76588388 172.44571764 6.1767202 169.79694978 12.625 162.4375 C17.25530058 154.74302992 17.74659505 144.87545558 16.234375 136.1953125 C14.22176626 129.77044614 9.54775786 123.53763805 3.58203125 120.34375 C0.9410911 119.48369161 -1.64071021 118.9427492 -4.375 118.4375 C-26.93893443 114.26209016 -26.93893443 114.26209016 -34.375 109.4375 C-35.0246875 109.04691406 -35.674375 108.65632813 -36.34375 108.25390625 C-45.07890416 102.60936807 -48.55417895 93.85255414 -50.96875 84.01953125 C-52.91144961 71.67218087 -50.9880444 60.92715663 -44.375 50.4375 C-43.715 50.4375 -43.055 50.4375 -42.375 50.4375 C-42.148125 49.880625 -41.92125 49.32375 -41.6875 48.75 C-39.99949964 45.77590412 -37.90823483 43.71741135 -35.375 41.4375 C-34.715 41.4375 -34.055 41.4375 -33.375 41.4375 C-33.375 40.7775 -33.375 40.1175 -33.375 39.4375 C-31.81479133 38.78615075 -30.25171421 38.14167036 -28.6875 37.5 C-27.38232422 36.96052734 -27.38232422 36.96052734 -26.05078125 36.41015625 C-21.30626319 34.68550662 -17.09847831 34.31965958 -12.0625 34.375 C-10.185625 34.395625 -8.30875 34.41625 -6.375 34.4375 C-6.375 26.8475 -6.375 19.2575 -6.375 11.4375 C-8.355 11.7675 -10.335 12.0975 -12.375 12.4375 C-13.035 14.7475 -13.695 17.0575 -14.375 19.4375 C-15.97832791 19.51871924 -17.58284026 19.57679134 -19.1875 19.625 C-20.52748047 19.67720703 -20.52748047 19.67720703 -21.89453125 19.73046875 C-24.375 19.4375 -24.375 19.4375 -26.17578125 18.0859375 C-27.87037498 15.7565611 -27.80680378 14.24422455 -27.375 11.4375 C-26.385 10.7775 -25.395 10.1175 -24.375 9.4375 C-23.69560826 7.44178677 -23.02938441 5.44155227 -22.375 3.4375 C-17.89218382 -3.16875543 -6.51786411 -3.01752968 0 0 Z M4.625 39.4375 C4.5004514 41.07980364 4.44931476 42.72802276 4.4375 44.375 C4.42332031 45.27089844 4.40914063 46.16679687 4.39453125 47.08984375 C4.39305231 49.62864534 4.39305231 49.62864534 6.625 51.4375 C9.14877655 51.71558217 9.14877655 51.71558217 12.0703125 51.6328125 C13.14667969 51.62636719 14.22304687 51.61992187 15.33203125 51.61328125 C16.45996094 51.59652344 17.58789062 51.57976562 18.75 51.5625 C19.88566406 51.55347656 21.02132812 51.54445313 22.19140625 51.53515625 C25.00281299 51.51153098 27.81380298 51.47859013 30.625 51.4375 C30.625 51.1075 30.625 50.7775 30.625 50.4375 C23.695 50.4375 16.765 50.4375 9.625 50.4375 C9.625 49.4475 9.625 48.4575 9.625 47.4375 C19.855 47.4375 30.085 47.4375 40.625 47.4375 C40.625 46.7775 40.625 46.1175 40.625 45.4375 C41.945 45.4375 43.265 45.4375 44.625 45.4375 C44.955 43.1275 45.285 40.8175 45.625 38.4375 C39.94669922 38.41285295 34.26842931 38.39466538 28.59008789 38.38256836 C26.65681415 38.37752744 24.72354424 38.37069481 22.7902832 38.36206055 C20.01773128 38.34998435 17.24522959 38.34426943 14.47265625 38.33984375 C13.60286636 38.33468246 12.73307648 38.32952118 11.83692932 38.32420349 C7.9177258 37.93000356 7.9177258 37.93000356 4.625 39.4375 Z M43.625 46.4375 C44.285 47.7575 44.945 49.0775 45.625 50.4375 C45.625 49.1175 45.625 47.7975 45.625 46.4375 C44.965 46.4375 44.305 46.4375 43.625 46.4375 Z " fill="#F8FDFD" transform="translate(124.375,91.5625)"/>
<path d="M0 0 C0.75079834 0.00128906 1.50159668 0.00257813 2.27514648 0.00390625 C7.63532687 0.09719776 11.79940571 0.84836674 16.625 3.3125 C16.625 3.9725 16.625 4.6325 16.625 5.3125 C17.285 5.3125 17.945 5.3125 18.625 5.3125 C19.28246104 6.66105962 19.92531975 8.01674031 20.5625 9.375 C21.10197266 10.50615234 21.10197266 10.50615234 21.65234375 11.66015625 C23.7330347 17.33400827 23.75806783 23.19972102 23.64672852 29.17553711 C23.63712097 29.92758423 23.62751343 30.67963135 23.61761475 31.45446777 C23.58488793 33.91636308 23.54445735 36.37806597 23.50390625 38.83984375 C23.47957933 40.55619142 23.4557371 42.27254602 23.43235779 43.98890686 C23.36977259 48.48849432 23.30063465 52.98795778 23.23010254 57.48742676 C23.15918704 62.08596184 23.09450939 66.68458426 23.02929688 71.28320312 C22.90061445 80.29306477 22.76500493 89.30280768 22.625 98.3125 C24.45224609 98.36857422 24.45224609 98.36857422 26.31640625 98.42578125 C27.9401329 98.49148117 29.56382949 98.55792709 31.1875 98.625 C31.98736328 98.64755859 32.78722656 98.67011719 33.61132812 98.69335938 C39.67415175 98.96556778 44.755202 99.9083893 49.55078125 103.92578125 C50.00839844 104.48652344 50.46601563 105.04726563 50.9375 105.625 C51.40800781 106.17800781 51.87851562 106.73101562 52.36328125 107.30078125 C55.37640249 112.10498384 55.86386464 116.60813257 55.75 122.1875 C55.73195313 123.33992188 55.71390625 124.49234375 55.6953125 125.6796875 C55.67210937 126.54851562 55.64890625 127.41734375 55.625 128.3125 C56.615 128.3125 57.605 128.3125 58.625 128.3125 C58.74144156 131.39551416 58.81232432 134.47796123 58.875 137.5625 C58.92527344 138.87154297 58.92527344 138.87154297 58.9765625 140.20703125 C59.07666851 146.76397479 59.07666851 146.76397479 56.83984375 149.48046875 C56.10894531 150.08503906 55.37804687 150.68960938 54.625 151.3125 C53.32520032 153.65325273 52.11384508 155.97538923 50.9375 158.375 C47.3224857 165.44258503 43.02378347 171.45917977 37.625 177.3125 C37.00612915 178.10914063 37.00612915 178.10914063 36.37475586 178.921875 C33.58096528 182.23565795 31.50600459 183.68755382 27.14453125 184.1171875 C25.24284993 184.17258797 23.33998088 184.19274907 21.4375 184.1875 C20.35380127 184.2066748 19.27010254 184.22584961 18.15356445 184.24560547 C14.80128462 184.2923473 11.45123503 184.30605805 8.09875488 184.30786133 C5.35968168 184.31299751 2.62084658 184.33046254 -0.11816406 184.34960938 C-21.0566565 184.49114283 -42.00576263 184.56557447 -62.9375 183.9375 C-64.10643799 183.90672363 -65.27537598 183.87594727 -66.47973633 183.84423828 C-67.5189624 183.80540527 -68.55818848 183.76657227 -69.62890625 183.7265625 C-70.50877197 183.6951416 -71.3886377 183.6637207 -72.29516602 183.63134766 C-74.375 183.3125 -74.375 183.3125 -76.375 181.3125 C-76.48710264 174.81054703 -74.73941543 172.05982057 -70.34765625 167.43359375 C-57.3392669 153.4463553 -56.24031279 138.46431477 -55.9453125 120.24804688 C-55.89890625 118.63446289 -55.89890625 118.63446289 -55.8515625 116.98828125 C-55.83174316 116.01802002 -55.81192383 115.04775879 -55.79150391 114.0480957 C-55.083052 109.39498688 -52.91051581 106.82421511 -49.5625 103.625 C-43.83479507 99.46960623 -38.34900688 98.96610367 -31.5 98.6875 C-30.71625 98.64882813 -29.9325 98.61015625 -29.125 98.5703125 C-27.20868633 98.47683378 -25.29187681 98.39361505 -23.375 98.3125 C-23.38166183 97.29043457 -23.38832367 96.26836914 -23.39518738 95.21533203 C-23.45611056 85.56406754 -23.50102638 75.91284228 -23.53043652 66.26142883 C-23.54606507 61.3000179 -23.56725192 56.33876272 -23.60131836 51.37744141 C-23.63401214 46.58582029 -23.65187414 41.7943486 -23.65963173 37.00262451 C-23.66515728 35.17825978 -23.67594727 33.35390284 -23.69219017 31.52960205 C-23.71409783 28.96617214 -23.7169614 26.40335283 -23.71557617 23.83984375 C-23.726362 23.09249466 -23.73714783 22.34514557 -23.7482605 21.57514954 C-23.71553758 15.94644787 -22.83472241 10.18924244 -19.0645628 5.77989197 C-13.36061081 0.68227598 -7.29878402 -0.05167852 0 0 Z M-9.03466797 13.34643555 C-11.1033223 16.38083871 -10.85635057 19.54510545 -10.88671875 23.09765625 C-10.90471527 23.89046997 -10.92271179 24.68328369 -10.94125366 25.50012207 C-10.99643317 28.12503117 -11.02985825 30.74972127 -11.0625 33.375 C-11.09542897 35.19719969 -11.1292137 37.0193841 -11.16381836 38.84155273 C-11.5108547 58.66272902 -11.4731574 78.48923467 -11.375 98.3125 C-6.72144395 99.96579629 -3.01953735 100.5575791 1.9375 100.5 C3.17113281 100.49355469 4.40476562 100.48710937 5.67578125 100.48046875 C8.5121889 100.64722963 8.5121889 100.64722963 9.625 99.3125 C9.87080197 96.27918668 10.04537452 93.26976106 10.171875 90.23046875 C10.21350769 89.26207565 10.25514038 88.29368256 10.29803467 87.29594421 C10.78508434 74.78709662 10.84811682 62.27233805 10.86523438 49.75561523 C10.87083231 46.26333595 10.89518349 42.77142472 10.92320633 39.2792635 C10.94619823 35.91144243 10.94826299 32.54367673 10.953125 29.17578125 C10.9654718 27.92597977 10.9778186 26.67617828 10.99053955 25.38850403 C10.98753845 24.23847397 10.98453735 23.08844391 10.98144531 21.90356445 C10.98509094 20.89292435 10.98873657 19.88228424 10.99249268 18.84101868 C10.56708899 15.91404558 9.94868537 15.07123666 7.625 13.3125 C4.79470852 11.89735426 2.34120867 12.10469008 -0.8125 12.0625 C-2.54306641 12.02382812 -2.54306641 12.02382812 -4.30859375 11.984375 C-7.26279231 12.07539824 -7.26279231 12.07539824 -9.03466797 13.34643555 Z M-41.375 113.3125 C-45.91848727 119.91315346 -45.91848727 119.91315346 -44.375 136.3125 C-15.005 136.3125 14.365 136.3125 44.625 136.3125 C45.69113352 123.92824468 45.69113352 123.92824468 41.33747864 113.6438446 C34.63200686 108.43076137 22.88400645 110.0023939 14.89453125 110.01171875 C13.49069596 110.00782185 12.08686183 110.00348517 10.68302917 109.99873352 C7.75910595 109.99132173 4.83530363 109.99152741 1.91137695 109.99682617 C-1.82077709 110.00264093 -5.55243809 109.98561756 -9.28451061 109.9624815 C-12.17656811 109.94770511 -15.06850752 109.94687728 -17.96059608 109.94999123 C-19.33640844 109.94948086 -20.71222791 109.94429693 -22.08800316 109.93417931 C-32.21032364 109.67853944 -32.21032364 109.67853944 -41.375 113.3125 Z M20.625 149.3125 C18.93493621 151.73547048 17.72389216 154.31759604 16.5 157 C16.16613281 157.69544922 15.83226562 158.39089844 15.48828125 159.10742188 C13.41593681 163.45934521 11.4989326 167.8720945 9.625 172.3125 C14.78891811 173.77619561 20.00231394 173.87450416 25.25 172.75 C33.29594159 167.88008799 38.11335159 159.86059153 41.625 151.3125 C41.295 150.3225 40.965 149.3325 40.625 148.3125 C38.22972566 148.08954365 35.83498659 147.88375937 33.4375 147.6875 C32.76396484 147.62304688 32.09042969 147.55859375 31.39648438 147.4921875 C27.26187298 147.16948612 24.13050906 146.98957231 20.625 149.3125 Z M-14.375 152.3125 C-16.35273587 155.46338868 -18.02863507 158.73493983 -19.6875 162.0625 C-20.3690918 163.39474609 -20.3690918 163.39474609 -21.06445312 164.75390625 C-22.17847297 166.93503984 -23.28149352 169.12103024 -24.375 171.3125 C-19.60175101 173.94674337 -15.25333393 174.12583632 -10.06640625 172.66015625 C-1.16238465 169.16161151 2.63624416 162.86205585 6.7421875 154.546875 C7.80873134 152.24789002 7.80873134 152.24789002 7.625 149.3125 C4.13496043 148.2629282 0.82312138 148.07985758 -2.8125 148 C-4.48119141 147.94392578 -4.48119141 147.94392578 -6.18359375 147.88671875 C-10.27447177 148.43250297 -11.5500573 149.29163386 -14.375 152.3125 Z M-44.375 149.3125 C-46.38020997 152.76790646 -48.37935148 156.22657801 -50.375 159.6875 C-50.94734375 160.67234375 -51.5196875 161.6571875 -52.109375 162.671875 C-52.65078125 163.61289062 -53.1921875 164.55390625 -53.75 165.5234375 C-54.50410156 166.82740479 -54.50410156 166.82740479 -55.2734375 168.15771484 C-56.52672857 170.20596072 -56.52672857 170.20596072 -56.375 172.3125 C-50.07468943 174.41260352 -43.95298322 173.68714972 -37.91015625 171.109375 C-30.89904559 166.14002076 -26.99846831 157.18290492 -24.375 149.3125 C-30.975 149.3125 -37.575 149.3125 -44.375 149.3125 Z " fill="#F7FEFD" transform="translate(260.375,185.6875)"/>
<path d="M0 0 C9.1195097 0.10805106 15.10770556 3.3063715 21.7109375 9.44921875 C27.88639384 15.88086215 30.79294295 21.6400522 30.625 30.625 C30.60695313 31.87925781 30.58890625 33.13351563 30.5703125 34.42578125 C30.54710937 35.37839844 30.52390625 36.33101562 30.5 37.3125 C31.26183594 37.47105469 32.02367187 37.62960938 32.80859375 37.79296875 C42.5799829 40.00098552 50.58991029 42.99078295 57.05859375 50.9453125 C61.75089876 58.65137438 62.79125364 68.61317358 60.8203125 77.3125 C60.10063386 79.99930024 59.3332523 82.6589882 58.5 85.3125 C59.304375 85.35375 60.10875 85.395 60.9375 85.4375 C69.78844255 87.61141571 75.7072687 93.82385734 80.5 101.3125 C85.54985669 110.94807215 85.78761303 122.00442602 83.921875 132.59375 C80.48427346 143.46907123 71.36705862 151.9949235 61.5 157.3125 C51.44398732 161.24501893 42.55183953 161.3228194 32.5 157.3125 C27.62145132 154.44900403 25.36494073 150.5287946 23.5 145.3125 C21.6910328 137.80135359 22.75544578 131.3584979 26.3125 124.5625 C29.81038491 119.36564242 33.37601191 116.69906334 39.5 115.3125 C42.84379537 115.11431152 46.15919989 115.0419644 49.5 115.3125 C50.5 116.3125 50.5 116.3125 50.59765625 118.37890625 C50.58605469 119.20261719 50.57445312 120.02632813 50.5625 120.875 C50.55347656 121.70128906 50.54445313 122.52757812 50.53515625 123.37890625 C50.52355469 124.01699219 50.51195312 124.65507812 50.5 125.3125 C48.89850114 125.98555018 47.29368971 126.65072227 45.6875 127.3125 C44.34751953 127.869375 44.34751953 127.869375 42.98046875 128.4375 C40.5 129.3125 40.5 129.3125 37.5 129.3125 C37.47296619 131.24992341 37.45358875 133.18745479 37.4375 135.125 C37.42589844 136.20394531 37.41429687 137.28289062 37.40234375 138.39453125 C37.36375234 141.37762169 37.36375234 141.37762169 38.5 144.3125 C44.62876224 146.35542075 50.55695969 146.03134881 56.4375 143.375 C57.79239887 142.68894413 59.14665927 142.00162442 60.5 141.3125 C61.49 140.9825 62.48 140.6525 63.5 140.3125 C64.56716704 138.51317421 64.56716704 138.51317421 65.5 136.3125 C65.98726563 135.5803125 66.47453125 134.848125 66.9765625 134.09375 C70.37981977 127.8806239 71.51019875 119.29626739 69.5625 112.4375 C66.99875626 106.38390246 62.90047124 101.77160997 57.3125 98.375 C48.74315709 95.98682247 40.60911417 95.16102123 32.5 99.3125 C23.53264708 105.34821831 20.91565773 113.31264246 18.296875 123.43359375 C17.5 126.3125 17.5 126.3125 16.5 127.3125 C13.82941149 127.45365161 11.17567762 127.35497107 8.5 127.3125 C5.2102476 122.03359499 6.57721266 116.18848407 7.5 110.3125 C9.88693672 101.15392759 15.02072357 93.25830791 23 88.0625 C28.46901813 85.01198449 34.2854925 83.30486126 40.27734375 81.5859375 C43.68882706 80.2378847 44.88694955 79.56189404 46.5 76.3125 C47.49980633 69.99999732 47.13681526 62.74314982 43.5 57.3125 C39.62178323 53.41527236 35.56581849 51.98034859 30.125 51.6875 C24.17259269 52.00209176 19.24420084 53.66583816 14.5 57.3125 C12.54305596 59.8130396 11.50401917 62.3163793 10.5 65.3125 C10.20480469 66.14265625 9.90960938 66.9728125 9.60546875 67.828125 C8.86459778 69.97969548 8.16489908 72.13646665 7.5 74.3125 C4.86 74.6425 2.22 74.9725 -0.5 75.3125 C-2.40777677 73.16064735 -3.43796244 71.82919643 -3.78515625 68.9375 C-3.11924945 61.08680931 -0.38251818 55.11581168 3.5 48.3125 C4.16 48.3125 4.82 48.3125 5.5 48.3125 C5.86931641 47.40371094 5.86931641 47.40371094 6.24609375 46.4765625 C7.72071076 43.93158485 9.02114469 43.11730063 11.5625 41.6875 C14.6157672 40.0698282 14.6157672 40.0698282 16.5 37.3125 C17.00164334 30.03867157 15.82438052 24.64411207 11.625 18.625 C7.56963113 15.62402703 3.33648933 14.26535204 -1.44140625 12.71875 C-4.908422 11.12471977 -6.37321921 9.43247182 -8.5 6.3125 C-6.35805568 0.74344477 -6.03805719 0.14485238 0 0 Z " fill="#F7FDFD" transform="translate(313.5,209.6875)"/>
<path d="M0 0 C1.91298344 1.14725271 3.78745965 2.36042896 5.625 3.625 C9.75769068 6.43091418 9.75769068 6.43091418 14.625 7.3125 C18.50532148 5.80348609 21.62629287 3.81724155 24.984375 1.375 C29.57967566 -1.75977874 34.64791739 -1.56623483 40 -1 C45.59920782 0.72627334 50.17009436 3.74506359 55 7 C56.26012074 7.5661412 57.53146965 8.10791067 58.8125 8.625 C62 10 62 10 63 12 C63.25 15.5 63.25 15.5 63 19 C59.2649458 21.49003613 56.32616497 21.64119945 52 21 C48.17777408 19.57369143 44.83393249 17.58375275 41.5 15.25 C37.97450865 13.48725433 34.86795607 13.26737288 31 14 C28.28536927 15.80495512 28.28536927 15.80495512 26 18 C19.34115291 21.1269586 11.21757222 22.04913485 4.10546875 19.9375 C0.35017102 18.26538227 -2.99994636 15.9696459 -6.38671875 13.65625 C-8.87199593 12.08112665 -11.23897092 10.99496544 -14 10 C-14 7.03 -14 4.06 -14 1 C-9.29855184 -1.57821351 -5.03090176 -1.51392877 0 0 Z " fill="#F4FEFD" transform="translate(116,302)"/>
<path d="M0 0 C2.109375 1.2578125 2.109375 1.2578125 4.0625 2.625 C7.72017152 5.11517233 10.5027967 5.68605293 14.90625 5.4296875 C18.18285196 4.75725053 20.36766449 3.00286397 23 1 C28.65909831 -2.04720678 33.67890661 -3.04066781 40 -2 C43.29584913 -0.70225941 46.10339801 0.97473357 49 3 C49.86625 3.5775 50.7325 4.155 51.625 4.75 C53.84542653 8.38342523 52.79391369 11.96139556 52 16 C42.79173223 16.48276355 42.79173223 16.48276355 39.4375 14.4375 C36.13229136 12.48827439 33.85670598 12.86067597 30.13671875 13.4140625 C27.12462222 14.24004875 25.3071969 15.9422298 23 18 C17.5964519 20.57311814 11.8586645 20.88375173 6 20 C1.77996751 18.36094577 -2.06615755 16.22680651 -6 14 C-7.53735154 13.2617789 -9.07844582 12.53124218 -10.625 11.8125 C-14 10 -14 10 -16 7 C-15.92437984 3.37023214 -15.61228912 1.63204038 -13.0625 -1 C-8.39087478 -2.52542864 -4.58310385 -1.58862189 0 0 Z " fill="#F7FDFD" transform="translate(178,256)"/>
<path d="M0 0 C4.28067106 2.8622741 6.81954825 3.10613596 11.9375 2.375 C13.75442086 1.44457679 15.42566049 0.38263051 17.140625 -0.72265625 C20.49172851 -2.40549301 23.25320958 -2.05483388 26.9375 -1.625 C28.9375 -0.4375 28.9375 -0.4375 29.9375 1.375 C30.375 3.75 30.375 3.75 29.9375 6.375 C25.83275789 12.27973343 20.54184027 15.67822772 13.9375 18.375 C4.90999467 19.66630553 -2.45710545 15.809781 -10.0625 11.375 C-11.04476562 10.80394531 -12.02703125 10.23289063 -13.0390625 9.64453125 C-15.39697746 8.24638731 -17.73683628 6.82596719 -20.0625 5.375 C-18.7375 -2.09318182 -18.7375 -2.09318182 -16 -4.25 C-9.948158 -5.02257557 -4.97385193 -3.43665753 0 0 Z " fill="#F6FDFD" transform="translate(201.0625,206.625)"/>
<path d="M0 0 C13.86 0 27.72 0 42 0 C43.36421031 2.72842061 42.87807211 4.60953318 42.5625 7.625 C42.46066406 8.62789062 42.35882813 9.63078125 42.25390625 10.6640625 C42.17011719 11.43492187 42.08632812 12.20578125 42 13 C41.505 11.02 41.505 11.02 41 9 C40.67 10.32 40.34 11.64 40 13 C37.69 13.33 35.38 13.66 33 14 C33 13.34 33 12.68 33 12 C32.07058594 12.16371094 31.14117187 12.32742187 30.18359375 12.49609375 C25.15270771 13.21479176 20.13383491 13.10756313 15.0625 13.0625 C14.09248047 13.05798828 13.12246094 13.05347656 12.12304688 13.04882812 C9.7486324 13.0371315 7.37434979 13.02074086 5 13 C5 12.01 5 11.02 5 10 C15.23 10 25.46 10 36 10 C36 9.34 36 8.68 36 8 C37.32 8 38.64 8 40 8 C40.33 5.69 40.66 3.38 41 1 C27.47 1.33 13.94 1.66 0 2 C0 1.34 0 0.68 0 0 Z " fill="#E0FEFE" transform="translate(129,129)"/>
<path d="M0 0 C5.4809035 -0.09893328 10.96128645 -0.17149865 16.44287109 -0.21972656 C18.30722101 -0.23983261 20.17150794 -0.2671218 22.03564453 -0.30175781 C24.71662948 -0.35032121 27.39678023 -0.37297838 30.078125 -0.390625 C30.91055725 -0.41127014 31.7429895 -0.43191528 32.60064697 -0.45318604 C38.38497349 -0.45542507 38.38497349 -0.45542507 41.55615234 1.89282227 C43 4 43 4 43.0234375 6.10546875 C42.80945313 6.79253906 42.59546875 7.47960937 42.375 8.1875 C42.17648438 8.88230469 41.97796875 9.57710938 41.7734375 10.29296875 C41 12 41 12 39 13 C31.98888413 14.09384567 24.91147026 14.15987319 17.83203125 14.16796875 C16.79414963 14.17129715 15.75626801 14.17462555 14.68693542 14.17805481 C12.50280191 14.18308764 10.31866079 14.18546427 8.13452148 14.18530273 C4.8388972 14.18748254 1.54361186 14.20565945 -1.75195312 14.22460938 C-13.0067932 14.25361095 -23.90084471 13.98540682 -35 12 C-35 11.67 -35 11.34 -35 11 C-29.39 11 -23.78 11 -18 11 C-18 11.66 -18 12.32 -18 13 C-2.82 13 12.36 13 28 13 C28 12.34 28 11.68 28 11 C31.96 11 35.92 11 40 11 C39.7834375 9.0509375 39.7834375 9.0509375 39.5625 7.0625 C39.48128906 6.33160156 39.40007812 5.60070312 39.31640625 4.84765625 C39.18113386 2.98859771 39.18113386 2.98859771 38 2 C35.19023482 1.83982834 32.40226404 1.74049466 29.58984375 1.68359375 C28.74780899 1.66281265 27.90577423 1.64203156 27.03822327 1.62062073 C24.33806821 1.55503188 21.63781283 1.49619724 18.9375 1.4375 C17.11131759 1.39432363 15.28514546 1.35070964 13.45898438 1.30664062 C8.97276008 1.19934106 4.4864345 1.09810034 0 1 C0 0.67 0 0.34 0 0 Z " fill="#DBFEFE" transform="translate(137,350)"/>
<path d="M0 0 C0.66 0.33 1.32 0.66 2 1 C2.02312764 8.93613787 2.04091723 16.87226176 2.05181217 24.80842495 C2.05704008 28.49314498 2.06413605 32.17784203 2.07543945 35.86254883 C2.08627162 39.41570831 2.09227753 42.96884563 2.09487724 46.52202034 C2.0967309 47.88045666 2.10035038 49.23889171 2.10573006 50.59731865 C2.11294475 52.49382223 2.11340809 54.39034793 2.11352539 56.28686523 C2.115746 57.36830307 2.11796661 58.44974091 2.12025452 59.56394958 C2 62 2 62 1 63 C0.84313751 64.55948542 0.74923361 66.12542668 0.68359375 67.69140625 C0.64169922 68.63564453 0.59980469 69.57988281 0.55664062 70.55273438 C0.51732422 71.54595703 0.47800781 72.53917969 0.4375 73.5625 C0.39431641 74.55958984 0.35113281 75.55667969 0.30664062 76.58398438 C0.20019702 79.0558415 0.09818072 81.5278031 0 84 C-0.33 84 -0.66 84 -1 84 C-1.07926021 66.37671159 -0.84714252 48.7632514 -0.53643799 31.14343262 C-0.47466819 27.61582866 -0.41518175 24.08818614 -0.35546875 20.56054688 C-0.23913802 13.70699325 -0.1203987 6.85348334 0 0 Z " fill="#DDFEFF" transform="translate(271,202)"/>
<path d="M0 0 C1 1 1 1 1.09765625 3.06640625 C1.08605469 3.89011719 1.07445312 4.71382813 1.0625 5.5625 C1.05347656 6.38878906 1.04445313 7.21507812 1.03515625 8.06640625 C1.02355469 8.70449219 1.01195312 9.34257812 1 10 C0.67 10 0.34 10 0 10 C0 7.36 0 4.72 0 2 C-1.89666526 2.08772455 -3.79238993 2.19591301 -5.6875 2.3125 C-6.74324219 2.37050781 -7.79898437 2.42851562 -8.88671875 2.48828125 C-12.24294101 3.03993133 -14.18132333 4.15872785 -17 6 C-17.66 6 -18.32 6 -19 6 C-19.103125 6.5775 -19.20625 7.155 -19.3125 7.75 C-20 10 -20 10 -21.5625 11.8125 C-23.63000302 14.95870024 -23.32931393 17.31168402 -23 21 C-22.11935073 23.35369807 -22.11935073 23.35369807 -21 25 C-21.66 25.33 -22.32 25.66 -23 26 C-23.40729228 28.32156597 -23.74438677 30.6568787 -24 33 C-26.91938685 28.62091972 -27.35898765 24.09413162 -26.75390625 18.87890625 C-25.21605385 11.89732854 -22.1518947 5.95478945 -16 2 C-10.84997101 -0.39536232 -5.5882647 -0.45253368 0 0 Z " fill="#DEFEFE" transform="translate(363,325)"/>
<path d="M0 0 C0.99 0 1.98 0 3 0 C3.11644156 3.08301416 3.18732432 6.16546123 3.25 9.25 C3.30027344 10.55904297 3.30027344 10.55904297 3.3515625 11.89453125 C3.45151389 18.44134722 3.45151389 18.44134722 1.15625 21.28125 C0.08890625 22.13203125 0.08890625 22.13203125 -1 23 C-2.51798419 25.55705908 -2.51798419 25.55705908 -3.75 28.25 C-4.39195312 29.58804687 -4.39195312 29.58804687 -5.046875 30.953125 C-5.36140625 31.62859375 -5.6759375 32.3040625 -6 33 C-6.33 33 -6.66 33 -7 33 C-7 31.35 -7 29.7 -7 28 C-6.34 28 -5.68 28 -5 28 C-5 26.68 -5 25.36 -5 24 C-4.34 24 -3.68 24 -3 24 C-3.33 22.02 -3.66 20.04 -4 18 C-2.35 18.33 -0.7 18.66 1 19 C0.67 12.73 0.34 6.46 0 0 Z " fill="#DDFEFE" transform="translate(316,314)"/>
<path d="M0 0 C0 5.58564484 -0.20616925 11.16732971 -0.375 16.75 C-0.4059375 18.01328125 -0.436875 19.2765625 -0.46875 20.578125 C-0.66166797 26.7000552 -0.87402121 32.22701695 -3 38 C-3.33 38 -3.66 38 -4 38 C-3.93096323 33.39131877 -3.84292114 28.78353105 -3.73754883 24.17553711 C-3.70437468 22.60923199 -3.67631942 21.04280949 -3.65356445 19.47631836 C-3.61987884 17.21938237 -3.56755951 14.96351474 -3.51171875 12.70703125 C-3.50532883 12.01100296 -3.4989389 11.31497467 -3.49235535 10.59785461 C-3.36205664 6.25126086 -2.56023743 3.51995391 0 0 Z " fill="#DFFEFE" transform="translate(208,292)"/>
<path d="M0 0 C4.95303251 0.19354656 9.18626704 0.86078373 13.88671875 2.4609375 C13.88671875 3.1209375 13.88671875 3.7809375 13.88671875 4.4609375 C7.28671875 4.4609375 0.68671875 4.4609375 -6.11328125 4.4609375 C-2.11328125 0.4609375 -2.11328125 0.4609375 0 0 Z " fill="#DEFEFE" transform="translate(151.11328125,113.5390625)"/>
<path d="M0 0 C1.10614019 3.31842057 0.82514771 3.79548801 0 7 C-0.09310777 9.14421728 -0.12996239 11.29126791 -0.125 13.4375 C-0.12757812 14.54996094 -0.13015625 15.66242188 -0.1328125 16.80859375 C-0.01399223 19.66377492 0.34646731 22.22507946 1 25 C-1.63238791 23.68380605 -1.96267886 22.74505069 -3 20 C-3.30078125 16.7578125 -3.30078125 16.7578125 -3.3125 13.125 C-3.32925781 11.93132812 -3.34601563 10.73765625 -3.36328125 9.5078125 C-2.97040185 5.71420285 -1.89932304 3.2774598 0 0 Z " fill="#DDFEFF" transform="translate(78,302)"/>
<path d="M0 0 C0 0.33 0 0.66 0 1 C-3.3 1.33 -6.6 1.66 -10 2 C-10 4.64 -10 7.28 -10 10 C-8.7934375 10.433125 -8.7934375 10.433125 -7.5625 10.875 C-5 12 -5 12 -4 14 C-7.16452176 13.15612753 -9.48530406 12.46488666 -11.9375 10.25 C-13.44922142 7.04870759 -13.13065198 5.32129021 -12 2 C-8.0533673 -1.5984004 -5.02296301 -1.08338418 0 0 Z " fill="#DBFEFE" transform="translate(175,255)"/>
<path d="M0 0 C0.33 0 0.66 0 1 0 C1.66 2.97 2.32 5.94 3 9 C4.98 9 6.96 9 9 9 C9 8.01 9 7.02 9 6 C9.66 6 10.32 6 11 6 C10.67 7.65 10.34 9.3 10 11 C7.36 11 4.72 11 2 11 C-0.32590854 7.36576791 -0.16265833 4.22911669 0 0 Z " fill="#DCFEFE" transform="translate(320,326)"/>
<path d="M0 0 C2.01616137 3.02424205 2.25469543 3.62707101 2.265625 7.01953125 C2.26820313 7.79490234 2.27078125 8.57027344 2.2734375 9.36914062 C2.26570312 10.17544922 2.25796875 10.98175781 2.25 11.8125 C2.25773438 12.60720703 2.26546875 13.40191406 2.2734375 14.22070312 C2.25804462 18.87320056 1.77527784 22.62520817 0 27 C-0.33 27 -0.66 27 -1 27 C-1 24.36 -1 21.72 -1 19 C-0.34 19 0.32 19 1 19 C0.67 12.73 0.34 6.46 0 0 Z " fill="#DEFFFE" transform="translate(154,225)"/>
<path d="M0 0 C-0.33 0.99 -0.66 1.98 -1 3 C-2.32 3 -3.64 3 -5 3 C-5 3.66 -5 4.32 -5 5 C-8.35121582 6.11707194 -10.55562064 6.00566557 -14.0625 5.75 C-15.12597656 5.68296875 -16.18945312 5.6159375 -17.28515625 5.546875 C-20 5 -20 5 -22 2 C-21.01 2.33 -20.02 2.66 -19 3 C-11.78970642 3.65548123 -6.42557007 0 0 0 Z " fill="#DEFEFE" transform="translate(374,352)"/>
<path d="M0 0 C0.66 0 1.32 0 2 0 C2.66 2.97 3.32 5.94 4 9 C4.66 9 5.32 9 6 9 C6 9.99 6 10.98 6 12 C6.99 12.33 7.98 12.66 9 13 C10.1875 15.5625 10.1875 15.5625 11 18 C6.79767922 16.59922641 5.16521178 13.67175073 3 10 C0 3.40711462 0 3.40711462 0 0 Z " fill="#E8FEFE" transform="translate(75,179)"/>
<path d="M0 0 C0.639375 0.28875 1.27875 0.5775 1.9375 0.875 C5.88410292 2.3247725 9.8874607 3.15778062 14 4 C14 4.33 14 4.66 14 5 C11.03 5 8.06 5 5 5 C4.67 5.66 4.34 6.32 4 7 C3.01 6.67 2.02 6.34 1 6 C1 4.68 1 3.36 1 2 C0.67 1.34 0.34 0.68 0 0 Z " fill="#E7FEFD" transform="translate(98,190)"/>
<path d="M0 0 C0.66 0 1.32 0 2 0 C2.67528223 1.57967807 3.33989694 3.16391903 4 4.75 C4.37125 5.63171875 4.7425 6.5134375 5.125 7.421875 C6 10 6 10 6 14 C5.34 14 4.68 14 4 14 C3.5196682 12.41701974 3.04078388 10.83360022 2.5625 9.25 C2.29566406 8.36828125 2.02882813 7.4865625 1.75390625 6.578125 C1.11531506 4.39434165 0.53224167 2.21164502 0 0 Z " fill="#DDFEFE" transform="translate(381,316)"/>
<path d="M0 0 C1.13199353 0.9080162 2.25532363 1.82683826 3.375 2.75 C4.00148437 3.26046875 4.62796875 3.7709375 5.2734375 4.296875 C7.08312318 6.08199481 8.00117455 7.67949644 9 10 C6.5625 9.1875 6.5625 9.1875 4 8 C3.67 7.01 3.34 6.02 3 5 C2.01 4.67 1.02 4.34 0 4 C0 2.68 0 1.36 0 0 Z " fill="#E0FEFE" transform="translate(140,204)"/>
<path d="M0 0 C0.66 0.33 1.32 0.66 2 1 C-2.95 3.97 -2.95 3.97 -8 7 C-8.66 6.34 -9.32 5.68 -10 5 C-8.38007835 4.13624104 -6.75388139 3.28424146 -5.125 2.4375 C-4.22007813 1.96183594 -3.31515625 1.48617188 -2.3828125 0.99609375 C-1.20332031 0.50302734 -1.20332031 0.50302734 0 0 Z " fill="#DCFEFE" transform="translate(94,269)"/>
<path d="M0 0 C1.98 0.99 1.98 0.99 4 2 C4 2.99 4 3.98 4 5 C4.66 5 5.32 5 6 5 C6 5.66 6 6.32 6 7 C1.125 6.125 1.125 6.125 0 5 C-0.04063832 3.33382885 -0.042721 1.66611905 0 0 Z " fill="#E2FEFD" transform="translate(184,362)"/>
<path d="M0 0 C0.82757813 0.49113281 0.82757813 0.49113281 1.671875 0.9921875 C4.38780923 2.16787715 6.30551759 2.20248638 9.25 2.125 C10.58804688 2.09792969 10.58804688 2.09792969 11.953125 2.0703125 C12.62859375 2.04710937 13.3040625 2.02390625 14 2 C14 2.66 14 3.32 14 4 C9.71 4 5.42 4 1 4 C0.67 2.68 0.34 1.36 0 0 Z " fill="#E2FEFE" transform="translate(182,259)"/>
<path d="M0 0 C2.33333823 2.12121657 3.9148886 4.01594365 5 7 C4.625 9.25 4.625 9.25 4 11 C4 10.01 4 9.02 4 8 C3.34 8 2.68 8 2 8 C0.23537317 4.91190305 0 3.76687864 0 0 Z " fill="#DFFEFE" transform="translate(149,214)"/>
<path d="M0 0 C2.97 0 5.94 0 9 0 C9 0.66 9 1.32 9 2 C5.62182575 2.84454356 3.32534757 3.10844919 0 2 C0 1.34 0 0.68 0 0 Z " fill="#FEFFFF" transform="translate(149,114)"/>
<path d="M0 0 C1 3 1 3 0.22265625 4.82421875 C-0.8515625 6.54947917 -1.92578125 8.27473958 -3 10 C-3.66 10 -4.32 10 -5 10 C-3.84414715 6.08788267 -2.64465038 3.1254959 0 0 Z " fill="#DDFFFF" transform="translate(328,306)"/>
<path d="M0 0 C0.99 0 1.98 0 3 0 C3.33 1.65 3.66 3.3 4 5 C1.03 4.505 1.03 4.505 -2 4 C-1.34 2.68 -0.68 1.36 0 0 Z " fill="#DBFFFE" transform="translate(165,137)"/>
<path d="M0 0 C1 4 1 4 -0.9375 7.25 C-1.618125 8.1575 -2.29875 9.065 -3 10 C-3.66 9.67 -4.32 9.34 -5 9 C-3.35 6.03 -1.7 3.06 0 0 Z " fill="#E7FEFE" transform="translate(234,339)"/>
<path d="M0 0 C0.66 0.66 1.32 1.32 2 2 C2.99 2 3.98 2 5 2 C5 2.66 5 3.32 5 4 C3.824375 4.4640625 3.824375 4.4640625 2.625 4.9375 C0.07669872 5.92875038 0.07669872 5.92875038 -2 7 C-1.34 4.69 -0.68 2.38 0 0 Z " fill="#E5FEFD" transform="translate(201,336)"/>
<path d="M0 0 C0.66 0 1.32 0 2 0 C1.67 2.64 1.34 5.28 1 8 C0.01 8.33 -0.98 8.66 -2 9 C-1.34 6.03 -0.68 3.06 0 0 Z " fill="#E5FEFE" transform="translate(141,243)"/>
</svg>
