<?xml version="1.0" encoding="UTF-8"?>
<svg version="1.1" xmlns="http://www.w3.org/2000/svg" width="241" height="241">
<path d="M0 0 C0.80232056 -0.0004985 1.60464111 -0.00099701 2.43127441 -0.00151062 C4.12233973 0.00082289 5.81340899 0.01050869 7.50439453 0.02709961 C10.0852786 0.05070377 12.66512901 0.04765366 15.24609375 0.04101562 C16.89323529 0.04659274 18.54037251 0.05370283 20.1875 0.0625 C20.95533813 0.06158859 21.72317627 0.06067719 22.51428223 0.05973816 C31.40724892 0.17678017 31.40724892 0.17678017 34.59375 3.36328125 C34.75061249 4.92276667 34.84451639 6.48870793 34.91015625 8.0546875 C34.95205078 8.99892578 34.99394531 9.94316406 35.03710938 10.91601562 C35.07642578 11.90923828 35.11574219 12.90246094 35.15625 13.92578125 C35.19943359 14.92287109 35.24261719 15.91996094 35.28710938 16.94726562 C35.39355298 19.41912275 35.49556928 21.89108435 35.59375 24.36328125 C38.56375 25.35328125 38.56375 25.35328125 41.59375 26.36328125 C41.985625 25.49703125 42.3775 24.63078125 42.78125 23.73828125 C46.27381073 17.23489231 50.05128381 13.51768459 56.59375 10.36328125 C60.86089679 9.22649911 65.10400805 9.18613674 69.4921875 9.16015625 C70.62196518 9.15160614 70.62196518 9.15160614 71.77456665 9.1428833 C73.36304332 9.13346858 74.9515392 9.12691341 76.54003906 9.12304688 C78.95412643 9.11334005 81.367362 9.08228387 83.78125 9.05078125 C85.33072416 9.04425006 86.88020435 9.03900004 88.4296875 9.03515625 C89.14345551 9.02280945 89.85722351 9.01046265 90.59262085 8.9977417 C96.93759302 9.02557831 101.44252429 10.51222657 106.28125 14.67578125 C114.3184444 24.01630447 114.89696536 33.07392177 114.8684082 45.03588867 C114.87351913 46.15751907 114.87863007 47.27914948 114.88389587 48.43476868 C114.89770645 52.1128179 114.89684223 55.79067806 114.89453125 59.46875 C114.89842142 62.03843759 114.90275675 64.60812454 114.90751648 67.17781067 C114.91495925 72.54979824 114.91483995 77.92171327 114.90942383 83.29370117 C114.90337259 89.49000901 114.91573469 95.68609044 114.9369939 101.88235968 C114.956765 107.8667377 114.95978059 113.85099743 114.95625877 119.83541298 C114.95677167 122.37231288 114.96200346 124.90921644 114.97207069 127.44609642 C114.9844166 130.99052784 114.97765511 134.53443431 114.96606445 138.07885742 C114.97370819 139.12266571 114.98135193 140.166474 114.98922729 141.24191284 C114.93912546 148.17909314 114.40288941 153.55414184 109.28125 158.67578125 C102.83774699 162.72170174 96.74073949 162.66015797 89.359375 162.65380859 C88.23672241 162.66052582 87.11406982 162.66724304 85.95739746 162.67416382 C82.25280309 162.69313515 78.54838989 162.69706725 74.84375 162.69921875 C72.26594976 162.70564593 69.68815026 162.71237424 67.11035156 162.71939087 C61.71026608 162.73136053 56.31025236 162.73515763 50.91015625 162.73388672 C44.67636546 162.7326844 38.44292037 162.75381047 32.20921707 162.78537405 C26.20027435 162.8147104 20.19151901 162.82186206 14.18249512 162.82066727 C11.6308043 162.82302801 9.07911093 162.83187801 6.52746582 162.847332 C2.96072603 162.86691593 -0.605121 162.86118348 -4.171875 162.84912109 C-5.22556274 162.86036011 -6.27925049 162.87159912 -7.36486816 162.88317871 C-13.36348351 162.83159889 -16.84544339 162.37713511 -21.40625 158.36328125 C-25.05346826 153.45840152 -25.51642056 148.67573601 -25.61157227 142.69702148 C-25.63151749 141.58072861 -25.65146271 140.46443573 -25.67201233 139.3143158 C-25.68872482 138.11231033 -25.70543732 136.91030487 -25.72265625 135.671875 C-25.74343735 134.41681656 -25.76421844 133.16175812 -25.78562927 131.8686676 C-25.82887568 129.20485193 -25.87042249 126.54107872 -25.90893555 123.87719727 C-25.96694741 119.86790617 -26.03304165 115.85876797 -26.09960938 111.84960938 C-26.28115367 100.58917558 -26.44443509 89.32841061 -26.47265625 78.06640625 C-26.47624649 77.31068832 -26.47983673 76.5549704 -26.48353577 75.77635193 C-26.47751145 60.80064283 -25.37714617 43.8801235 -16.8449707 31.0078125 C-15.19131922 27.96821419 -14.97601093 25.9514733 -14.8515625 22.51171875 C-14.79355469 21.4134375 -14.73554687 20.31515625 -14.67578125 19.18359375 C-14.57911305 16.87923281 -14.49062302 14.57451481 -14.41015625 12.26953125 C-14.34957031 11.17382812 -14.28898437 10.078125 -14.2265625 8.94921875 C-14.18805176 7.94938965 -14.14954102 6.94956055 -14.10986328 5.91943359 C-13.40625 3.36328125 -13.40625 3.36328125 -11.38037109 1.53686523 C-7.55281538 0.02651716 -4.051079 -0.04859021 0 0 Z M-2.40625 12.36328125 C-2.40625 15.33328125 -2.40625 18.30328125 -2.40625 21.36328125 C0.20326236 22.66803743 2.12076285 22.47629697 5.0390625 22.4609375 C6.11542969 22.45771484 7.19179687 22.45449219 8.30078125 22.45117188 C9.99267578 22.43860352 9.99267578 22.43860352 11.71875 22.42578125 C13.42224609 22.41901367 13.42224609 22.41901367 15.16015625 22.41210938 C17.97140638 22.4002974 20.7825523 22.38382632 23.59375 22.36328125 C23.59375 19.06328125 23.59375 15.76328125 23.59375 12.36328125 C15.01375 12.36328125 6.43375 12.36328125 -2.40625 12.36328125 Z M53.79296875 26.16015625 C52.11103931 29.25008526 51.82505487 32.13397922 51.40625 35.61328125 C51.16841797 37.50820312 51.16841797 37.50820312 50.92578125 39.44140625 C50.81621094 40.405625 50.70664063 41.36984375 50.59375 42.36328125 C45.22517391 42.71586431 42.42617907 42.14066588 38.03125 39.05078125 C32.03603476 34.90024762 27.4922947 31.97261926 20.0234375 32.03515625 C18.79753906 32.0403125 17.57164063 32.04546875 16.30859375 32.05078125 C15.04144531 32.07140625 13.77429688 32.09203125 12.46875 32.11328125 C11.19386719 32.1184375 9.91898438 32.12359375 8.60546875 32.12890625 C1.46737503 31.88362554 1.46737503 31.88362554 -5.40625 33.36328125 C-6.66249582 34.9091856 -6.66249582 34.9091856 -7.51171875 36.8984375 C-7.85525391 37.62611328 -8.19878906 38.35378906 -8.55273438 39.10351562 C-8.89626953 39.86986328 -9.23980469 40.63621094 -9.59375 41.42578125 C-9.94888672 42.16505859 -10.30402344 42.90433594 -10.66992188 43.66601562 C-12.94976406 48.61072077 -14.09656798 52.91652097 -14.40625 58.36328125 C-12.61472624 60.15480501 -9.93098568 59.53490521 -7.50952148 59.56860352 C-6.24828964 59.58854874 -4.9870578 59.60849396 -3.68760681 59.62904358 C-2.30085373 59.6460292 -0.91409934 59.66290796 0.47265625 59.6796875 C1.8837089 59.70025051 3.29475529 59.7212468 4.70579529 59.74266052 C8.4260859 59.7979488 12.14643273 59.84732811 15.86682129 59.89550781 C19.66061425 59.94567367 23.45432523 60.00138533 27.24804688 60.05664062 C34.69654523 60.16430476 42.14511159 60.26573122 49.59375 60.36328125 C50.09564114 61.76565128 50.58849123 63.17125859 51.07763672 64.578125 C51.35308319 65.36050537 51.62852966 66.14288574 51.912323 66.94897461 C52.99024249 70.76806042 52.87835968 74.42855561 52.71875 78.36328125 C52.64196017 81.03285725 52.59971291 83.69189793 52.59375 86.36328125 C54.17820025 87.9477315 55.79309223 87.49056154 57.98999023 87.49267578 C58.92443466 87.49582794 59.85887909 87.4989801 60.82164001 87.50222778 C61.83827225 87.50020355 62.85490448 87.49817932 63.90234375 87.49609375 C64.93939957 87.49705048 65.97645538 87.4980072 67.04493713 87.49899292 C69.24325623 87.49967494 71.44157732 87.49781916 73.63989258 87.49365234 C77.01322949 87.48830979 80.38643292 87.49359385 83.75976562 87.5 C85.8906253 87.49933912 88.02148488 87.49805774 90.15234375 87.49609375 C91.16695175 87.49811798 92.18155975 87.50014221 93.22691345 87.50222778 C94.63330833 87.49749954 94.63330833 87.49749954 96.06811523 87.49267578 C96.89560776 87.49188019 97.72310028 87.49108459 98.57566833 87.49026489 C100.66425959 87.49059395 100.66425959 87.49059395 102.59375 86.36328125 C103.52701071 74.96416831 103.7540289 63.55028355 103.82592773 52.11779785 C103.83776088 50.49641307 103.85480782 48.87505755 103.87719727 47.25378418 C103.90739784 44.93202621 103.91714508 42.61099598 103.921875 40.2890625 C103.93418152 39.59474625 103.94648804 38.90042999 103.95916748 38.18507385 C103.93655289 33.12367526 102.88553224 29.78094806 100.59375 25.36328125 C94.28584201 19.37076866 87.63944412 20.11364531 79.45239258 20.06811523 C78.01023543 20.05660133 76.56812071 20.03615834 75.1262207 20.0065918 C73.03567739 19.963742 70.94639766 19.94772379 68.85546875 19.9375 C67.60725342 19.92291748 66.35903809 19.90833496 65.07299805 19.89331055 C60.21679035 20.54927854 57.21428104 22.74626546 53.79296875 26.16015625 Z M-14.40625 69.36328125 C-14.40625 89.82328125 -14.40625 110.28328125 -14.40625 131.36328125 C-5.351875 131.38390625 3.7025 131.40453125 13.03125 131.42578125 C15.89353271 131.43488525 18.75581543 131.44398926 21.70483398 131.45336914 C23.95817009 131.45628807 26.21150673 131.45883668 28.46484375 131.4609375 C30.23849304 131.46861145 30.23849304 131.46861145 32.04797363 131.47644043 C33.16450317 131.47656128 34.28103271 131.47668213 35.43139648 131.47680664 C36.40624496 131.47902725 37.38109344 131.48124786 38.38548279 131.48353577 C40.56847116 131.6110971 40.56847116 131.6110971 41.59375 130.36328125 C41.68766296 128.46084363 41.71118658 126.55489666 41.70727539 124.65014648 C41.70719986 123.42895615 41.70712433 122.20776581 41.70704651 120.9495697 C41.70193911 119.60700439 41.69672311 118.2644395 41.69140625 116.921875 C41.68954199 115.55566967 41.68811813 114.18946368 41.68711853 112.82325745 C41.68329394 109.2212643 41.67346417 105.61931125 41.66241455 102.01733398 C41.65219916 98.3442439 41.64756594 94.67114717 41.64257812 90.99804688 C41.63237203 83.78642288 41.61280038 76.5749091 41.59375 69.36328125 C23.11375 69.36328125 4.63375 69.36328125 -14.40625 69.36328125 Z M52.59375 97.36328125 C52.34438375 109.97283288 52.34438375 109.97283288 52.11572266 122.58276367 C52.08049959 124.16977587 52.04457645 125.75677275 52.0078125 127.34375 C51.99645264 128.16025024 51.98509277 128.97675049 51.97338867 129.81799316 C51.95332764 130.60919556 51.9332666 131.40039795 51.91259766 132.21557617 C51.89927399 132.89730392 51.88595032 133.57903168 51.8722229 134.28141785 C51.59375 136.36328125 51.59375 136.36328125 49.59375 141.36328125 C28.80375 141.69328125 8.01375 142.02328125 -13.40625 142.36328125 C-14.83838538 146.99775457 -14.83838538 146.99775457 -13.37513733 149.6416626 C-10.56245757 152.10110345 -8.61185793 151.88144838 -4.90405273 151.90917969 C-4.24621796 151.91951736 -3.58838318 151.92985504 -2.91061401 151.94050598 C-0.72011145 151.97012778 1.46946789 151.97144092 3.66015625 151.97265625 C5.21111234 151.98768102 6.7620527 152.00441696 8.31297302 152.02276611 C12.42797459 152.06662696 16.54276491 152.08643078 20.65795898 152.10150146 C24.70635904 152.12059023 28.75449897 152.16292629 32.80273438 152.203125 C40.00509113 152.27134344 47.20717851 152.3079916 54.40981483 152.32935333 C59.2479493 152.34614958 64.08504449 152.38864432 68.92278767 152.45214462 C72.05681658 152.49147454 75.19088614 152.51884002 78.32505608 152.54416656 C79.79521801 152.5588052 81.2653389 152.57864062 82.73535347 152.60408783 C93.14032019 153.0139395 93.14032019 153.0139395 102.59375 149.36328125 C103.5829563 146.39566235 103.68683174 144.6087031 103.61547852 141.5246582 C103.59505493 140.53018677 103.57463135 139.53571533 103.55358887 138.5111084 C103.5268811 137.46845825 103.50017334 136.42580811 103.47265625 135.3515625 C103.45199097 134.39133179 103.43132568 133.43110107 103.41003418 132.44177246 C103.33123883 128.85297671 103.24318632 125.26438902 103.15625 121.67578125 C102.970625 113.65265625 102.785 105.62953125 102.59375 97.36328125 C86.09375 97.36328125 69.59375 97.36328125 52.59375 97.36328125 Z " fill="#F5FEFD" transform="translate(76.40625,36.63671875)"/>
<path d="M0 0 C1.30130859 -0.01224609 2.60261719 -0.02449219 3.94335938 -0.03710938 C5.81024414 -0.04000977 5.81024414 -0.04000977 7.71484375 -0.04296875 C8.85945068 -0.04707764 10.00405762 -0.05118652 11.18334961 -0.05541992 C14.0625 0.1875 14.0625 0.1875 17.0625 2.1875 C17.35409149 5.07243931 17.45840537 7.73937937 17.42578125 10.625 C17.42652901 11.8788147 17.42652901 11.8788147 17.42729187 13.15795898 C17.42494959 14.92661921 17.41521197 16.69528266 17.39868164 18.46386719 C17.37509361 21.17673432 17.37811867 23.88861895 17.38476562 26.6015625 C17.37918889 28.31771421 17.37207904 30.03386178 17.36328125 31.75 C17.36464836 32.9719104 17.36464836 32.9719104 17.36604309 34.21850586 C17.29352158 39.95647842 17.29352158 39.95647842 15.0625 42.1875 C8.71881302 43.01803258 5.24494552 41.02385696 0.1875 37.625 C-0.50996338 37.17189453 -1.20742676 36.71878906 -1.92602539 36.25195312 C-16.0440195 26.97446101 -16.0440195 26.97446101 -17.9375 23.1875 C-18.0625348 20.40474882 -18.12267508 17.65793207 -18.125 14.875 C-18.13724609 14.11509766 -18.14949219 13.35519531 -18.16210938 12.57226562 C-18.17307806 8.36394739 -18.02154789 4.968036 -15.9375 1.1875 C-11.37493942 -1.09378029 -5.00942821 0.00247379 0 0 Z M-5.9375 11.1875 C-6.2675 13.4975 -6.5975 15.8075 -6.9375 18.1875 C-5.65033353 19.19328589 -4.35761342 20.19196798 -3.0625 21.1875 C-2.34320313 21.744375 -1.62390625 22.30125 -0.8828125 22.875 C0.9477085 24.37393377 0.9477085 24.37393377 3.0625 24.1875 C3.0625 24.8475 3.0625 25.5075 3.0625 26.1875 C4.0525 26.1875 5.0425 26.1875 6.0625 26.1875 C6.0625 21.2375 6.0625 16.2875 6.0625 11.1875 C2.1025 11.1875 -1.8575 11.1875 -5.9375 11.1875 Z " fill="#F7FEFD" transform="translate(153.9375,65.8125)"/>
<path d="M0 0 C0.66 0.33 1.32 0.66 2 1 C2.02312851 8.54498233 2.04091769 16.08996101 2.05181217 23.63497066 C2.05703989 27.13808885 2.0641355 30.64118285 2.07543945 34.14428711 C2.08834206 38.16780841 2.09322912 42.19130414 2.09765625 46.21484375 C2.10281754 47.47836166 2.10797882 48.74187958 2.11329651 50.04368591 C2.11337204 51.204814 2.11344757 52.36594208 2.11352539 53.56225586 C2.115746 54.59039902 2.11796661 55.61854218 2.12025452 56.67784119 C2 59 2 59 1 60 C-0.5906331 60.09854422 -2.18561477 60.12798694 -3.77929688 60.12939453 C-5.30592957 60.13412277 -5.30592957 60.13412277 -6.86340332 60.13894653 C-7.97066772 60.1369223 -9.07793213 60.13489807 -10.21875 60.1328125 C-11.34696167 60.13376923 -12.47517334 60.13472595 -13.63757324 60.13571167 C-16.02840226 60.13639368 -18.41923311 60.13453797 -20.81005859 60.13037109 C-24.48409151 60.12502316 -28.15800217 60.13031543 -31.83203125 60.13671875 C-34.14843777 60.13605797 -36.46484422 60.13477682 -38.78125 60.1328125 C-39.8885144 60.13483673 -40.99577881 60.13686096 -42.13659668 60.13894653 C-43.15435181 60.13579437 -44.17210693 60.13264221 -45.22070312 60.12939453 C-46.12147583 60.12859894 -47.02224854 60.12780334 -47.95031738 60.12698364 C-50 60 -50 60 -51 59 C-51.07226502 57.14712498 -51.0838122 55.29166122 -51.0625 53.4375 C-51.05347656 52.42558594 -51.04445313 51.41367188 -51.03515625 50.37109375 C-51.02355469 49.58863281 -51.01195313 48.80617187 -51 48 C-50.67 48 -50.34 48 -50 48 C-49.67 51.3 -49.34 54.6 -49 58 C-32.83 58 -16.66 58 0 58 C0 38.86 0 19.72 0 0 Z " fill="#E2FEFF" transform="translate(179,65)"/>
<path d="M0 0 C0.99 0.33 1.98 0.66 3 1 C3.04935509 6.37514905 3.08569802 11.75016685 3.10986328 17.12548828 C3.11993484 18.95493873 3.13359276 20.78437303 3.15087891 22.61376953 C3.17507677 25.23994934 3.18647132 27.86591675 3.1953125 30.4921875 C3.20563507 31.31306854 3.21595764 32.13394958 3.22659302 32.97970581 C3.22699184 34.98789142 3.1224954 36.99555382 3 39 C1 41 1 41 -2.625 41.125 C-3.73875 41.08375 -4.8525 41.0425 -6 41 C-6 40.67 -6 40.34 -6 40 C-4.02 40 -2.04 40 0 40 C0 26.8 0 13.6 0 0 Z " fill="#D9FFFF" transform="translate(168,67)"/>
<path d="M0 0 C2 2 2 2 2 5 C1.01 5 0.02 5 -1 5 C-0.938125 6.175625 -0.938125 6.175625 -0.875 7.375 C-1.03459146 12.00315227 -1.64525857 16.55945863 -3 21 C-3.66 21.33 -4.32 21.66 -5 22 C-4.69121494 14.01790621 -3.06446761 7.36897561 0 0 Z " fill="#E5FEFE" transform="translate(56,76)"/>
<path d="M0 0 C0.66 0 1.32 0 2 0 C1.85973717 2.31284456 1.71264442 4.62527591 1.5625 6.9375 C1.48128906 8.22527344 1.40007812 9.51304688 1.31640625 10.83984375 C1 14 1 14 0 15 C-2.33297433 15.04092937 -4.66705225 15.04241723 -7 15 C-5.68 14.34 -4.36 13.68 -3 13 C-3.33 12.34 -3.66 11.68 -4 11 C-2.68 11 -1.36 11 0 11 C0 7.37 0 3.74 0 0 Z " fill="#DDFEFE" transform="translate(127,65)"/>
<path d="M0 0 C0.33 0.66 0.66 1.32 1 2 C-0.2739589 4.03833424 -1.61061923 6.03852126 -3 8 C-3.66 8 -4.32 8 -5 8 C-5.33 8.66 -5.66 9.32 -6 10 C-5.49477778 5.62140745 -2.82172778 3.18348776 0 0 Z " fill="#E4FEFE" transform="translate(126,51)"/>
</svg>
