<?xml version="1.0" encoding="UTF-8"?>
<svg version="1.1" xmlns="http://www.w3.org/2000/svg" width="205" height="193">
<path d="M0 0 C2.96508789 -0.35644531 2.96508789 -0.35644531 6.72265625 -0.328125 C7.38333603 -0.32625183 8.04401581 -0.32437866 8.72471619 -0.32244873 C10.12097217 -0.3157261 11.51720925 -0.30180717 12.91333008 -0.28125 C15.05763114 -0.2500708 17.20119779 -0.24027799 19.34570312 -0.234375 C29.83662324 -0.16337676 29.83662324 -0.16337676 31 1 C31.0771463 8.62034008 31.0771463 8.62034008 30.99023438 11.24414062 C31.09014917 16.33979505 32.33424081 19.85731775 34.88373184 24.28733253 C40.24917411 33.74174166 41.13763877 41.61896018 40.921875 52.3203125 C40.91708828 53.91974285 40.91529926 55.51918464 40.9163208 57.11862183 C40.91013133 60.43528843 40.87750659 63.75018459 40.82324219 67.06640625 C40.75472642 71.30546043 40.74000428 75.54260868 40.74302292 79.78215218 C40.74193412 83.06977336 40.71998737 86.35698253 40.69101715 89.6444664 C40.67835262 91.20806655 40.6704202 92.77171288 40.66744232 94.33536148 C40.65872887 96.51490927 40.62365628 98.69246596 40.58105469 100.87158203 C40.5581839 102.72446335 40.5581839 102.72446335 40.53485107 104.61477661 C39.74045938 109.64270581 37.65044362 112.65063985 33.73751831 115.8497467 C30.19818987 117.33690541 26.97471732 117.42768521 23.19970703 117.40405273 C22.4299353 117.41091599 21.66016357 117.41777924 20.86706543 117.42485046 C18.33045842 117.44310375 15.7944709 117.43928265 13.2578125 117.43359375 C11.48810628 117.43815681 9.71840183 117.44346276 7.94869995 117.44947815 C4.24160561 117.45840677 0.53472671 117.45598964 -3.17236328 117.44604492 C-7.91253251 117.4345653 -12.65195567 117.4547523 -17.3920269 117.48396206 C-21.04672944 117.50235035 -24.70125415 117.50202621 -28.35599136 117.49632454 C-30.1030189 117.49617159 -31.8500587 117.50219379 -33.59704208 117.51461601 C-36.04546978 117.52957147 -38.49253165 117.51881618 -40.94091797 117.50170898 C-41.6559549 117.51137695 -42.37099182 117.52104492 -43.10769653 117.53100586 C-48.60055644 117.45104257 -51.6627902 116.19267814 -56 113 C-59.46166704 108.15315263 -59.42961282 103.59305507 -59.38818359 97.86108398 C-59.39344055 96.96115723 -59.39869751 96.06123047 -59.40411377 95.1340332 C-59.41727466 92.1712081 -59.40859023 89.20892394 -59.3984375 86.24609375 C-59.40045918 84.18156329 -59.4033714 82.11703352 -59.40713501 80.05250549 C-59.41155292 75.73097925 -59.40514372 71.40963932 -59.39111328 67.08813477 C-59.3740111 61.5508948 -59.38387264 56.01409075 -59.40183067 50.47686672 C-59.41267369 46.21577167 -59.40921995 41.95477989 -59.4014473 37.69368172 C-59.39944729 35.65194713 -59.40189757 33.61020314 -59.40888596 31.56847954 C-59.41651003 28.71524091 -59.40488311 25.86270762 -59.38818359 23.00952148 C-59.39425629 22.16730545 -59.40032898 21.32508942 -59.40658569 20.45735168 C-59.35617313 15.80481177 -58.97639214 12.802837 -56 9 C-52.37727545 6.17216868 -47.8677007 6.67636864 -43.47265625 6.6640625 C-42.6467247 6.6574057 -41.82079315 6.6507489 -40.96983337 6.64389038 C-39.22576113 6.63378101 -37.48165034 6.62907283 -35.73754883 6.62939453 C-33.07503342 6.62502059 -30.41417549 6.58868291 -27.75195312 6.55078125 C-26.05469315 6.54491278 -24.35742533 6.54094359 -22.66015625 6.5390625 C-21.86730728 6.52469147 -21.07445831 6.51032043 -20.25758362 6.49551392 C-16.3152589 6.52796628 -14.43097478 6.7262499 -11.01660156 8.89501953 C-7.95174261 12.09419797 -7.7872078 14.70613929 -7 19 C-5.02 18.34 -3.04 17.68 -1 17 C-1.165 16.175 -1.33 15.35 -1.5 14.5 C-2.94117647 4.41176471 -2.94117647 4.41176471 0 0 Z M6 7 C6 9.64 6 12.28 6 15 C11.94 15 17.88 15 24 15 C24 12.36 24 9.72 24 7 C18.06 7 12.12 7 6 7 Z M-51 15 C-52.59300391 18.18600783 -52.15623331 21.63439834 -52.16113281 25.1340332 C-52.16609772 25.97485443 -52.17106262 26.81567566 -52.17617798 27.68197632 C-52.1908171 30.47158621 -52.19760485 33.26113921 -52.203125 36.05078125 C-52.20887544 37.98650617 -52.21463318 39.92223106 -52.22039795 41.85795593 C-52.23091321 45.92085028 -52.2367523 49.98372481 -52.24023438 54.04663086 C-52.24571727 59.25213293 -52.26973874 64.45737318 -52.29820633 69.66279316 C-52.31683363 73.66308862 -52.32203838 77.66332107 -52.32357025 81.66365623 C-52.32659759 83.58259702 -52.33462883 85.50153668 -52.34775543 87.42043495 C-52.36481626 90.10641991 -52.36293552 92.791766 -52.35644531 95.4777832 C-52.3656601 96.27017899 -52.37487488 97.06257477 -52.3843689 97.87898254 C-52.35009999 102.40793182 -51.9106153 105.45203751 -49 109 C-45.50056762 110.16647746 -42.73125789 110.14135363 -39.03759766 110.16113281 C-38.33318039 110.16609772 -37.62876312 110.17106262 -36.90299988 110.17617798 C-34.57334414 110.1907794 -32.24375648 110.19759802 -29.9140625 110.203125 C-28.29365029 110.20887789 -26.6732381 110.21463561 -25.05282593 110.22039795 C-21.65500573 110.23090203 -18.25720915 110.23674865 -14.859375 110.24023438 C-10.50920453 110.24571945 -6.159347 110.26975007 -1.80927467 110.29820633 C1.53820707 110.31684528 4.8856136 110.32203896 8.23314285 110.32357025 C9.83669369 110.32659422 11.44024329 110.33461415 13.04374313 110.34775543 C15.28900615 110.3648435 17.53350663 110.36292941 19.77880859 110.35644531 C21.69383682 110.36191376 21.69383682 110.36191376 23.64755249 110.36749268 C27.33707665 109.96304992 29.20884026 109.44946165 32 107 C32.33 105.02 32.66 103.04 33 101 C17.16 100.67 1.32 100.34 -15 100 C-16.26028952 97.47942097 -16.12699192 95.74441419 -16.12939453 92.92358398 C-16.13254669 91.86586288 -16.13569885 90.80814178 -16.13894653 89.71836853 C-16.1369223 88.57251785 -16.13489807 87.42666718 -16.1328125 86.24609375 C-16.13376923 85.07490494 -16.13472595 83.90371613 -16.13571167 82.69703674 C-16.13639308 80.21802721 -16.13454153 77.73901589 -16.13037109 75.26000977 C-16.12501755 71.44999212 -16.13031992 67.64009211 -16.13671875 63.83007812 C-16.13605806 61.42708307 -16.13477707 59.02408809 -16.1328125 56.62109375 C-16.13483673 55.47321884 -16.13686096 54.32534393 -16.13894653 53.14268494 C-16.13421829 51.56083153 -16.13421829 51.56083153 -16.12939453 49.94702148 C-16.12859894 49.0137352 -16.12780334 48.08044891 -16.12698364 47.11888123 C-16 45 -16 45 -15 44 C-13.52749355 43.87767356 -12.04934289 43.8222544 -10.57202148 43.79467773 C-9.63112167 43.77473251 -8.69022186 43.75478729 -7.72080994 43.73423767 C-6.69790359 43.71752518 -5.67499725 43.70081268 -4.62109375 43.68359375 C-3.058395 43.6524221 -3.058395 43.6524221 -1.46412659 43.62062073 C1.87801247 43.55500943 5.22023285 43.49618669 8.5625 43.4375 C10.82227418 43.39432578 13.08204001 43.35071186 15.34179688 43.30664062 C20.89444421 43.19931633 26.44717321 43.09757188 32 43 C32.82772873 39.34611831 33.22044537 37.54386489 31.34765625 34.23046875 C30.98349609 33.56982422 30.61933594 32.90917969 30.24414062 32.22851562 C29.65922852 31.21821289 29.65922852 31.21821289 29.0625 30.1875 C28.48338867 29.14819336 28.48338867 29.14819336 27.89257812 28.08789062 C26.94115707 26.38472948 25.97226095 24.6913511 25 23 C7.84749301 21.76100045 7.84749301 21.76100045 -7.79296875 27.6875 C-10 29 -10 29 -14 29 C-16.10818511 24.78362979 -15.60851985 19.69776176 -16 15 C-27.55 15 -39.1 15 -51 15 Z M-9 50 C-9 64.19 -9 78.38 -9 93 C4.86 93 18.72 93 33 93 C33 78.81 33 64.62 33 50 C19.14 50 5.28 50 -9 50 Z " fill="#FCFCFC" transform="translate(112,37)"/>
<path d="M0 0 C1.40958984 -0.00193359 1.40958984 -0.00193359 2.84765625 -0.00390625 C3.83636719 -0.00003906 4.82507813 0.00382812 5.84375 0.0078125 C7.32681641 0.00201172 7.32681641 0.00201172 8.83984375 -0.00390625 C9.77957031 -0.00261719 10.71929687 -0.00132813 11.6875 0 C12.55568359 0.00112793 13.42386719 0.00225586 14.31835938 0.00341797 C16.34375 0.1328125 16.34375 0.1328125 17.34375 1.1328125 C17.55114432 4.08670011 17.66835886 6.98826868 17.71875 9.9453125 C17.75613281 10.76580078 17.79351562 11.58628906 17.83203125 12.43164062 C17.92080641 18.51273916 17.92080641 18.51273916 15.1953125 21.44140625 C14.25429687 21.99957031 13.31328125 22.55773437 12.34375 23.1328125 C11.374375 23.83921875 10.405 24.545625 9.40625 25.2734375 C7.8903125 26.31757812 7.8903125 26.31757812 6.34375 27.3828125 C5.333125 28.08921875 4.3225 28.795625 3.28125 29.5234375 C0.2518222 31.1831772 -1.27290108 31.59198128 -4.65625 31.1328125 C-6.51339057 29.27567193 -5.78673681 26.20774201 -5.7890625 23.7265625 C-5.79035156 22.42589844 -5.79164062 21.12523437 -5.79296875 19.78515625 C-5.79087402 19.10437012 -5.7887793 18.42358398 -5.78662109 17.72216797 C-5.7812724 15.64152735 -5.7865668 13.56110261 -5.79296875 11.48046875 C-5.79167969 10.17980469 -5.79039063 8.87914063 -5.7890625 7.5390625 C-5.78793457 6.33572266 -5.78680664 5.13238281 -5.78564453 3.89257812 C-5.57391193 -0.62331878 -4.07590761 0.00529535 0 0 Z M1.34375 7.1328125 C1.34375 11.4228125 1.34375 15.7128125 1.34375 20.1328125 C6.41531861 18.3372691 6.41531861 18.3372691 10.34375 15.1328125 C10.68727295 12.37917612 10.52689496 9.92577308 10.34375 7.1328125 C7.37375 7.1328125 4.40375 7.1328125 1.34375 7.1328125 Z " fill="#FDFDFD" transform="translate(72.65625,57.8671875)"/>
</svg>
